<svg _ngcontent-ixk-c153="" version="1.1" id="andhrapradeshMap" xmlns="http://www.w3.org/2000/svg" xmlns:xlink="http://www.w3.org/1999/xlink" x="0px" y="0px" viewBox="0 0 1200 900" xml:space="preserve" style="enable-background: new 0 0 1200 900;">
    <style _ngcontent-ixk-c153="" type="text/css"> 
        #andhrapradeshMap {
            transform: scale(1.0);
            width: 100%;
        }

        text {
            font-family: 'Quicksand', 'sans-serif';
            fill: black;
            font-size: 14px;
            cursor: pointer;
            pointer-events: none;
        }

        .st0 { enable-background: new; }
        .st1 { fill: #BA81A4; }
        .st2 { fill: none; stroke: #FDFDFF; stroke-miterlimit: 10; }
        .st3 { fill: #85B135; }
        .st4 { fill: #F26E47; }
        .st5 { fill: none; stroke: #FFFFFF; stroke-miterlimit: 10; }
        .st6 { fill: #B6CB32; }
        .st7 { fill: #E7468C; }
        .st8 { fill: #FAAD5F; }
        .st9 { fill: blueviolet; }
        .st10 { fill: #FB7747; }
        .st11 { fill: #19b8c3; }
        .st12 { fill: #E48CB4; }
        .st13 { fill: #7d74cb; }
        .st14 { fill: #BE88AA; }
        .st15 { fill: #7DAE38; }
        .st16 { fill: #EE3F8C; }
        .st17 { fill: #F3754C; }
        .st18 { fill: #568ff7; }
        .st19 { fill: crimson; }
        .st20 { fill: #FAAC64; }
        .st21 { fill: #BC89AA; }
        .st22 { fill: #3eb790; }
        .st23 { fill: fuchsia; }
        .st24 { fill: #009738; }
        .st25 { fill: #e18a3a; }
        .st26 { fill: #A4D6F9; }
        .st27 { fill: #EE3F2A; }
        .st28 { fill: #B7CB38; }
        .st29 { font-family: 'ArialMT'; }
        .st30 {
            fill: #fff;
            font-size: 24px;
            transition: all 0.3s ease; /* Smooth transition for hover effects */
        }

        .st30:hover {
            text-decoration: none;
        }

        .st0:hover, .st1:hover, .st2:hover, .st3:hover, .st4:hover, .st5:hover,
        .st6:hover, .st7:hover, .st8:hover, .st9:hover, .st10:hover, .st11:hover,
        .st12:hover, .st13:hover, .st14:hover, .st15:hover, .st16:hover, .st17:hover,
        .st18:hover, .st19:hover, .st20:hover, .st21:hover, .st22:hover, .st23:hover,
        .st24:hover, .st25:hover, .st26:hover, .st27:hover, .st28:hover, .st29:hover, .st30:hover {
            transform: translateY(-5px); /* Moves the district piece slightly upward */
            filter: drop-shadow(0px 4px 4px rgba(0, 0, 0, 0.3)); /* Adds a subtle shadow for depth */
            cursor: pointer;
            transition: all 0.3s ease; /* Smooth hover effect */
        }
    </style>
    <g _ngcontent-ixk-c153="" id="Layer_1_xA0_Image_1_"><image _ngcontent-ixk-c153="" width="1200" height="900" id="Layer_1_xA0_Image" xlink:href="72C3C8B1.png" transform="matrix(1 0 0 1 3.4693 1143.3256)" style="overflow: visible;"></image></g><g _ngcontent-ixk-c153="" id="chittor_1_" class="st0"><a _ngcontent-ixk-c153="" title="Chittor"  target="_blank"><g _ngcontent-ixk-c153="" id="chittor"><g _ngcontent-ixk-c153=""><path _ngcontent-ixk-c153="" d="M530.7,784.3c-0.4-0.2-0.8-0.6-1-1c-1.8-3.5-6.6-16.4-6.6-18.3c-0.4,0.2-4.6,11.9-14,8
                               c-0.9-0.8-6.3,0.4-3-12c-0.1-0.7-5.2-6.9-2-13c-1.7,0.6-4.6,8.7-12-3c-0.7-0.1-18.9,2.6-22-4c-0.6-1.1-5-8.8-3-14
                               c-0.5-0.6-1.8-14.6-16-14c-0.3,0.1-14.4-4.4-8,5c0.5,1.2,5.7,4.2,7,10c0,1.3,4.1,4.1-1,12c-0.2,0.9-2,6.4,11,6
                               c0.4,0.1,4.5,1.3-1,7c-0.2,0.6,0,4.7-10,1c-1.6,0.9-2,1-2,1s-10.5,2.8-12,12c-0.1,0.9-2.3,27.2-23,11c-1.1,0-6.9-9.8-13,4
                               c-0.3,0.2-4.6-0.9-8,2c0.3,0.7-0.4,10-6,16c-0.6,0.8-0.6,9.9-7,13c-0.3,1,0.8,8.5-4,11c-0.9,0.6-4.9,7.8-11,7
                               c-1.1,1,1.1,10.1-10,7c-0.3,0.8-1.3,11.4-5,13c0.7,1.1,3.7,0.4,2,2c0,0.4-1.4,3.3-5,4c0.3,0.2-3,6.9,8-1c0,0,7,2.3,9,7
                               c0.3,0.2,10,5.3,15-1c0.4-0.7,2.4-6.2,5-7c0.6,0.1,4-0.4,5,2c0.7-0.4,2.4-1.9,1-5c0.1-1.3,0.6-6.3,4-7c0.9-0.9,2-6,2-6
                               s-2.8-3.2,1-6c0.7-0.5,2-5,2-5s-6.5-15.4,8-15c0.6-0.2-1.9-4.7,3-4c1.1,0,17.3-3.3,20-1c-0.1,0.1,2,6,2,6l1-6c0,0,4.4-3.8,10,0
                               c0.6,0.2,5.4,0.4,8,5c2.6,4.6,12,0,12,0l2-6c0,0,7.3-13.7,12-7c1.2,0.4,10.8,3.1,10-7c0.4-0.6-4.1-3,3-2c1.2-0.6,9.5,0.4,0-11
                               c0-1.6-3.2-8.9,4-7c0.9-0.1,12.5-2.8,16.6,7.8c0.3,0.8,1.1,1.3,2,1.2c3.4-0.5,11.3-2.1,13.5,0.1c0.3,1.1-2.7,8.5,8,7
                               C533.3,788.8,537.2,787.5,530.7,784.3z" class="st1 district" data-name="Chittor"></path></g><g _ngcontent-ixk-c153=""><path _ngcontent-ixk-c153="" d="M530.7,784.3c-0.4-0.2-0.8-0.6-1-1c-1.8-3.5-6.6-16.4-6.6-18.3c-0.4,0.2-4.6,11.9-14,8
                               c-0.9-0.8-6.3,0.4-3-12c-0.1-0.7-5.2-6.9-2-13c-1.7,0.6-4.6,8.7-12-3c-0.7-0.1-18.9,2.6-22-4c-0.6-1.1-5-8.8-3-14
                               c-0.5-0.6-1.8-14.6-16-14c-0.3,0.1-14.4-4.4-8,5c0.5,1.2,5.7,4.2,7,10c0,1.3,4.1,4.1-1,12c-0.2,0.9-2,6.4,11,6
                               c0.4,0.1,4.5,1.3-1,7c-0.2,0.6,0,4.7-10,1c-1.6,0.9-2,1-2,1s-10.5,2.8-12,12c-0.1,0.9-2.3,27.2-23,11c-1.1,0-6.9-9.8-13,4
                               c-0.3,0.2-4.6-0.9-8,2c0.3,0.7-0.4,10-6,16c-0.6,0.8-0.6,9.9-7,13c-0.3,1,0.8,8.5-4,11c-0.9,0.6-4.9,7.8-11,7
                               c-1.1,1,1.1,10.1-10,7c-0.3,0.8-1.3,11.4-5,13c0.7,1.1,3.7,0.4,2,2c0,0.4-1.4,3.3-5,4c0.3,0.2-3,6.9,8-1c0,0,7,2.3,9,7
                               c0.3,0.2,10,5.3,15-1c0.4-0.7,2.4-6.2,5-7c0.6,0.1,4-0.4,5,2c0.7-0.4,2.4-1.9,1-5c0.1-1.3,0.6-6.3,4-7c0.9-0.9,2-6,2-6
                               s-2.8-3.2,1-6c0.7-0.5,2-5,2-5s-6.5-15.4,8-15c0.6-0.2-1.9-4.7,3-4c1.1,0,17.3-3.3,20-1c-0.1,0.1,2,6,2,6l1-6c0,0,4.4-3.8,10,0
                               c0.6,0.2,5.4,0.4,8,5c2.6,4.6,12,0,12,0l2-6c0,0,7.3-13.7,12-7c1.2,0.4,10.8,3.1,10-7c0.4-0.6-4.1-3,3-2c1.2-0.6,9.5,0.4,0-11
                               c0-1.6-3.2-8.9,4-7c0.9-0.1,12.5-2.8,16.6,7.8c0.3,0.8,1.1,1.3,2,1.2c3.4-0.5,11.3-2.1,13.5,0.1c0.3,1.1-2.7,8.5,8,7
                               C533.3,788.8,537.2,787.5,530.7,784.3z" class="st2 district" data-name="Chittor"></path></g></g></a><title _ngcontent-ixk-c153="">Chittor</title></g><g _ngcontent-ixk-c153="" id="annamayya_1_" class="st0"><a _ngcontent-ixk-c153="" title="Annamayya" target="_blank"><g _ngcontent-ixk-c153="" id="annamayya"><g _ngcontent-ixk-c153=""><path _ngcontent-ixk-c153="" d="M490,711c-0.2-2.8,0-51,0-51s-3.9-9.6-9-12c-1.5,0.4-13,0-13,0l-3-1v-6l-3-5h-22l-1-3l-4-1
                               c0,0-13.8-12.1-8,4c0.6,1.2,4.4,12.5-2,20c-0.8,0.7-9,0-9,0s-5.9-8.4-13,4c-0.6,0.9-3.6,7-13,15c-1.1,0-10.5-4.9-13-1
                               c0.3,1.1,0,10,0,10l-2,4l3,4c0,0-4.7,8.4-12,9c-0.8,0.3-12.2,0.6-13,17c0.3,0.6-3.5,8.6-16,3c-0.8,0.9-9.3,1.1-3,6
                               c0.5,0.8,1.8,9-3,5c-0.4,0.5-9.5,6.6,9,5c1.3,0.6,3.9,0.3,5,5c1.1,4.7-2.5,8.7,3,4c1.6-0.4,18.1-3.6,21,0c0.1,1.6,0,5,0,5
                               s-3.8,3.7-1,11c0.4,1.4,2,6.8-1,8c-0.1,1.1-4.6,6,0,6c0.6,0.2,1,4,1,4s6.6-1.9,8,2c1.2,1.5,10.5,13.3,12-5c0.6-1.1,3.4,1.5,10-1
                               c1.3,0.2,7.4-7.9,15-2c1.1,1.1,16.6,19.7,19-10c0.6-1.1,4.3-9.7,13-11c1.7,0,2.4-3.6,8,0c0.6,0,13.9-5.7,0-6
                               c-1.6-0.2-10.2-1.7-5-11c0.5-0.8,5.1-4-4-11c-0.6-0.4-9.5-12.9-2-16c1.4-0.4,11-7.4,26,10c0.7,0.9,3,5.8,13,4
                               c1.7-0.5,9.7-3.9,12-7C492.9,714.6,490.2,713.8,490,711z" class="st3 district" data-name="Annamayya"></path></g><g _ngcontent-ixk-c153=""><path _ngcontent-ixk-c153="" d="M490,711c-0.2-2.8,0-51,0-51s-3.9-9.6-9-12c-1.5,0.4-13,0-13,0l-3-1v-6l-3-5h-22l-1-3l-4-1
                               c0,0-13.8-12.1-8,4c0.6,1.2,4.4,12.5-2,20c-0.8,0.7-9,0-9,0s-5.9-8.4-13,4c-0.6,0.9-3.6,7-13,15c-1.1,0-10.5-4.9-13-1
                               c0.3,1.1,0,10,0,10l-2,4l3,4c0,0-4.7,8.4-12,9c-0.8,0.3-12.2,0.6-13,17c0.3,0.6-3.5,8.6-16,3c-0.8,0.9-9.3,1.1-3,6
                               c0.5,0.8,1.8,9-3,5c-0.4,0.5-9.5,6.6,9,5c1.3,0.6,3.9,0.3,5,5c1.1,4.7-2.5,8.7,3,4c1.6-0.4,18.1-3.6,21,0c0.1,1.6,0,5,0,5
                               s-3.8,3.7-1,11c0.4,1.4,2,6.8-1,8c-0.1,1.1-4.6,6,0,6c0.6,0.2,1,4,1,4s6.6-1.9,8,2c1.2,1.5,10.5,13.3,12-5c0.6-1.1,3.4,1.5,10-1
                               c1.3,0.2,7.4-7.9,15-2c1.1,1.1,16.6,19.7,19-10c0.6-1.1,4.3-9.7,13-11c1.7,0,2.4-3.6,8,0c0.6,0,13.9-5.7,0-6
                               c-1.6-0.2-10.2-1.7-5-11c0.5-0.8,5.1-4-4-11c-0.6-0.4-9.5-12.9-2-16c1.4-0.4,11-7.4,26,10c0.7,0.9,3,5.8,13,4
                               c1.7-0.5,9.7-3.9,12-7C492.9,714.6,490.2,713.8,490,711z" class="st2 district" data-name="Annamayya"></path></g></g></a><title _ngcontent-ixk-c153="">Annamayya</title></g><g _ngcontent-ixk-c153="" id="sri-balaji_1_" class="st0"><a _ngcontent-ixk-c153="" title="Tirupati" target="_blank"><g _ngcontent-ixk-c153="" id="sri-balaji"><g _ngcontent-ixk-c153=""><path _ngcontent-ixk-c153="" d="M583,705c-0.3-1.3-17.5-35.3-8-40c0.3-0.3,0.1-18.7,4-18c0.6-0.7,2.7-9.2-3-11c-0.7,0.7-5.4,1.6-8,0
                               c-0.9,0.6-4,0.7-1,9c0.1,0.5-6.1,11.3-16-3c-0.8-0.1-1.8-4.3-5,5c-0.2-0.3-14.9-4.7-17-10c-0.2-1.1-1.9-3.2,1-6
                               c0.3-0.3,6.2-16.7-8-12c-0.2,0.3-5.6,11.1-7,12c0.5,0.3,1.6,4.7,5,5c0,0.2-6.5,9.1-11,8c-0.5,0-5.8-7.2-4-11
                               c-0.3-0.2-2.5-3.7-5,0c-0.4-0.1-7.7-1.6-5-6c0.3-0.6-3-13.3-17,2c-0.7,0.4-3.8,2.5,5,13c0.5,0.8,8.5,10.4,9,14
                               c0,0.8,3.4,32.1,2,39c0.2,0.6,0.3,8.2-1,9c-0.3,0.3,6.5,13.2-1,16c-0.9,0.6-9.9,9.9-22,5c0,0-1.8,15.5,10,18c1,0.2,10.3-6.5,16,2
                               c0.9,0.5,3,3,3,3s6-9.1,8-3c0.4,1.2-2,7.6-1,10c0.6,0.9,7,4.2,4,9c-0.5,0.6-6,8.5,5,7c0.8-0.3,6-9,6-9s3.5-4.9,5,2
                               c0.1,1.1-1.1,5.9,5,12c0.4,1.1,0,5,0,5s3.5,2,4-1c0.2-0.9,0-2,0-2s-1.1-2.3,8,0c0.8-0.1,10.3-1.9,8-11c0-0.3,5.3-3.7,8-6
                               c0.3-0.8,3-11,3-11s0.7-2,7,1c6.1,2.9,1-5,1-5c-0.7-0.9-6.8-17.1,3-11c0.4,0.7,1,6.7,5,10c0-0.1,5.6,3.2,0-7
                               c-0.5-1.2-6.4-8.1,4-5c4.3,1.3,4-2,4-2c-1.7-4-1.2-5.7,1-6C587.7,725.1,594.2,722.1,583,705z" class="st4 district" data-name="Tirupati"></path></g><g _ngcontent-ixk-c153=""><path _ngcontent-ixk-c153="" d="M583,705c-0.3-1.3-17.5-35.3-8-40c0.3-0.3,0.1-18.7,4-18c0.6-0.7,2.7-9.2-3-11c-0.7,0.7-5.4,1.6-8,0
                               c-0.9,0.6-4,0.7-1,9c0.1,0.5-6.1,11.3-16-3c-0.8-0.1-1.8-4.3-5,5c-0.2-0.3-14.9-4.7-17-10c-0.2-1.1-1.9-3.2,1-6
                               c0.3-0.3,6.2-16.7-8-12c-0.2,0.3-5.6,11.1-7,12c0.5,0.3,1.6,4.7,5,5c0,0.2-6.5,9.1-11,8c-0.5,0-5.8-7.2-4-11
                               c-0.3-0.2-2.5-3.7-5,0c-0.4-0.1-7.7-1.6-5-6c0.3-0.6-3-13.3-17,2c-0.7,0.4-3.8,2.5,5,13c0.5,0.8,8.5,10.4,9,14
                               c0,0.8,3.4,32.1,2,39c0.2,0.6,0.3,8.2-1,9c-0.3,0.3,6.5,13.2-1,16c-0.9,0.6-9.9,9.9-22,5c0,0-1.8,15.5,10,18c1,0.2,10.3-6.5,16,2
                               c0.9,0.5,3,3,3,3s6-9.1,8-3c0.4,1.2-2,7.6-1,10c0.6,0.9,7,4.2,4,9c-0.5,0.6-6,8.5,5,7c0.8-0.3,6-9,6-9s3.5-4.9,5,2
                               c0.1,1.1-1.1,5.9,5,12c0.4,1.1,0,5,0,5s3.5,2,4-1c0.2-0.9,0-2,0-2s-1.1-2.3,8,0c0.8-0.1,10.3-1.9,8-11c0-0.3,5.3-3.7,8-6
                               c0.3-0.8,3-11,3-11s0.7-2,7,1c6.1,2.9,1-5,1-5c-0.7-0.9-6.8-17.1,3-11c0.4,0.7,1,6.7,5,10c0-0.1,5.6,3.2,0-7
                               c-0.5-1.2-6.4-8.1,4-5c4.3,1.3,4-2,4-2c-1.7-4-1.2-5.7,1-6C587.7,725.1,594.2,722.1,583,705z" class="st5 district" data-name="Tirupati"></path></g></g></a><title _ngcontent-ixk-c153="">Tirupati</title></g><g _ngcontent-ixk-c153="" id="nellore_1_" class="st0"><a _ngcontent-ixk-c153="" title="SRI Potti Sriramulu Nellore"  target="_blank"><g _ngcontent-ixk-c153="" id="nellore"><g _ngcontent-ixk-c153=""><path _ngcontent-ixk-c153="" d="M581,613c-7.6-4.6-6.8-14.6-7-15c-9.8-15.6-10-40.5-10-41c5.2-25.6-6.7-21.2-7-22c-15.2-22-12.5-2.7-13-2
                               c-8.3-1.2-9.5,5.5-10,6c-0.8,7.5-4.3,2.5-5,2c-2.9-5.1-7.2-0.7-8-1c-6.4-11.2-6.8,17.6-7,18c-3.1,11.9-17.2,1.3-18,1
                               c-10.1,1.3-12.5-3.6-13-4c-3.3-3.2-12.5-1.5-14-2c-3.8-3.6-5.5,0.5-6,1c-1.8,2.6-7.5,1.8-9,2c-5.6,4.2-3.8,16.8-3,18
                               c15.4,18.5,10.3,34.7,11,36c13.4,7.5,13,16,13,16c1,3,9.3-4.6,10-5c6.3-3.7,9.6,0.3,10,1c1.9,11.2,5.3,8,6,8c6.4-3,6.5,5.7,7,7
                               c1.1,8.2,7.8-1.1,8-2c-1.3-0.7-4-2.1-4-4c0-1.9,7.9-11.6,8-12c1.4-7.7,5.2-2.8,6-3c11.9,0.6,7.1,15.1,7,16c0,8.1,10.7,10.2,11,10
                               c0.1-7.5,7.3-4.4,8-4c11.3,16.4,11.3,3.9,11,4c-4-5.1,0-11.6,0-12c3.7-3,15-0.9,15-1C573.9,623.1,581.4,613.8,581,613z" class="st6 district" data-name="SRI Potti Sriramulu Nellore"></path></g><g _ngcontent-ixk-c153=""><path _ngcontent-ixk-c153="" d="M581,613c-7.6-4.6-6.8-14.6-7-15c-9.8-15.6-10-40.5-10-41c5.2-25.6-6.7-21.2-7-22c-15.2-22-12.5-2.7-13-2
                               c-8.3-1.2-9.5,5.5-10,6c-0.8,7.5-4.3,2.5-5,2c-2.9-5.1-7.2-0.7-8-1c-6.4-11.2-6.8,17.6-7,18c-3.1,11.9-17.2,1.3-18,1
                               c-10.1,1.3-12.5-3.6-13-4c-3.3-3.2-12.5-1.5-14-2c-3.8-3.6-5.5,0.5-6,1c-1.8,2.6-7.5,1.8-9,2c-5.6,4.2-3.8,16.8-3,18
                               c15.4,18.5,10.3,34.7,11,36c13.4,7.5,13,16,13,16c1,3,9.3-4.6,10-5c6.3-3.7,9.6,0.3,10,1c1.9,11.2,5.3,8,6,8c6.4-3,6.5,5.7,7,7
                               c1.1,8.2,7.8-1.1,8-2c-1.3-0.7-4-2.1-4-4c0-1.9,7.9-11.6,8-12c1.4-7.7,5.2-2.8,6-3c11.9,0.6,7.1,15.1,7,16c0,8.1,10.7,10.2,11,10
                               c0.1-7.5,7.3-4.4,8-4c11.3,16.4,11.3,3.9,11,4c-4-5.1,0-11.6,0-12c3.7-3,15-0.9,15-1C573.9,623.1,581.4,613.8,581,613z" class="st2 district" data-name="SRI Potti Sriramulu Nellore"></path></g></g></a><title _ngcontent-ixk-c153="">SRI Potti Sriramulu Nellore</title></g><g _ngcontent-ixk-c153="" id="satyasai_1_" class="st0"><a _ngcontent-ixk-c153="" title="Sri Sathya Sai"  target="_blank"><g _ngcontent-ixk-c153="" id="satyasai"><g _ngcontent-ixk-c153=""><path _ngcontent-ixk-c153="" d="M375,679c-7.6-9.2-6-21-6-21s-10.8-1.5-12-2c-5.5,0.2-37.6-26.8-38-27c-2.7-0.6,0.8-7.5,1-8
                               c2.6-10.3-8.5-12.9-9-13c-7.7-0.9-5,4.6-5,5c-0.4,6.5-4.8,2.1-5,2c0.1-4.1-3.5-0.2-4,0c-2.5,2.9-6.6-2.5-7-3c-1.5-5-2.7-1.2-3-1
                               c-3,2.2-5.5,0.1-6,0c-0.1-2.5-0.8-5.5-1-6c-0.5-2.9-7.6,5.8-8,6c-1.6,3.4-6.7-6.7-7-7c-6.5-9.2-9.7-1.1-10-1
                               c-1.1,1.3-2.5,1.1-3,1c-2.4-4.3-9.3-2-10-2c-12.7,1.8-4.7,7.3-4,8c7.6,2.2,6,5.3,6,6c-3.3,3.4,1.9,7.4,2,8c3.3,2.8-1.6,12.3-2,13
                               c-5,3.2-0.1,9.8,0,10c0.4,0.6,2.1,11.8,2,12c8.9,12.7,5.3,1,5,1c0-1.3-1-5-1-5s-0.2-4.6,0-5c2.1-1.4,4.6-0.2,5,0
                               c-0.6,1.7,2.3,4.6,3,5c4.8,0.1,4.8,2.2,5,3c2.2,6.9-1.6,13.8-2,14c-2.4-3.8-5.8-2-7-2c-5-0.9-8.5,5.6-9,6c-0.1,1.9,3,2.4,3,3
                               c-8.3,18.5-28.7,11.2-29,11c-1.3-4.9-11-5-11-5l-2-3c0,0-0.1-8.6-1-10c-5.9-9.1-11.3-1-12-1c-7.5,1.2-1.8,2.5-2,3
                               c3.1,0.6,8,1,8,1s1.2,9.3,1,10c-7.9,0,7.6,13.2,8,14c0.4,0.8-3,12.4-4,13c-5.5,0.7-1.9,6.9-2,8c1.9,4.9,3,0.2,3,0
                               c0-0.2,3.6,0,4,0c1.7,6.2,3,0,3,0s4.6,0,5,0c8.8,3.9,4.6-5.3,4-6c-7.1-6,0.6-5.9,2-7c6.8-3.2,12.8,1,13,1c1.2,0.1,8,1.5,9,1
                               c3.3-1.7,9.7,1.8,10,2c1,6.2,3.7,6.8,4,7c1.3,3,1,8.1,1,9c-5.7,4.9,1,3,1,3l2-2h4l1-4h12c0,0,0.5-4.2,1-5c2.3-6.2,7,4,7,4
                               s1-7.2,1-8c9.8-3.2,9.9-9.3,10-10c-5.2-8.9,7.7-5.9,9-6c3.4,4.6,6.7,2.4,7,2c11.7-10.8,2,8,2,8s1.7,3.1,2,3c4.4-6.8,8.2-2.9,9-3
                               c6.5-6.6,8,8,8,8s8.2,0.7,9,1c6.6,2.3,7.1-7.9,7-9c2.3-6.6,6.7-9.3,7-10c2.2-2.7,6.3-0.9,7-1s6.8-5.2,7-6
                               C370.2,687.1,375.1,679.6,375,679z" class="st7 district" data-name="Sri Sathya Sai"></path></g><g _ngcontent-ixk-c153=""><path _ngcontent-ixk-c153="" d="M375,679c-7.6-9.2-6-21-6-21s-10.8-1.5-12-2c-5.5,0.2-37.6-26.8-38-27c-2.7-0.6,0.8-7.5,1-8
                               c2.6-10.3-8.5-12.9-9-13c-7.7-0.9-5,4.6-5,5c-0.4,6.5-4.8,2.1-5,2c0.1-4.1-3.5-0.2-4,0c-2.5,2.9-6.6-2.5-7-3c-1.5-5-2.7-1.2-3-1
                               c-3,2.2-5.5,0.1-6,0c-0.1-2.5-0.8-5.5-1-6c-0.5-2.9-7.6,5.8-8,6c-1.6,3.4-6.7-6.7-7-7c-6.5-9.2-9.7-1.1-10-1
                               c-1.1,1.3-2.5,1.1-3,1c-2.4-4.3-9.3-2-10-2c-12.7,1.8-4.7,7.3-4,8c7.6,2.2,6,5.3,6,6c-3.3,3.4,1.9,7.4,2,8c3.3,2.8-1.6,12.3-2,13
                               c-5,3.2-0.1,9.8,0,10c0.4,0.6,2.1,11.8,2,12c8.9,12.7,5.3,1,5,1c0-1.3-1-5-1-5s-0.2-4.6,0-5c2.1-1.4,4.6-0.2,5,0
                               c-0.6,1.7,2.3,4.6,3,5c4.8,0.1,4.8,2.2,5,3c2.2,6.9-1.6,13.8-2,14c-2.4-3.8-5.8-2-7-2c-5-0.9-8.5,5.6-9,6c-0.1,1.9,3,2.4,3,3
                               c-8.3,18.5-28.7,11.2-29,11c-1.3-4.9-11-5-11-5l-2-3c0,0-0.1-8.6-1-10c-5.9-9.1-11.3-1-12-1c-7.5,1.2-1.8,2.5-2,3
                               c3.1,0.6,8,1,8,1s1.2,9.3,1,10c-7.9,0,7.6,13.2,8,14c0.4,0.8-3,12.4-4,13c-5.5,0.7-1.9,6.9-2,8c1.9,4.9,3,0.2,3,0
                               c0-0.2,3.6,0,4,0c1.7,6.2,3,0,3,0s4.6,0,5,0c8.8,3.9,4.6-5.3,4-6c-7.1-6,0.6-5.9,2-7c6.8-3.2,12.8,1,13,1c1.2,0.1,8,1.5,9,1
                               c3.3-1.7,9.7,1.8,10,2c1,6.2,3.7,6.8,4,7c1.3,3,1,8.1,1,9c-5.7,4.9,1,3,1,3l2-2h4l1-4h12c0,0,0.5-4.2,1-5c2.3-6.2,7,4,7,4
                               s1-7.2,1-8c9.8-3.2,9.9-9.3,10-10c-5.2-8.9,7.7-5.9,9-6c3.4,4.6,6.7,2.4,7,2c11.7-10.8,2,8,2,8s1.7,3.1,2,3c4.4-6.8,8.2-2.9,9-3
                               c6.5-6.6,8,8,8,8s8.2,0.7,9,1c6.6,2.3,7.1-7.9,7-9c2.3-6.6,6.7-9.3,7-10c2.2-2.7,6.3-0.9,7-1s6.8-5.2,7-6
                               C370.2,687.1,375.1,679.6,375,679z" class="st2 district" data-name="Sri Sathya Sai"></path></g></g></a><title _ngcontent-ixk-c153="">Sri Sathya Sai</title></g><g _ngcontent-ixk-c153="" id="ysr-kadapa" class="st0"><a _ngcontent-ixk-c153="" title="Y.S.R." target="_blank"><g _ngcontent-ixk-c153="" id="Shape_6"><g _ngcontent-ixk-c153=""><path _ngcontent-ixk-c153="" d="M487,648c-0.6-0.4-10.9-13.6-11-16c-0.1-0.6-3-4-3-4s1.7-10.3-13-16c-0.5-0.8,0-12,0-12s-1.8-17.6-12-24
                               c-0.1-0.6-2.5-13.6-1-15c0.2-0.7,0.3-29.1-5-19c-0.3,0.2-4.4,2.9-8-5c-0.3-0.1-1.3-6.1-5,2c-0.5,0.3-6.1-1.4-14,1
                               c-0.5,0.9-5.3,1.4-1,8c0.3,0.6,0.2,10.3-1,11c-0.6,0.3-7.2-0.3-5,4c0.1,0.3-5.3,14.6-11,10c-0.8-0.1-1.1-5.5-9,0
                               c-0.9,0.6-8.3-4.1-5-11c0.2-0.8,5.5-14.6-7-1c-1,0.7-6.2,9.6-11,4c-0.4-0.4-4.2-3.2,0-5c0.2-0.4,2.3-8.7-12-3
                               c-0.3,0.7-2,14.9-16,10c-0.4,0.1,3.1,2.5-1,5c0.1,0.6-5.1,5.4,0,11c0,0.3,2,3-4,3c-0.4,0.4-6.7,11.1,6,17c0.1,0.4,5,2.5,0,5
                               c-0.5,0.4-13,16-13,16s-7.8-0.1-1,4c6.8,4.1,28.8,28.2,43,25c1.3,0,7.9-0.1,6,10c0.1,0.4,1,12.9,6,5c0.3-0.2,5.2-3.1,7,2
                               c0.2,0.1,7,5.3,9-5c0.4-0.2,7.2-13.2,13-13c0.7,0,5-2.7,8,1c0.3,0.4,9.5,5.9,9-4c0.1-0.4-2.4-17.6-1-20c0.1-0.4,0.8-9.6,9-3
                               c0.7,0.5,5.1,5.7,8,5c0.3,0.1,19.5,0.6,22,1c0.3,0.6,3.7,4.8,5,7c1.3,2.2-5.1,6.2,4,7c0.7,0.2,8.8-0.9,11,1c0.4,0.4,8.4,7.3,8,12
                               C491.1,659.2,491.8,653.6,487,648z" class="st8 district" data-name="Y.S.R."></path></g><g _ngcontent-ixk-c153=""><path _ngcontent-ixk-c153="" d="M487,648c-0.6-0.4-10.9-13.6-11-16c-0.1-0.6-3-4-3-4s1.7-10.3-13-16c-0.5-0.8,0-12,0-12s-1.8-17.6-12-24
                               c-0.1-0.6-2.5-13.6-1-15c0.2-0.7,0.3-29.1-5-19c-0.3,0.2-4.4,2.9-8-5c-0.3-0.1-1.3-6.1-5,2c-0.5,0.3-6.1-1.4-14,1
                               c-0.5,0.9-5.3,1.4-1,8c0.3,0.6,0.2,10.3-1,11c-0.6,0.3-7.2-0.3-5,4c0.1,0.3-5.3,14.6-11,10c-0.8-0.1-1.1-5.5-9,0
                               c-0.9,0.6-8.3-4.1-5-11c0.2-0.8,5.5-14.6-7-1c-1,0.7-6.2,9.6-11,4c-0.4-0.4-4.2-3.2,0-5c0.2-0.4,2.3-8.7-12-3
                               c-0.3,0.7-2,14.9-16,10c-0.4,0.1,3.1,2.5-1,5c0.1,0.6-5.1,5.4,0,11c0,0.3,2,3-4,3c-0.4,0.4-6.7,11.1,6,17c0.1,0.4,5,2.5,0,5
                               c-0.5,0.4-13,16-13,16s-7.8-0.1-1,4c6.8,4.1,28.8,28.2,43,25c1.3,0,7.9-0.1,6,10c0.1,0.4,1,12.9,6,5c0.3-0.2,5.2-3.1,7,2
                               c0.2,0.1,7,5.3,9-5c0.4-0.2,7.2-13.2,13-13c0.7,0,5-2.7,8,1c0.3,0.4,9.5,5.9,9-4c0.1-0.4-2.4-17.6-1-20c0.1-0.4,0.8-9.6,9-3
                               c0.7,0.5,5.1,5.7,8,5c0.3,0.1,19.5,0.6,22,1c0.3,0.6,3.7,4.8,5,7c1.3,2.2-5.1,6.2,4,7c0.7,0.2,8.8-0.9,11,1c0.4,0.4,8.4,7.3,8,12
                               C491.1,659.2,491.8,653.6,487,648z" class="st2 district" data-name="Y.S.R."></path></g></g></a><title _ngcontent-ixk-c153="">Y.S.R.</title></g><g _ngcontent-ixk-c153="" id="ananthpur_1_" class="st0"><a _ngcontent-ixk-c153="" title="Ananthapuramu"  target="_blank"><g _ngcontent-ixk-c153="" id="ananthpur"><g _ngcontent-ixk-c153=""><path _ngcontent-ixk-c153="" d="M337,604c-12-5.5-6.6-18.6-6-19c5.3,0.2,3.7-2,3-3c-5.4-3.9,1.7-14.6,1-15c-9.9-1.2-11.3-8.1-12-9
                               c-1.8-2.5,1.3-9,1-10c-1.4-8.1-6.7-0.5-7,0c-2.9,4.4-5.4,0.2-6-1c-0.6-5.9-2-4.6-3-5c-1.9-0.5-3.1,5.6-4,6c-4.2-1.2-5,2.6-6,3
                               c-1.6,0.8-13.4-10.5-14-12c-0.5-7.3-4.7-1.4-5-1c-4.1,9.6-9.2,0.6-10,0c-1.8-2.8-4.2-1-5-1c-6.4,3.6-11.2,0.5-12,0
                               c-5.7-1.1-7.6,7.2-9,8c-3.9,3.6-7.4,4-8,4c-8.3-7.2-11.2-3.8-12-4c-6.3,3.4-7.4,13.1-8,14c-2.9,7-7.1-0.4-7-1c-2-1.9-8.2,2.4-9,2
                               c-8-3.6-10.4-1-12-1c-2.3,0.4-2.4-5.2-3-6c-11.9-3.8-7.2,6.7-8,8c-2.4,8.1,10.6,6.4,11,7c-3,4.6,0.7,8.7,0,9
                               c-3.9,3.4-2.4,10.4-3,11c-7.3-2.6-2.6,6.4-3,7c-9.5,15.5-1.5,22.3-1,23c-1.9,7.4,4.8,5.6,5,6c4,7.8,8.3,5.4,9,5
                               c7.3-2.4,7.4,2.5,7,3c-5.7-1.7-3.9,5.8-4,6c-3.9-1.5-3.7,1.4-4,2c-9.5,3.6,1.2,9.5,2,10c3,0.6,2.7,1.2,3,2c-2.8,7.3,1.5,6.9,2,7
                               c4.3-2.6,9.1-1,10-1c0.4,5.6,6.5,5.6,7,5c-1.7-4.2,0.9-13.8,1-14c3.1-5.4,18.4-0.7,19-1c-0.8,3.4,3.3,6.8,5,8
                               c-1.8-1.8-0.8-6.1-1-7c-5.8-10.5,3-21,3-21c-2.1-2.8-2.9-6.7-3-7c-0.6-2,0.1-7.4,0-8c-6.4-2.6-7.4-4.3-8-5c-3.9-6.5,8.6-8.9,9-9
                               c5.8-2.8,6.5-0.3,7,0c4.6,6,7,0.3,7,0c9.5-3.3,11.6,5.4,12,6c2.4,10.7,7.5-0.5,8-1c2.7-2.9,4.2-2.4,5-2c1.8,15.4,5.6,6.4,6,6
                               c2.6-3.2,2.5-0.3,3,0c3.6,7.3,6,4.3,7,4c3.1-3.2,4.2,0.8,5,1c3.8,5.6,2-2.6,2-3c0.1-7.2,9.5-3,10-3c10,3.3,8.1,10.7,8,12
                               c0.7,5,8.6-4.2,9-5C341.9,603.7,337.8,604.8,337,604z" class="st9 district" data-name="Ananthapuramu"></path></g><g _ngcontent-ixk-c153=""><path _ngcontent-ixk-c153="" d="M337,604c-12-5.5-6.6-18.6-6-19c5.3,0.2,3.7-2,3-3c-5.4-3.9,1.7-14.6,1-15c-9.9-1.2-11.3-8.1-12-9
                               c-1.8-2.5,1.3-9,1-10c-1.4-8.1-6.7-0.5-7,0c-2.9,4.4-5.4,0.2-6-1c-0.6-5.9-2-4.6-3-5c-1.9-0.5-3.1,5.6-4,6c-4.2-1.2-5,2.6-6,3
                               c-1.6,0.8-13.4-10.5-14-12c-0.5-7.3-4.7-1.4-5-1c-4.1,9.6-9.2,0.6-10,0c-1.8-2.8-4.2-1-5-1c-6.4,3.6-11.2,0.5-12,0
                               c-5.7-1.1-7.6,7.2-9,8c-3.9,3.6-7.4,4-8,4c-8.3-7.2-11.2-3.8-12-4c-6.3,3.4-7.4,13.1-8,14c-2.9,7-7.1-0.4-7-1c-2-1.9-8.2,2.4-9,2
                               c-8-3.6-10.4-1-12-1c-2.3,0.4-2.4-5.2-3-6c-11.9-3.8-7.2,6.7-8,8c-2.4,8.1,10.6,6.4,11,7c-3,4.6,0.7,8.7,0,9
                               c-3.9,3.4-2.4,10.4-3,11c-7.3-2.6-2.6,6.4-3,7c-9.5,15.5-1.5,22.3-1,23c-1.9,7.4,4.8,5.6,5,6c4,7.8,8.3,5.4,9,5
                               c7.3-2.4,7.4,2.5,7,3c-5.7-1.7-3.9,5.8-4,6c-3.9-1.5-3.7,1.4-4,2c-9.5,3.6,1.2,9.5,2,10c3,0.6,2.7,1.2,3,2c-2.8,7.3,1.5,6.9,2,7
                               c4.3-2.6,9.1-1,10-1c0.4,5.6,6.5,5.6,7,5c-1.7-4.2,0.9-13.8,1-14c3.1-5.4,18.4-0.7,19-1c-0.8,3.4,3.3,6.8,5,8
                               c-1.8-1.8-0.8-6.1-1-7c-5.8-10.5,3-21,3-21c-2.1-2.8-2.9-6.7-3-7c-0.6-2,0.1-7.4,0-8c-6.4-2.6-7.4-4.3-8-5c-3.9-6.5,8.6-8.9,9-9
                               c5.8-2.8,6.5-0.3,7,0c4.6,6,7,0.3,7,0c9.5-3.3,11.6,5.4,12,6c2.4,10.7,7.5-0.5,8-1c2.7-2.9,4.2-2.4,5-2c1.8,15.4,5.6,6.4,6,6
                               c2.6-3.2,2.5-0.3,3,0c3.6,7.3,6,4.3,7,4c3.1-3.2,4.2,0.8,5,1c3.8,5.6,2-2.6,2-3c0.1-7.2,9.5-3,10-3c10,3.3,8.1,10.7,8,12
                               c0.7,5,8.6-4.2,9-5C341.9,603.7,337.8,604.8,337,604z" class="st2 district" data-name="Ananthapuramu"></path></g></g></a><title _ngcontent-ixk-c153="">Ananthapuramu</title></g><g _ngcontent-ixk-c153="" id="kurnool_1_" class="st0"><a _ngcontent-ixk-c153="" title="Kurnool" target="_blank"><g _ngcontent-ixk-c153="" id="kurnool"><g _ngcontent-ixk-c153=""><path _ngcontent-ixk-c153="" d="M342,459c0.1-0.4,4-11.7-4-5c-0.2,0-7.1,8.7-11-7c-0.3,0-0.9-3.5-5,2c-0.3,0.1-9.3,3.3-11-1
                               c-0.3-0.1,1-3.8-5,0c-0.2,0.3-17.9,6.3-30-2c-1-0.5-52-12.6-61-1c-0.4,0.3-7.6,5.8-6,11c0.3,0.5,4.3,1.7,2,5
                               c-0.4,0.3-4.3,4.6,4,13c0.4,0.7,9,9.8,1,5c-0.7,0.1-7.7-4.8-8,5c-0.3,0.9,0.5,12.3-2,13c-0.5,0.1-10.4-3.3-1,6c0.3,0.3,5,4,5,13
                               c0.6,0.8-2.9,4.9,8,4c0.7,0.4-0.7,1.1,0,4c1.5,0.5,2.4,2.2,4,1c0.2,1.3,1.3,4.2-1,5c-2.3,0.8-1.5,2.5,0,5c0.3,0.5,1.7,3.7,1,5
                               c0,0.9-0.9,2.2,1,2c0,0,8.1-1.5,9,0c0.3,0.2,5.1,5.6,9-3c0.3-0.3,7-10.8,13-6c0.4,0.2,2.9,6.6,11,1c0.7-0.2,2.3-1.6,6,3
                               c0.4,0.3,3.9,7,9-3c0.3-0.2,1.3-3.2,4-2c-0.1-0.6,2-6.2-3-10c0.1-0.5-1.9-14.2,13-11c0.6,0,4.9-20,20-4c0.3,0.3,3.6,7.9,9-3
                               c0.2-0.4,5.7-1.6,5-7c0.6-1.5,1.5-6.6,5-7c0.3-0.6,4.9-6.5-3-4c-0.4-0.1,0.6-7.4-5-2c-0.5,0.5-2,8.7-6,2c-0.2-0.1-8,2.2-8-6
                               c-0.3-0.6-0.2-8.7,0-9c0.2-0.3,2.9-4.3-5-3c-0.3,0-3.6-15.7,6-12c0.6,0,13.7-3.9,17,2c0,0.3,2.2,3.2-1,4c-0.3,0.1-6,1.6,0,5
                               c0.4,0,5.9,2.9,11-3C339.3,464,347.4,465.8,342,459z" class="st10 district" data-name="Kurnool"></path></g><g _ngcontent-ixk-c153=""><path _ngcontent-ixk-c153="" d="M342,459c0.1-0.4,4-11.7-4-5c-0.2,0-7.1,8.7-11-7c-0.3,0-0.9-3.5-5,2c-0.3,0.1-9.3,3.3-11-1
                               c-0.3-0.1,1-3.8-5,0c-0.2,0.3-17.9,6.3-30-2c-1-0.5-52-12.6-61-1c-0.4,0.3-7.6,5.8-6,11c0.3,0.5,4.3,1.7,2,5
                               c-0.4,0.3-4.3,4.6,4,13c0.4,0.7,9,9.8,1,5c-0.7,0.1-7.7-4.8-8,5c-0.3,0.9,0.5,12.3-2,13c-0.5,0.1-10.4-3.3-1,6c0.3,0.3,5,4,5,13
                               c0.6,0.8-2.9,4.9,8,4c0.7,0.4-0.7,1.1,0,4c1.5,0.5,2.4,2.2,4,1c0.2,1.3,1.3,4.2-1,5c-2.3,0.8-1.5,2.5,0,5c0.3,0.5,1.7,3.7,1,5
                               c0,0.9-0.9,2.2,1,2c0,0,8.1-1.5,9,0c0.3,0.2,5.1,5.6,9-3c0.3-0.3,7-10.8,13-6c0.4,0.2,2.9,6.6,11,1c0.7-0.2,2.3-1.6,6,3
                               c0.4,0.3,3.9,7,9-3c0.3-0.2,1.3-3.2,4-2c-0.1-0.6,2-6.2-3-10c0.1-0.5-1.9-14.2,13-11c0.6,0,4.9-20,20-4c0.3,0.3,3.6,7.9,9-3
                               c0.2-0.4,5.7-1.6,5-7c0.6-1.5,1.5-6.6,5-7c0.3-0.6,4.9-6.5-3-4c-0.4-0.1,0.6-7.4-5-2c-0.5,0.5-2,8.7-6,2c-0.2-0.1-8,2.2-8-6
                               c-0.3-0.6-0.2-8.7,0-9c0.2-0.3,2.9-4.3-5-3c-0.3,0-3.6-15.7,6-12c0.6,0,13.7-3.9,17,2c0,0.3,2.2,3.2-1,4c-0.3,0.1-6,1.6,0,5
                               c0.4,0,5.9,2.9,11-3C339.3,464,347.4,465.8,342,459z" class="st2 district" data-name="Kurnool"></path></g></g></a><title _ngcontent-ixk-c153="">Kurnool</title></g><g _ngcontent-ixk-c153="" id="nandyal_1_" class="st0"><a _ngcontent-ixk-c153="" title="Nandyal" target="_blank"><g _ngcontent-ixk-c153="" id="nandyal"><g _ngcontent-ixk-c153=""><path _ngcontent-ixk-c153="" d="M425,417c-0.4-0.7-4.5-4.2-3,4c0,0.4,0,6.9-7,8c-1,0.7-1.8,1.1-1,3c-0.3,0-12.3,1.5-13-1
                               c-0.2-0.1-4.8-13.1-8-8c-0.3,0.7-3.4,1.8-5,5c-0.4,0.3-8.8-0.7-10-4c-0.6,0-3.8-5.6-13,0c-0.2,0.2-12.4,1.2-11,11
                               c0,0.9-0.1,7.9-5,9c-0.7,1-3.2,2.8-4,5c-0.8,2.2-0.6,9.3,1,10c0.7,0.7,2.9,6.8-3,8c-1.4,0.6-6.1,1.1-7,2c-0.9,0.9-6.5,0.5-8,0
                               c-1.5-0.5-5-2.2-4-6c0.3-0.4,8.7-4.9-1-7c-0.5,0.2-7.5-2.2-16,2c-0.4,0.5-5,9.4,4,9c0.2,0.4,2.2,1.1,1,4c0.1,0.4-3.2,8.4,2,13
                               c0.5,0.4,2.3,1.3,5,2c0.5,0.4,4.7,4,6-3c0.3-0.4,2.8-4.5,4-1c0.4,0.3,1.5,4.6,5,2c0.3-0.1,3.7-1.1,2,4c-0.5,0.7-8.8,5.3-8,13
                               c0,0.6-7.9,6.1-8,9c0,0.5-0.2,2.9-5-1c-0.4-0.3-13-17.6-19,0c-0.1,0.5,0.3,4.6-4,2c-0.5,0.1-12.9-0.7-10,10c1,1.2,4.4,8,4,13
                               c0,0,2.2,11.2,12,12c4.4-1.6,6.1-4.8,9-6c0.5,0.3,3.3-2.8,5,2c0.4,1.3,0.6,9.4,6,2c0.5-0.4,6.8-5.8,8,4c0,1-9,12.2,11,18
                               c0.4-0.1,8.5,3.6,13-4c0.1-0.3,3.2-13.9,16-6c0.1,0.4,1.9,1.7,0,4c-0.3,0.4-4.5,3.8,3,6c0.5-0.2,2.7-0.3,5-4
                               c0.5-0.5,12.8-15,11-4c-0.2,0.5-6.3,19.1,8,11c0.5,0,2.4-1.2,3,1c0.1,0.4,3.6,8.9,10-5c0.1-1-0.5-3.5,1-5c0.4,0,2.5-0.9,5-2
                               c0.9-0.4,3.2-7.4,0-11c-0.3-0.2,0.1-6.4-2-9c-0.1-0.6-4.5-17.9-1-28c0.1-0.6,0.4-4.6,3-7c0.5-1.5-2.3-49.5,5-53
                               C417.5,449.1,435.4,435.7,425,417z" class="st11 district" data-name="Nandyal"></path></g><g _ngcontent-ixk-c153=""><path _ngcontent-ixk-c153="" d="M425,417c-0.4-0.7-4.5-4.2-3,4c0,0.4,0,6.9-7,8c-1,0.7-1.8,1.1-1,3c-0.3,0-12.3,1.5-13-1
                               c-0.2-0.1-4.8-13.1-8-8c-0.3,0.7-3.4,1.8-5,5c-0.4,0.3-8.8-0.7-10-4c-0.6,0-3.8-5.6-13,0c-0.2,0.2-12.4,1.2-11,11
                               c0,0.9-0.1,7.9-5,9c-0.7,1-3.2,2.8-4,5c-0.8,2.2-0.6,9.3,1,10c0.7,0.7,2.9,6.8-3,8c-1.4,0.6-6.1,1.1-7,2c-0.9,0.9-6.5,0.5-8,0
                               c-1.5-0.5-5-2.2-4-6c0.3-0.4,8.7-4.9-1-7c-0.5,0.2-7.5-2.2-16,2c-0.4,0.5-5,9.4,4,9c0.2,0.4,2.2,1.1,1,4c0.1,0.4-3.2,8.4,2,13
                               c0.5,0.4,2.3,1.3,5,2c0.5,0.4,4.7,4,6-3c0.3-0.4,2.8-4.5,4-1c0.4,0.3,1.5,4.6,5,2c0.3-0.1,3.7-1.1,2,4c-0.5,0.7-8.8,5.3-8,13
                               c0,0.6-7.9,6.1-8,9c0,0.5-0.2,2.9-5-1c-0.4-0.3-13-17.6-19,0c-0.1,0.5,0.3,4.6-4,2c-0.5,0.1-12.9-0.7-10,10c1,1.2,4.4,8,4,13
                               c0,0,2.2,11.2,12,12c4.4-1.6,6.1-4.8,9-6c0.5,0.3,3.3-2.8,5,2c0.4,1.3,0.6,9.4,6,2c0.5-0.4,6.8-5.8,8,4c0,1-9,12.2,11,18
                               c0.4-0.1,8.5,3.6,13-4c0.1-0.3,3.2-13.9,16-6c0.1,0.4,1.9,1.7,0,4c-0.3,0.4-4.5,3.8,3,6c0.5-0.2,2.7-0.3,5-4
                               c0.5-0.5,12.8-15,11-4c-0.2,0.5-6.3,19.1,8,11c0.5,0,2.4-1.2,3,1c0.1,0.4,3.6,8.9,10-5c0.1-1-0.5-3.5,1-5c0.4,0,2.5-0.9,5-2
                               c0.9-0.4,3.2-7.4,0-11c-0.3-0.2,0.1-6.4-2-9c-0.1-0.6-4.5-17.9-1-28c0.1-0.6,0.4-4.6,3-7c0.5-1.5-2.3-49.5,5-53
                               C417.5,449.1,435.4,435.7,425,417z" class="st2 district" data-name="Nandyal"></path></g></g></a><title _ngcontent-ixk-c153="">Nandyal</title></g><g _ngcontent-ixk-c153="" id="prakasam_1_" class="st0"><a _ngcontent-ixk-c153="" title="Prakasam" target="_blank"><g _ngcontent-ixk-c153="" id="prakasam"><g _ngcontent-ixk-c153=""><path _ngcontent-ixk-c153="" d="M574,493c-0.7,0-4.2-1.3-6-5c-0.4,0-8.4,3.2-9,13c-0.6,0.1-5.1,1.3-7-2c-0.7,0.6-6.4,11.9-12,5
                               c-0.4-0.2,1-4.1-5-2c-0.7,0-1.2-4.1-4-9c-0.4-0.6-8.1-10.9-1-11c1.4-0.7,17-8.3,16-25c-0.5-0.9-8.8-22.8-15-9c0,0.6-4.9,1.9,0,6
                               c0.4,0.7,3.4,5.8-4,5c-0.7-0.5-8.8-7.6-10-14c-0.6,0.1-0.4-2.4-6,1c-0.9-0.4-9.5-0.6-8-14c-0.2-0.6-2.4-13.7,0-17
                               c0.3-1,4.6-20-9-19c-0.3-0.1-12.7,11.3-20,12c-0.3,0.3-11.5,10-12-1c-1,0-17.2-12.1-29,3c-0.1,0.5-12.4-0.6-1,11
                               c0.6,0.9,5,11.2-2,19c-0.5,0.6-9,11-9,11s-8,6.7-5,29c0.1,1.9,0.3,23.9-2,28c-0.5,1.1-3.1,24.6-2,26c0.8,0.7-0.9,3.5,3,3
                               c3.9-0.5,4.9-4.4,11,0c2.5-0.3,5.8-9,9-3c0.4,1.4,2.3,10.1,8,5c0.5-0.1,4.6-4.1,6,9c0.1,0.5,1,7.9,13,3c0.5-0.5,14-9.8,24,2
                               c0.8,0.6,4.8,5.2,12,4c0.7,0.3,17.6,14.9,15-12c-0.1-1.7,2.1-16,8-10c0.6,0.7,1.6,4.2,6,0c1.2,0.3,1.1-1,2,2c0.9,1,2.4,8.6,5-3
                               c0.2-0.4,0.8-5,6-3c0.5-0.3,5.2-18,13-4c0.2,0,9,6.8,12,9c0.4,0.3,2.6-0.4,2-9c-0.1-1,5.2-21.8,14-24
                               C582,502.6,588.4,491.1,574,493z" class="st12 district" data-name="Prakasam"></path></g><g _ngcontent-ixk-c153=""><path _ngcontent-ixk-c153="" d="M574,493c-0.7,0-4.2-1.3-6-5c-0.4,0-8.4,3.2-9,13c-0.6,0.1-5.1,1.3-7-2c-0.7,0.6-6.4,11.9-12,5
                               c-0.4-0.2,1-4.1-5-2c-0.7,0-1.2-4.1-4-9c-0.4-0.6-8.1-10.9-1-11c1.4-0.7,17-8.3,16-25c-0.5-0.9-8.8-22.8-15-9c0,0.6-4.9,1.9,0,6
                               c0.4,0.7,3.4,5.8-4,5c-0.7-0.5-8.8-7.6-10-14c-0.6,0.1-0.4-2.4-6,1c-0.9-0.4-9.5-0.6-8-14c-0.2-0.6-2.4-13.7,0-17
                               c0.3-1,4.6-20-9-19c-0.3-0.1-12.7,11.3-20,12c-0.3,0.3-11.5,10-12-1c-1,0-17.2-12.1-29,3c-0.1,0.5-12.4-0.6-1,11
                               c0.6,0.9,5,11.2-2,19c-0.5,0.6-9,11-9,11s-8,6.7-5,29c0.1,1.9,0.3,23.9-2,28c-0.5,1.1-3.1,24.6-2,26c0.8,0.7-0.9,3.5,3,3
                               c3.9-0.5,4.9-4.4,11,0c2.5-0.3,5.8-9,9-3c0.4,1.4,2.3,10.1,8,5c0.5-0.1,4.6-4.1,6,9c0.1,0.5,1,7.9,13,3c0.5-0.5,14-9.8,24,2
                               c0.8,0.6,4.8,5.2,12,4c0.7,0.3,17.6,14.9,15-12c-0.1-1.7,2.1-16,8-10c0.6,0.7,1.6,4.2,6,0c1.2,0.3,1.1-1,2,2c0.9,1,2.4,8.6,5-3
                               c0.2-0.4,0.8-5,6-3c0.5-0.3,5.2-18,13-4c0.2,0,9,6.8,12,9c0.4,0.3,2.6-0.4,2-9c-0.1-1,5.2-21.8,14-24
                               C582,502.6,588.4,491.1,574,493z" class="st5 district" data-name="Prakasam"></path></g></g></a><title _ngcontent-ixk-c153="">Prakasam</title></g><g _ngcontent-ixk-c153="" id="palnadu_1_" class="st0"><a _ngcontent-ixk-c153="" title="Palnadu"  target="_blank"><g _ngcontent-ixk-c153="" id="palnadu"><g _ngcontent-ixk-c153=""><path _ngcontent-ixk-c153="" d="M599,356c-3.9-2.8-8.1-0.7-18-3c-9.9-2.3-8.3-2.4-9-6c-0.7-3.6-0.8-9-4-16c-3.2-7-6.3-2.5-6,2
                               c0.3,4.5-4,7.9-7,15c-3,7.1-11.1,3.4-12-2c-0.9-5.4,0.4-4.8-4-4c-4.4,0.8-5.2,2.2-8-1c-2.8-3.2-5.4-2-9,2c-3.6,4-2.2,1.9-8,2
                               c-5.8,0.1-2.9,0.5-8,2c-5.1,1.5,0.3,0,0,2c-0.3,2-0.5,2.9-6,2c-5.5-0.9-2.7,0.2-7,5c-4.3,4.8-15,4.5-20,6c-5,1.5-8.9,6.5-7,9
                               c1.9,2.5,0.6,3.4,0,4c-0.6,0.6-1.5,12-1,13c0.5,1,2.8,5.5,1,11c-1.8,5.5,0.3,6.2,1,7c0.7,0.8,4.6-1.5,7-2c2.4-0.5,10.5-2.5,12-6
                               c1.5-3.5,4.5-4.5,13-5c8.5-0.5,6.8,10.9,7,20c0.2,9.1,0.3,13.5,0,21c-0.3,7.5,8,9.5,11,9c3-0.5,4.5,6,7,11c2.5,5,5.8,3.5,5,1
                               c-4.3-21.9,15-11,15-11c1.2-2.8,2.6-8.5-1-11c-3.6-2.5-4.1-2.5-2-4c2.1-1.5,3.2-5.4-1-9c-5.6-9,4.6-9.7,9.7-9.3
                               c10.8,3,15.4,15.4,17.3,18.3c1.9,2.9,1.5,2.7,4.9,1.5c4.4-1.6,6.7,2,9.3,2c2.6,0,1.8-2.3,2.7-6.8c0.4-1.7,3.1-3.3,3.5-5.7
                               s1.4-2.5,0.8-5.3c-0.6-2.8,0.4-11.4,9-17c4.1-2.6,1.5-3.7-1.8-4.1c-2.1-0.3-3,0.6-4.4,0.9c-1.4,0.2-3.8,1.6-3.8,1.6
                               s-2.3-0.3-9.1,3c-6.9,3.4-8-3-8-3s0.6-0.5,1-2c0.4-1.5,1.7-1.7,3-4c1.3-2.3,3.2-1.9,4-4c0.8-2.1,3.6-2.5,6-6s14.9-9.7,18-14
                               C605.1,361.7,602.9,358.8,599,356z" class="st13 district" data-name="Palnadu"></path></g><g _ngcontent-ixk-c153=""><path _ngcontent-ixk-c153="" d="M599,356c-3.9-2.8-8.1-0.7-18-3c-9.9-2.3-8.3-2.4-9-6c-0.7-3.6-0.8-9-4-16c-3.2-7-6.3-2.5-6,2
                               c0.3,4.5-4,7.9-7,15c-3,7.1-11.1,3.4-12-2c-0.9-5.4,0.4-4.8-4-4c-4.4,0.8-5.2,2.2-8-1c-2.8-3.2-5.4-2-9,2c-3.6,4-2.2,1.9-8,2
                               c-5.8,0.1-2.9,0.5-8,2c-5.1,1.5,0.3,0,0,2c-0.3,2-0.5,2.9-6,2c-5.5-0.9-2.7,0.2-7,5c-4.3,4.8-15,4.5-20,6c-5,1.5-8.9,6.5-7,9
                               c1.9,2.5,0.6,3.4,0,4c-0.6,0.6-1.5,12-1,13c0.5,1,2.8,5.5,1,11c-1.8,5.5,0.3,6.2,1,7c0.7,0.8,4.6-1.5,7-2c2.4-0.5,10.5-2.5,12-6
                               c1.5-3.5,4.5-4.5,13-5c8.5-0.5,6.8,10.9,7,20c0.2,9.1,0.3,13.5,0,21c-0.3,7.5,8,9.5,11,9c3-0.5,4.5,6,7,11c2.5,5,5.8,3.5,5,1
                               c-4.3-21.9,15-11,15-11c1.2-2.8,2.6-8.5-1-11c-3.6-2.5-4.1-2.5-2-4c2.1-1.5,3.2-5.4-1-9c-5.6-9,4.6-9.7,9.7-9.3
                               c10.8,3,15.4,15.4,17.3,18.3c1.9,2.9,1.5,2.7,4.9,1.5c4.4-1.6,6.7,2,9.3,2c2.6,0,1.8-2.3,2.7-6.8c0.4-1.7,3.1-3.3,3.5-5.7
                               s1.4-2.5,0.8-5.3c-0.6-2.8,0.4-11.4,9-17c4.1-2.6,1.5-3.7-1.8-4.1c-2.1-0.3-3,0.6-4.4,0.9c-1.4,0.2-3.8,1.6-3.8,1.6
                               s-2.3-0.3-9.1,3c-6.9,3.4-8-3-8-3s0.6-0.5,1-2c0.4-1.5,1.7-1.7,3-4c1.3-2.3,3.2-1.9,4-4c0.8-2.1,3.6-2.5,6-6s14.9-9.7,18-14
                               C605.1,361.7,602.9,358.8,599,356z" class="st5 district" data-name="Palnadu"></path></g></g></a><title _ngcontent-ixk-c153="">Palnadu</title></g><g _ngcontent-ixk-c153="" id="ntr_1_" class="st0"><a _ngcontent-ixk-c153="" title="NTR"  target="_blank"><g _ngcontent-ixk-c153="" id="ntr"><g _ngcontent-ixk-c153=""><path _ngcontent-ixk-c153="" d="M650,324c-3.9-2.6-3.6-4.9-1-7c2.6-2.1-0.9-11.6-3-13c-2.1-1.4,0.6-1.9,0-5c-0.6-3.1-3.9-5.1-5-4
                               c-1.1,1.1-8.1,3.1-9,1c-0.9-2.1-0.4-9.1-6-9c-5.6,0.1-11.9-0.4-13,6c-1.1,6.4-2.9,10.1-6,7c-3.1-3.1-9.6-6.4-8-2
                               c1.6,4.4-0.1,6.1,4,9c4.1,2.9,8.4,3.1,12,3c3.6-0.1,8.4-1.1,9,3c0.6,4.1-3.4,2.1-2,8c1.4,5.9,4.4,8.1,4,10c-0.4,1.9-3.6,5.1-9,3
                               c-5.4-2.1-7.1-3.4-9-6c-1.9-2.6-7.9-3.4-11-5c-3.1-1.6-6.4-4.9-6-9c0.4-4.1-7.6-10.6-9-11c-1.4-0.4-3.4-4.4-6-1
                               c-2.6,3.4-8.9,3.9-13,8c-4.1,4.1-6.8,7.2-6,11c0,0-0.4,4.4,7,3c7.4-1.4,8.9,2.4,9,11c0.1,8.6-1.4,14.6,6,15
                               c7.4,0.4,19.1,2.1,26,4c6.9,1.9,10.4,0.9,13,3c2.6,2.1,6.4-3.1,10-7c3.6-3.9,7.6-9.4,11-11c3.4-1.6-0.9-5.9,3-8
                               c3.9-2.1,5.6-2.6,8-1C652.4,331.6,653.9,326.6,650,324z" class="st14 district" data-name="NTR"></path></g><g _ngcontent-ixk-c153=""><path _ngcontent-ixk-c153="" d="M650,324c-3.9-2.6-3.6-4.9-1-7c2.6-2.1-0.9-11.6-3-13c-2.1-1.4,0.6-1.9,0-5c-0.6-3.1-3.9-5.1-5-4
                               c-1.1,1.1-8.1,3.1-9,1c-0.9-2.1-0.4-9.1-6-9c-5.6,0.1-11.9-0.4-13,6c-1.1,6.4-2.9,10.1-6,7c-3.1-3.1-9.6-6.4-8-2
                               c1.6,4.4-0.1,6.1,4,9c4.1,2.9,8.4,3.1,12,3c3.6-0.1,8.4-1.1,9,3c0.6,4.1-3.4,2.1-2,8c1.4,5.9,4.4,8.1,4,10c-0.4,1.9-3.6,5.1-9,3
                               c-5.4-2.1-7.1-3.4-9-6c-1.9-2.6-7.9-3.4-11-5c-3.1-1.6-6.4-4.9-6-9c0.4-4.1-7.6-10.6-9-11c-1.4-0.4-3.4-4.4-6-1
                               c-2.6,3.4-8.9,3.9-13,8c-4.1,4.1-6.8,7.2-6,11c0,0-0.4,4.4,7,3c7.4-1.4,8.9,2.4,9,11c0.1,8.6-1.4,14.6,6,15
                               c7.4,0.4,19.1,2.1,26,4c6.9,1.9,10.4,0.9,13,3c2.6,2.1,6.4-3.1,10-7c3.6-3.9,7.6-9.4,11-11c3.4-1.6-0.9-5.9,3-8
                               c3.9-2.1,5.6-2.6,8-1C652.4,331.6,653.9,326.6,650,324z" class="st5 district" data-name="NTR"></path></g></g></a></g><g _ngcontent-ixk-c153="" id="krishna_1_" class="st0"><a _ngcontent-ixk-c153="" title="Krishna" target="_blank"><g _ngcontent-ixk-c153="" id="krishna"><g _ngcontent-ixk-c153=""><path _ngcontent-ixk-c153="" d="M738,386C738,386,738,386,738,386C738,386,739.7,386,738,386z M730,382c-5.3-1.8-5.4-1.9-9-3
                               c-3.6-1.1-5.2,2.3-9,1c-3.8-1.3-1.2-3.4-4-4c-2.8-0.6-4.7,3.6-7,2c-2.3-1.6-4.2-1.4-5,3c-0.8,4.4-2.9,1.1-4-1
                               c-1.1-2.1-2.9,3.6-6,3c-3.1-0.6-4.4-3.2-5-4c-0.6-0.8-0.2-11.7,1-16c1.2-4.3-1.9-1.9-5-3c-3.1-1.1-6.7-4.7-9-9
                               c-2.3-4.3-2.9-4.9-8,1c-5.1,5.9-3.4,2.6-6-1c-2.6-3.6-1.2-1.9-4,1c-2.8,2.9-5.2,1.8-9,1c-3.8-0.8-3.7-2.4-8-3
                               c-4.3-0.6-2.9,3.3-7,9c-4.1,5.7,1,5,1,5c2-5.2,4.1-5.4,3-2c-1.1,3.4-0.7,4.6,2,7c2.7,2.4,2.8-4.2,3-6c0.2-1.8-0.2-0.4,0-2
                               c0.2-1.6,4.8,2.8,4,7c-0.8,4.2-5.2,4.3-4,6c1.2,1.7,14.1,17.8,18,25c3.9,7.2,10.1,27.1,12,34c1.9,6.9-4.2,21.6-7,28
                               c-2.8,6.4,0.3,6.8,7,6c6.7-0.8,7.8-3.4,11-6c3.2-2.6-1.4-4.9-1-7c0.4-2.1,2.6-6.4,3-8c0.4-1.6,5.3-6.4,7-11c1.7-4.6,5.8-8.9,8-15
                               c2.2-6.1,6.6-16.4,9-22c2.4-5.6,4.3-5.9,10-9c5.7-3.1,12.3-2.9,21-3c2.7,0,4.2,0,5,0c0-0.1-0.1-0.6-1-2
                               C735.9,382.4,735.3,383.8,730,382z" class="st15 district" data-name="Krishna"></path></g><g _ngcontent-ixk-c153=""><path _ngcontent-ixk-c153="" d="M738,386C738,386,738,386,738,386C738,386,739.7,386,738,386z M730,382c-5.3-1.8-5.4-1.9-9-3
                               c-3.6-1.1-5.2,2.3-9,1c-3.8-1.3-1.2-3.4-4-4c-2.8-0.6-4.7,3.6-7,2c-2.3-1.6-4.2-1.4-5,3c-0.8,4.4-2.9,1.1-4-1
                               c-1.1-2.1-2.9,3.6-6,3c-3.1-0.6-4.4-3.2-5-4c-0.6-0.8-0.2-11.7,1-16c1.2-4.3-1.9-1.9-5-3c-3.1-1.1-6.7-4.7-9-9
                               c-2.3-4.3-2.9-4.9-8,1c-5.1,5.9-3.4,2.6-6-1c-2.6-3.6-1.2-1.9-4,1c-2.8,2.9-5.2,1.8-9,1c-3.8-0.8-3.7-2.4-8-3
                               c-4.3-0.6-2.9,3.3-7,9c-4.1,5.7,1,5,1,5c2-5.2,4.1-5.4,3-2c-1.1,3.4-0.7,4.6,2,7c2.7,2.4,2.8-4.2,3-6c0.2-1.8-0.2-0.4,0-2
                               c0.2-1.6,4.8,2.8,4,7c-0.8,4.2-5.2,4.3-4,6c1.2,1.7,14.1,17.8,18,25c3.9,7.2,10.1,27.1,12,34c1.9,6.9-4.2,21.6-7,28
                               c-2.8,6.4,0.3,6.8,7,6c6.7-0.8,7.8-3.4,11-6c3.2-2.6-1.4-4.9-1-7c0.4-2.1,2.6-6.4,3-8c0.4-1.6,5.3-6.4,7-11c1.7-4.6,5.8-8.9,8-15
                               c2.2-6.1,6.6-16.4,9-22c2.4-5.6,4.3-5.9,10-9c5.7-3.1,12.3-2.9,21-3c2.7,0,4.2,0,5,0c0-0.1-0.1-0.6-1-2
                               C735.9,382.4,735.3,383.8,730,382z" class="st5 district" data-name="Krishna"></path></g></g></a><title _ngcontent-ixk-c153="">Krishna</title></g><g _ngcontent-ixk-c153="" id="west-godavari_1_" class="st0"><a _ngcontent-ixk-c153="" title="West Godavari" target="_blank"><g _ngcontent-ixk-c153="" id="west-godavari"><g _ngcontent-ixk-c153=""><path _ngcontent-ixk-c153="" d="M745.4,384.2c-0.2-0.1-0.3-0.1-0.4-0.2C744,383.2,747,385.6,745.4,384.2z M765.5,337.6c-5.1,1.3-4.2,5-6,2
                               c-1.8-3-3.9-3.7-9.7-9.4s-2.4-6-1.9-7.4c0.6-1.3-6.7-9-12.9-9.8c-5-0.6-6.4-0.5-8,4c-2.4,6.9,3.4,10,1,14c-2.4,4,2.8,5.3,6,4
                               c3.2-1.3,2.4,1.7,5,3c2.6,1.3,0.4,5-1,10c-1.4,5-2.9,2.3-8-1c-5.1-3.3-6.6,1.3-12,0c-5.4-1.3-4.6,0-5,2c-0.4,2,3.8,3.3,2,9
                               c-1.8,5.7,1.1,6,4,12c2.9,6,3.1,5.3,7,7c3.9,1.7,5.8,1.7,9,2c3.2,0.3,4.8,0.3,9,4c0.7,0.6,1.1,0.9,1.4,1.2
                               c2.2,0.9,10.6,1.8,10.6,1.8c-5.3-22.7,2.1-12.7,6-16c3.9-3.3,9.8-14.3,10-20C772.2,344.3,770.6,336.3,765.5,337.6z" class="st16 district" data-name="West Godavari"></path></g><g _ngcontent-ixk-c153=""><path _ngcontent-ixk-c153="" d="M745.4,384.2c-0.2-0.1-0.3-0.1-0.4-0.2C744,383.2,747,385.6,745.4,384.2z M765.5,337.6c-5.1,1.3-4.2,5-6,2
                               c-1.8-3-3.9-3.7-9.7-9.4s-2.4-6-1.9-7.4c0.6-1.3-6.7-9-12.9-9.8c-5-0.6-6.4-0.5-8,4c-2.4,6.9,3.4,10,1,14c-2.4,4,2.8,5.3,6,4
                               c3.2-1.3,2.4,1.7,5,3c2.6,1.3,0.4,5-1,10c-1.4,5-2.9,2.3-8-1c-5.1-3.3-6.6,1.3-12,0c-5.4-1.3-4.6,0-5,2c-0.4,2,3.8,3.3,2,9
                               c-1.8,5.7,1.1,6,4,12c2.9,6,3.1,5.3,7,7c3.9,1.7,5.8,1.7,9,2c3.2,0.3,4.8,0.3,9,4c0.7,0.6,1.1,0.9,1.4,1.2
                               c2.2,0.9,10.6,1.8,10.6,1.8c-5.3-22.7,2.1-12.7,6-16c3.9-3.3,9.8-14.3,10-20C772.2,344.3,770.6,336.3,765.5,337.6z" class="st5 district" data-name="West Godavari"></path></g></g></a><title _ngcontent-ixk-c153="">West Godavari</title></g><g _ngcontent-ixk-c153="" id="konaseema_1_" class="st0"><a _ngcontent-ixk-c153="" title="Konaseema" target="_blank"><g _ngcontent-ixk-c153="" id="konaseema"><g _ngcontent-ixk-c153=""><path _ngcontent-ixk-c153="" d="M830,318c-2,1.7-4.4,1-7-2c-2.6-3-3.4-1.3-6,1c-2.6,2.3-11.4,5-14,5c-2.6,0-5-0.7-7-4c-2-3.3-7-7.3-8-5
                               c-1,2.3-3,13.3-5,6c-2-7.3-4-14-4-14s-5.4,0-5,6c0.4,6-1.4,10.3-5,7c-3.6-3.3-5.4-5.7-6-8c-0.6-2.3-3.3-6.3-4-4c0,0-0.7,4.7,1,10
                               c1.7,5.3-0.7,10.7,4,15c4.7,4.3,1.6,4.3,3,9c1.4,4.7,5.3,1.3,7,10c1.7,8.7-0.4,14.3-6,20c-5.6,5.7-9,7.3-9,10c0,2.7,0.6,10.7,6,7
                               c5.4-3.7,22.3-13.3,28-15c5.7-1.7,10.6-6.7,15-8c4.4-1.3,7-4,11-5c4-1,8.3,0,8-6c-0.3-6,0.3-13.3,3-15c2.7-1.7,0.3-1,2-10
                               C833.7,319,832,316.3,830,318z" class="st17 district" data-name="Konaseema"></path></g><g _ngcontent-ixk-c153=""><path _ngcontent-ixk-c153="" d="M830,318c-2,1.7-4.4,1-7-2c-2.6-3-3.4-1.3-6,1c-2.6,2.3-11.4,5-14,5c-2.6,0-5-0.7-7-4c-2-3.3-7-7.3-8-5
                               c-1,2.3-3,13.3-5,6c-2-7.3-4-14-4-14s-5.4,0-5,6c0.4,6-1.4,10.3-5,7c-3.6-3.3-5.4-5.7-6-8c-0.6-2.3-3.3-6.3-4-4c0,0-0.7,4.7,1,10
                               c1.7,5.3-0.7,10.7,4,15c4.7,4.3,1.6,4.3,3,9c1.4,4.7,5.3,1.3,7,10c1.7,8.7-0.4,14.3-6,20c-5.6,5.7-9,7.3-9,10c0,2.7,0.6,10.7,6,7
                               c5.4-3.7,22.3-13.3,28-15c5.7-1.7,10.6-6.7,15-8c4.4-1.3,7-4,11-5c4-1,8.3,0,8-6c-0.3-6,0.3-13.3,3-15c2.7-1.7,0.3-1,2-10
                               C833.7,319,832,316.3,830,318z" class="st5 district" data-name="Konaseema"></path></g></g></a><title _ngcontent-ixk-c153="">Konaseema</title></g><g _ngcontent-ixk-c153="" id="east-godavari_1_" class="st0"><a _ngcontent-ixk-c153="" title="East Godavai"  target="_blank"><g _ngcontent-ixk-c153="" id="east-godavari"><g _ngcontent-ixk-c153=""><path _ngcontent-ixk-c153="" d="M805,305c0,0-0.8-1-6-2s-5.1-4.7-5-8c0.1-3.3-0.8-6.7-3-10c-2.2-3.3-9.1-0.3-12-4c-2.9-3.7-1.5-4.7-7-5
                               c-5.5-0.3-4.8-3-7-4c-2.2-1-10-2-10-2s-11.1-1.3-8,6c3.1,7.3-6.5,7-14,4c-7.5-3-8.5,4-10,14c-1.5,10-6.1,6.7-15,6
                               c-8.9-0.7-6.8,6.7-8,15c-1.2,8.3,7.5,7.1,9,2c1-3.3,6.2,2,9,1s3.9-0.7,6-4c2.1-3.3,3.2-2.3,9-3c5.8-0.7,3.9,2.3,8,6
                               c4.1,3.7,1.2,1.7,5,4c3.8,2.3,0.5,1,2,6s4.9,4.3,6,5c1.1,0.7,6.9,9,8,6c1.1-3-0.1-5.3-1-13c-0.9-7.7-2.8-10.7-5-17
                               c-2.2-6.3,3.2-4.7,9,4c5.8,8.7,9.5,0.3,10-6c0.5-6.3,5.5,0.7,10,3c4.5,2.3,12.5,5,19,3C810.5,310,805,305,805,305z" class="st18 district" data-name="East Godavari"></path></g><g _ngcontent-ixk-c153=""><path _ngcontent-ixk-c153="" d="M805,305c0,0-0.8-1-6-2s-5.1-4.7-5-8c0.1-3.3-0.8-6.7-3-10c-2.2-3.3-9.1-0.3-12-4c-2.9-3.7-1.5-4.7-7-5
                               c-5.5-0.3-4.8-3-7-4c-2.2-1-10-2-10-2s-11.1-1.3-8,6c3.1,7.3-6.5,7-14,4c-7.5-3-8.5,4-10,14c-1.5,10-6.1,6.7-15,6
                               c-8.9-0.7-6.8,6.7-8,15c-1.2,8.3,7.5,7.1,9,2c1-3.3,6.2,2,9,1s3.9-0.7,6-4c2.1-3.3,3.2-2.3,9-3c5.8-0.7,3.9,2.3,8,6
                               c4.1,3.7,1.2,1.7,5,4c3.8,2.3,0.5,1,2,6s4.9,4.3,6,5c1.1,0.7,6.9,9,8,6c1.1-3-0.1-5.3-1-13c-0.9-7.7-2.8-10.7-5-17
                               c-2.2-6.3,3.2-4.7,9,4c5.8,8.7,9.5,0.3,10-6c0.5-6.3,5.5,0.7,10,3c4.5,2.3,12.5,5,19,3C810.5,310,805,305,805,305z" class="st5 district" data-name="East Godavari"></path></g></g></a><title _ngcontent-ixk-c153="">East Godavai</title></g><g _ngcontent-ixk-c153="" id="eluru_1_" class="st0"><a _ngcontent-ixk-c153="" title="Eluru" target="_blank"><g _ngcontent-ixk-c153="" id="eluru"><g _ngcontent-ixk-c153=""><path _ngcontent-ixk-c153="" d="M746,264c-1.3-5.9-5-12.8-8-16c-3-3.2-9.7-4.6-13-5c-3.3-0.4-7-2.8-13-4c-6-1.2-7.7-2.6-9-5
                               c-1.3-2.4-6.5-1.8-9-2c-2.5-0.2-5-2.3-9-4c-4-1.7-7-0.1-13-2s-4.2,1.7-2,5c2.2,3.3,2.3,3.2,6,6s6,5.4,11,4c5-1.4,4.3,0.9,4,4
                               c-0.3,3.1,7,2.2,13,9c6,6.8-1,7.9-3,7c-2-0.9-6.7,1.9-8,3s-4,10.7-5,11c-1,0.3-5.2,0.2-9,2c-3.8,1.8-8.7,4.9-13,2
                               c-4.3-2.9-4.2-1.3-4,2c0.2,3.3,1.9,6.1-3,6c-4.9-0.1-4.1,0.9-3,7c1.1,6.1-1.6,6.6-6,5c-4.4-1.6-3.4,1.9-2,6c1.4,4.1,3.9,9.1,1,12
                               c-2.9,2.9-0.4,4.6,3,10c3.4,5.4,2.1,5.9-4,4c-6.1-1.9-6.4,2.6-7,8s-10.1,8.9-8,10c2.1,1.1,5.9,0.4,8,2s5.9,2.9,8,1
                               c2.1-1.9,3.9-0.6,8,3c4.1,3.6,4.9-4.1,8-8c3.1-3.9,3.6,2.6,6,6c2.4,3.4,3.1,6.4,11,6c7.9-0.4,2.1,7.6-1,11
                               c-3.1,3.4,0.1,10.4,6,13c5.9,2.6,4.1-2.4,5-1c0.9,1.4,4.9-0.6,6-3c1.1-2.4,4.6-1.4,6-2c1.4-0.6,3.1-2.9,8,0c4.9,2.9,4-4,4-4
                               s1.3-0.6,3-2c1.7-1.4-0.5-2.1-2-8c-1.5-5.9-0.5-2.3-2-7c-1.5-4.7-1-5.8,1-8c2-2.2,8.3-1.8,15,1c6.7,2.8,6.5-5.3,8-10
                               c1.5-4.7-4.5-2.1-10-4c-5.5-1.9-2.2-3.8-2-7s-1.2-5.6-1-9c0.2-3.4-2-3.6-4-2c-2,1.6-4-0.1-11,0c-7,0.1-4,5.9-8,3
                               c-4-2.9-2.5-8.1-2-14c0.5-5.9,5.5-4.6,12-4c6.5,0.6,6.3-2.3,8-4c1.7-1.7,2.3-8.1,5-14c2.7-5.9,7.8-3.6,12-4s9.3,1.4,10-2
                               C748.7,274.6,747.3,269.9,746,264z" class="st19 district" data-name="Eluru"></path></g><g _ngcontent-ixk-c153=""><path _ngcontent-ixk-c153="" d="M746,264c-1.3-5.9-5-12.8-8-16c-3-3.2-9.7-4.6-13-5c-3.3-0.4-7-2.8-13-4c-6-1.2-7.7-2.6-9-5
                               C748.7,274.6,747.3,269.9,746,264z" class="st19 district" data-name="Eluru"></path></g><g _ngcontent-ixk-c153=""><path _ngcontent-ixk-c153="" d="M746,264c-1.3-5.9-5-12.8-8-16c-3-3.2-9.7-4.6-13-5c-3.3-0.4-7-2.8-13-4c-6-1.2-7.7-2.6-9-5
                               c-1.3-2.4-6.5-1.8-9-2c-2.5-0.2-5-2.3-9-4c-4-1.7-7-0.1-13-2s-4.2,1.7-2,5c2.2,3.3,2.3,3.2,6,6s6,5.4,11,4c5-1.4,4.3,0.9,4,4
                               c-0.3,3.1,7,2.2,13,9c6,6.8-1,7.9-3,7c-2-0.9-6.7,1.9-8,3s-4,10.7-5,11c-1,0.3-5.2,0.2-9,2c-3.8,1.8-8.7,4.9-13,2
                               c-4.3-2.9-4.2-1.3-4,2c0.2,3.3,1.9,6.1-3,6c-4.9-0.1-4.1,0.9-3,7c1.1,6.1-1.6,6.6-6,5c-4.4-1.6-3.4,1.9-2,6c1.4,4.1,3.9,9.1,1,12
                               c-2.9,2.9-0.4,4.6,3,10c3.4,5.4,2.1,5.9-4,4c-6.1-1.9-6.4,2.6-7,8s-10.1,8.9-8,10c2.1,1.1,5.9,0.4,8,2s5.9,2.9,8,1
                               c2.1-1.9,3.9-0.6,8,3c4.1,3.6,4.9-4.1,8-8c3.1-3.9,3.6,2.6,6,6c2.4,3.4,3.1,6.4,11,6c7.9-0.4,2.1,7.6-1,11
                               c-3.1,3.4,0.1,10.4,6,13c5.9,2.6,4.1-2.4,5-1c0.9,1.4,4.9-0.6,6-3c1.1-2.4,4.6-1.4,6-2c1.4-0.6,3.1-2.9,8,0c4.9,2.9,4-4,4-4
                               s1.3-0.6,3-2c1.7-1.4-0.5-2.1-2-8c-1.5-5.9-0.5-2.3-2-7c-1.5-4.7-1-5.8,1-8c2-2.2,8.3-1.8,15,1c6.7,2.8,6.5-5.3,8-10
                               c1.5-4.7-4.5-2.1-10-4c-5.5-1.9-2.2-3.8-2-7s-1.2-5.6-1-9c0.2-3.4-2-3.6-4-2c-2,1.6-4-0.1-11,0c-7,0.1-4,5.9-8,3
                               c-4-2.9-2.5-8.1-2-14c0.5-5.9,5.5-4.6,12-4c6.5,0.6,6.3-2.3,8-4c1.7-1.7,2.3-8.1,5-14c2.7-5.9,7.8-3.6,12-4s9.3,1.4,10-2
                               C748.7,274.6,747.3,269.9,746,264z" class="st5 district" data-name="Eluru"></path></g></g></a><title _ngcontent-ixk-c153="">Eluru</title></g><g _ngcontent-ixk-c153="" id="kakinada_1_" class="st0"><a _ngcontent-ixk-c153="" title="Kakinada"  target="_blank"><g _ngcontent-ixk-c153="" id="kakinada"><g _ngcontent-ixk-c153=""><path _ngcontent-ixk-c153="" d="M850,259c2.3-0.6,0-7.4,3-11c3-3.6,6-8.1,3-10c-3-1.9-7.3-3.4-9-2c-1.7,1.4-3.6,0.9-8,3c-4.4,2.1-4-0.4-8-2
                               c-4-1.6-4.3-3.8-7,0c-2.7,3.8-5,5.2-8,8c-3,2.8-6,3.6-9,6c-3,2.4-10,0-10,0s-5,1.2-4,6c1,4.8-0.3,4.9-4,4c-3.7-0.9-5.6-0.4-9,0
                               c-3.4,0.4-6,0-6,0s-0.3-0.4-2,1c-1.7,1.4-6.7-2.3-4,3c0,0-3,6.2,3,9c6,2.8,10,8,10,8s4.7-0.1,8,3s6.7,5.9,6,10
                               c-0.7,4.1,5.7,4.6,9,9c3.3,4.4-3,12-3,12s2.4,4.2,10-2c7.6-6.2,11.4-3.8,11-7c-0.4-3.2,0.4-14.4,6-19s7-10.1,14-14
                               c7-3.9,10.4-8.4,9-10C849.6,262.4,847.7,259.6,850,259z" class="st20 district" data-name="Kakinada"></path></g><g _ngcontent-ixk-c153=""><path _ngcontent-ixk-c153="" d="M850,259c2.3-0.6,0-7.4,3-11c3-3.6,6-8.1,3-10c-3-1.9-7.3-3.4-9-2c-1.7,1.4-3.6,0.9-8,3c-4.4,2.1-4-0.4-8-2
                               c-4-1.6-4.3-3.8-7,0c-2.7,3.8-5,5.2-8,8c-3,2.8-6,3.6-9,6c-3,2.4-10,0-10,0s-5,1.2-4,6c1,4.8-0.3,4.9-4,4c-3.7-0.9-5.6-0.4-9,0
                               c-3.4,0.4-6,0-6,0s-0.3-0.4-2,1c-1.7,1.4-6.7-2.3-4,3c0,0-3,6.2,3,9c6,2.8,10,8,10,8s4.7-0.1,8,3s6.7,5.9,6,10
                               c-0.7,4.1,5.7,4.6,9,9c3.3,4.4-3,12-3,12s2.4,4.2,10-2c7.6-6.2,11.4-3.8,11-7c-0.4-3.2,0.4-14.4,6-19s7-10.1,14-14
                               c7-3.9,10.4-8.4,9-10C849.6,262.4,847.7,259.6,850,259z" class="st5 district" data-name="Kakinada"></path></g></g></a><title _ngcontent-ixk-c153="">Kakinada</title></g><g _ngcontent-ixk-c153="" id="anakjapalli_1_" class="st0"><a _ngcontent-ixk-c153="" title="Anakapalli"  target="_blank"><g _ngcontent-ixk-c153="" id="anakjapalli"><g _ngcontent-ixk-c153=""><path _ngcontent-ixk-c153="" d="M925,204c6-5.2,7.7-13.8,4-14c-3.7-0.2-10.3,1.5-11-5c-0.7-6.5-4.3-6.8-8-7c-3.7-0.2-2,2.8-6-3
                               c-4-5.8,0-5.5-4-6c-4-0.5-4,0.5-6,0c-2-0.5-3.6-2.8-6-1c-2.4,1.8-4.3,0.5-4,3c0.3,2.5,0,4,0,4s-4.3,5.8-9,4c-4.7-1.8-9,1.2-8,5
                               c1,3.8,3.7,5.2,0,6c-3.7,0.8-6,2-6,2s-2.3,2.2-3,4c-0.7,1.8-1.6,1.8-3,3c-1.4,1.2-2.6,1.2-3,3c-0.4,1.8-3,5-3,5s-6.3-0.5-10,0
                               c-3.7,0.5-11.3,5.5-4,8c7.3,2.5,6,5.5,3,7c-3,1.5-10,0.8-10,6c0,5.2,1,7.2,6,9c5,1.8,2.7,4.5,5,2c2.3-2.5,4.7-6.2,11-5
                               c6.3,1.2,8.7,6.8,6,11c-2.7,4.2-3.3,1.8-3,4c0.3,2.2,2.4,2.8,0,5s-3.3,9.3-3,11c0,0,9-7.5,19-12c10-4.5,25.7-15.5,33-19
                               c7.3-3.5,17.4-8.5,20-10c2.6-1.5,5-5,5-5S919,209.2,925,204z" class="st21 district" data-name="Anakapalli"></path></g><g _ngcontent-ixk-c153=""><path _ngcontent-ixk-c153="" d="M925,204c6-5.2,7.7-13.8,4-14c-3.7-0.2-10.3,1.5-11-5c-0.7-6.5-4.3-6.8-8-7c-3.7-0.2-2,2.8-6-3
                               c-4-5.8,0-5.5-4-6c-4-0.5-4,0.5-6,0c-2-0.5-3.6-2.8-6-1c-2.4,1.8-4.3,0.5-4,3c0.3,2.5,0,4,0,4s-4.3,5.8-9,4c-4.7-1.8-9,1.2-8,5
                               c1,3.8,3.7,5.2,0,6c-3.7,0.8-6,2-6,2s-2.3,2.2-3,4c-0.7,1.8-1.6,1.8-3,3c-1.4,1.2-2.6,1.2-3,3c-0.4,1.8-3,5-3,5s-6.3-0.5-10,0
                               c-3.7,0.5-11.3,5.5-4,8c7.3,2.5,6,5.5,3,7c-3,1.5-10,0.8-10,6c0,5.2,1,7.2,6,9c5,1.8,2.7,4.5,5,2c2.3-2.5,4.7-6.2,11-5
                               c6.3,1.2,8.7,6.8,6,11c-2.7,4.2-3.3,1.8-3,4c0.3,2.2,2.4,2.8,0,5s-3.3,9.3-3,11c0,0,9-7.5,19-12c10-4.5,25.7-15.5,33-19
                               c7.3-3.5,17.4-8.5,20-10c2.6-1.5,5-5,5-5S919,209.2,925,204z" class="st5 district" data-name="Anakapalli"></path></g></g></a><title _ngcontent-ixk-c153="">Anakapalli</title></g><g _ngcontent-ixk-c153="" id="parvathipiuram-manym_1_" class="st0"><a _ngcontent-ixk-c153="" title="Parvathipuram Manyam"  target="_blank"><g _ngcontent-ixk-c153="" id="parvathipiuram-manym"><g _ngcontent-ixk-c153=""><path _ngcontent-ixk-c153="" d="M945.4,111.4c-3-1.6-13.3,0.3-14.4-3.6s-4-4.2-2-7.8l19.2,9.8c0-1.4-2.9-4.3-5.3-9.8s-10.9-8.6-14.4-12.2
                               c-3.5-3.6-7.7-13-17.3-14.5C901.5,71.7,908,96,908,96c2.3,6.1,1,1.9-1,8c-2,6.1-0.3,6.3,2,9c2.3,2.7,5.7,8.3,1,9
                               c-4.7,0.7-4,0.9-10,1c-6,0.1-7.6,2.3-11-4c-3.4-6.3-8.3-10.4-10-5c-1.7,5.4,1,10.6-5,13c-6,2.4-10.6,9.6-14,11
                               c-3.4,1.4-5.3-0.1-5-9c0.3-8.9-9-9.4-5-12c4-2.6-1-5.1-2-10c-1-4.9-11-6.4-15,1c-4,7.4-1.6,14.9-5,18c-3.4,3.1-2.3,4.3,1,6
                               c3.3,1.7,0,0.9-3,4c-3,3.1-3,10.3-2,13s5.4,7.6,2,10c-3.4,2.4-3.3,5.3-5,6c-1.7,0.7-3.6,5.3-3,8c0.6,2.7-2.6,4.9-9-2
                               c-6.4-6.9-15.3-6.1-20-3c-4.7,3.1-34,20-34,20s-7.3,0.6-9,5s-10.3,5.1-20,5c-9.7-0.1-16.8-0.4-27-1c-10.2-0.6-19.6-1.7-17,3
                               c2.6,4.7,5.6,7.5-8,6c-13.6-1.5-16.2,2.5-16,8c0.2,5.5,1,7,1,7s7-0.1,11,0c4,0.1,4,1.3,8,1c4-0.3,9-0.4,12,2c3,2.4,5,1.3,9,2
                               c4,0.7,5.7,4.6,7,7c1.3,2.4,10,2.3,12,5c2,2.7,6,2.6,10,2c4-0.6,6.4,3.6,9,6c2.6,2.4,5.4,4.9,8,11c2.6,6.1,3,9.9,8,12
                               c5,2.1,8.4,3.3,11,0c2.6-3.3,1-8.7,6-8c5,0.7,11.7,0.3,15,0c3.3-0.3,6.7,1.3,7-2c0.3-3.3,2-9.1,5-8s10.7-0.4,16-4
                               c5.3-3.6,9.7-5.1,12-13s1.4-9.7,5-10c3.6-0.3,17.4-6.4,8-7c-9.4-0.6-12.6-6.4-6-8c6.6-1.6,8.4-3.4,12-4c3.6-0.6,8.7-6.1,11-7
                               c2.3-0.9,1.7-4.4,5-6c3.3-1.6,7-4,7-4s-5.3-8.1,1-10c6.3-1.9,4-3.7,7-1s8.4-1.7,9-4c0.6-2.3,1.7-8.1,7-6c5.3,2.1,6.7,0.9,9-1
                               s4-8.1,2-10s-2.6-8.7,5-5c7.6,3.7,8-2.1,10-5c2-2.9,6-5.4,9-6s4-5.4,7-9c3-3.6,3-9,3-9S948.4,113,945.4,111.4z" class="st22 district" data-name="Parvathipuram Manyam"></path></g><g _ngcontent-ixk-c153=""><path _ngcontent-ixk-c153="" d="M945.4,111.4c-3-1.6-13.3,0.3-14.4-3.6s-4-4.2-2-7.8l19.2,9.8c0-1.4-2.9-4.3-5.3-9.8s-10.9-8.6-14.4-12.2
                               c-3.5-3.6-7.7-13-17.3-14.5C901.5,71.7,908,96,908,96c2.3,6.1,1,1.9-1,8c-2,6.1-0.3,6.3,2,9c2.3,2.7,5.7,8.3,1,9
                               c-4.7,0.7-4,0.9-10,1c-6,0.1-7.6,2.3-11-4c-3.4-6.3-8.3-10.4-10-5c-1.7,5.4,1,10.6-5,13c-6,2.4-10.6,9.6-14,11
                               c-3.4,1.4-5.3-0.1-5-9c0.3-8.9-9-9.4-5-12c4-2.6-1-5.1-2-10c-1-4.9-11-6.4-15,1c-4,7.4-1.6,14.9-5,18c-3.4,3.1-2.3,4.3,1,6
                               c3.3,1.7,0,0.9-3,4c-3,3.1-3,10.3-2,13s5.4,7.6,2,10c-3.4,2.4-3.3,5.3-5,6c-1.7,0.7-3.6,5.3-3,8c0.6,2.7-2.6,4.9-9-2
                               c-6.4-6.9-15.3-6.1-20-3c-4.7,3.1-34,20-34,20s-7.3,0.6-9,5s-10.3,5.1-20,5c-9.7-0.1-16.8-0.4-27-1c-10.2-0.6-19.6-1.7-17,3
                               c2.6,4.7,5.6,7.5-8,6c-13.6-1.5-16.2,2.5-16,8c0.2,5.5,1,7,1,7s7-0.1,11,0c4,0.1,4,1.3,8,1c4-0.3,9-0.4,12,2c3,2.4,5,1.3,9,2
                               c4,0.7,5.7,4.6,7,7c1.3,2.4,10,2.3,12,5c2,2.7,6,2.6,10,2c4-0.6,6.4,3.6,9,6c2.6,2.4,5.4,4.9,8,11c2.6,6.1,3,9.9,8,12
                               c5,2.1,8.4,3.3,11,0c2.6-3.3,1-8.7,6-8c5,0.7,11.7,0.3,15,0c3.3-0.3,6.7,1.3,7-2c0.3-3.3,2-9.1,5-8s10.7-0.4,16-4
                               c5.3-3.6,9.7-5.1,12-13s1.4-9.7,5-10c3.6-0.3,17.4-6.4,8-7c-9.4-0.6-12.6-6.4-6-8c6.6-1.6,8.4-3.4,12-4c3.6-0.6,8.7-6.1,11-7
                               c2.3-0.9,1.7-4.4,5-6c3.3-1.6,7-4,7-4s-5.3-8.1,1-10c6.3-1.9,4-3.7,7-1s8.4-1.7,9-4c0.6-2.3,1.7-8.1,7-6c5.3,2.1,6.7,0.9,9-1
                               s4-8.1,2-10s-2.6-8.7,5-5c7.6,3.7,8-2.1,10-5c2-2.9,6-5.4,9-6s4-5.4,7-9c3-3.6,3-9,3-9S948.4,113,945.4,111.4z" class="st5 district" data-name="Parvathipuram Manyam"></path></g></g><g _ngcontent-ixk-c153="" id="parvathipiuram-manym_3_"><g _ngcontent-ixk-c153=""><path _ngcontent-ixk-c153="" d="M1002,91c-6-9.3-7-10.7-5-12c2-1.3,1.4-5.7,0-7c-1.4-1.3-4.6-6.1,0-7c4.6-0.9,1.7-7.7,1-9
                               c-0.7-1.3,2.4,2.6-1-5c-3.4-7.6-5-13.1-7-13c-2,0.1,0-1.1-2,0s-2.3,0.3-3,2c-0.7,1.7-0.6-0.1-3-3c-2.4-2.9-5.3-6.7-6-10
                               c-0.7-3.3-1-4-1-4s-7.6-6.4-7,1c0.6,7.4-4.6,3.3-5,6c-0.4,2.7-4,7.9-5,3c-1-4.9-7.3-7.1-6,0c1.3,7.1,3,13.3,0,13s-3-2.7-7-6
                               c-4-3.3-9,0.9-9,4c0,3.1-2,3.3,4,8c6,4.7,11,5.6,5,8c-6,2.4-10.3,6.9-13,9c-2.7,2.1-6.3,2.6-11,3c-4.7,0.4-14.3-0.1-10,5
                               c4.3,5.1,4,5,4,5s12.9,2.6,7.5,4l9.4,11.7c2-3.6,0.2-9.1,4.9-9.4s-2-1.7,9.2-0.4c11.3,1.4,11-1.7,11,3c0,4.7-1.3,11.9,3,6
                               c4.3-5.9,6-1.1,3-10s-3.6-15.1,3-6c6.6,9.1,10,11.9,15,12c5,0.1,4.4-8.7,9-4C994.6,93.7,1008,100.3,1002,91z" class="st23 district" data-name="Parvathipuram Manyam"></path></g><g _ngcontent-ixk-c153=""><path _ngcontent-ixk-c153="" d="M1002,91c-6-9.3-7-10.7-5-12c2-1.3,1.4-5.7,0-7c-1.4-1.3-4.6-6.1,0-7c4.6-0.9,1.7-7.7,1-9
                               c-0.7-1.3,2.4,2.6-1-5c-3.4-7.6-5-13.1-7-13c-2,0.1,0-1.1-2,0s-2.3,0.3-3,2c-0.7,1.7-0.6-0.1-3-3c-2.4-2.9-5.3-6.7-6-10
                               c-0.7-3.3-1-4-1-4s-7.6-6.4-7,1c0.6,7.4-4.6,3.3-5,6c-0.4,2.7-4,7.9-5,3c-1-4.9-7.3-7.1-6,0c1.3,7.1,3,13.3,0,13s-3-2.7-7-6
                               c-4-3.3-9,0.9-9,4c0,3.1-2,3.3,4,8c6,4.7,11,5.6,5,8c-6,2.4-10.3,6.9-13,9c-2.7,2.1-6.3,2.6-11,3c-4.7,0.4-14.3-0.1-10,5
                               c4.3,5.1,4,5,4,5s12.9,2.6,7.5,4l9.4,11.7c2-3.6,0.2-9.1,4.9-9.4s-2-1.7,9.2-0.4c11.3,1.4,11-1.7,11,3c0,4.7-1.3,11.9,3,6
                               c4.3-5.9,6-1.1,3-10s-3.6-15.1,3-6c6.6,9.1,10,11.9,15,12c5,0.1,4.4-8.7,9-4C994.6,93.7,1008,100.3,1002,91z" class="st5 district" data-name="Parvathipuram Manyam"></path></g></g></a><title _ngcontent-ixk-c153="">Parvathipuram Manyam</title></g><g _ngcontent-ixk-c153="" id="parvathipiuram-manym_1_" class="st0"><a _ngcontent-ixk-c153="" title="Parvathipuram Manyam"  target="_blank"><g _ngcontent-ixk-c153="" id="parvathipiuram-manym"><g _ngcontent-ixk-c153=""><path _ngcontent-ixk-c153="" d="M945.4,111.4c-3-1.6-13.3,0.3-14.4-3.6s-4-4.2-2-7.8l19.2,9.8c0-1.4-2.9-4.3-5.3-9.8s-10.9-8.6-14.4-12.2
                            c-3.5-3.6-7.7-13-17.3-14.5C901.5,71.7,908,96,908,96c2.3,6.1,1,1.9-1,8c-2,6.1-0.3,6.3,2,9c2.3,2.7,5.7,8.3,1,9
                            c-4.7,0.7-4,0.9-10,1c-6,0.1-7.6,2.3-11-4c-3.4-6.3-8.3-10.4-10-5c-1.7,5.4,1,10.6-5,13c-6,2.4-10.6,9.6-14,11
                            c-3.4,1.4-5.3-0.1-5-9c0.3-8.9-9-9.4-5-12c4-2.6-1-5.1-2-10c-1-4.9-11-6.4-15,1c-4,7.4-1.6,14.9-5,18c-3.4,3.1-2.3,4.3,1,6
                            c3.3,1.7,0,0.9-3,4c-3,3.1-3,10.3-2,13s5.4,7.6,2,10c-3.4,2.4-3.3,5.3-5,6c-1.7,0.7-3.6,5.3-3,8c0.6,2.7-2.6,4.9-9-2
                            c-6.4-6.9-15.3-6.1-20-3c-4.7,3.1-34,20-34,20s-7.3,0.6-9,5s-10.3,5.1-20,5c-9.7-0.1-16.8-0.4-27-1c-10.2-0.6-19.6-1.7-17,3
                            c2.6,4.7,5.6,7.5-8,6c-13.6-1.5-16.2,2.5-16,8c0.2,5.5,1,7,1,7s7-0.1,11,0c4,0.1,4,1.3,8,1c4-0.3,9-0.4,12,2c3,2.4,5,1.3,9,2
                            c4,0.7,5.7,4.6,7,7c1.3,2.4,10,2.3,12,5c2,2.7,6,2.6,10,2c4-0.6,6.4,3.6,9,6c2.6,2.4,5.4,4.9,8,11c2.6,6.1,3,9.9,8,12
                            c5,2.1,8.4,3.3,11,0c2.6-3.3,1-8.7,6-8c5,0.7,11.7,0.3,15,0c3.3-0.3,6.7,1.3,7-2c0.3-3.3,2-9.1,5-8s10.7-0.4,16-4
                            c5.3-3.6,9.7-5.1,12-13s1.4-9.7,5-10c3.6-0.3,17.4-6.4,8-7c-9.4-0.6-12.6-6.4-6-8c6.6-1.6,8.4-3.4,12-4c3.6-0.6,8.7-6.1,11-7
                            c2.3-0.9,1.7-4.4,5-6c3.3-1.6,7-4,7-4s-5.3-8.1,1-10c6.3-1.9,4-3.7,7-1s8.4-1.7,9-4c0.6-2.3,1.7-8.1,7-6c5.3,2.1,6.7,0.9,9-1
                            s4-8.1,2-10s-2.6-8.7,5-5c7.6,3.7,8-2.1,10-5c2-2.9,6-5.4,9-6s4-5.4,7-9c3-3.6,3-9,3-9S948.4,113,945.4,111.4z" class="st22 district" data-name="Alluri Sitharama Raju"></path></g><g _ngcontent-ixk-c153=""><path _ngcontent-ixk-c153="" d="M945.4,111.4c-3-1.6-13.3,0.3-14.4-3.6s-4-4.2-2-7.8l19.2,9.8c0-1.4-2.9-4.3-5.3-9.8s-10.9-8.6-14.4-12.2
                            c-3.5-3.6-7.7-13-17.3-14.5C901.5,71.7,908,96,908,96c2.3,6.1,1,1.9-1,8c-2,6.1-0.3,6.3,2,9c2.3,2.7,5.7,8.3,1,9
                            c-4.7,0.7-4,0.9-10,1c-6,0.1-7.6,2.3-11-4c-3.4-6.3-8.3-10.4-10-5c-1.7,5.4,1,10.6-5,13c-6,2.4-10.6,9.6-14,11
                            c-3.4,1.4-5.3-0.1-5-9c0.3-8.9-9-9.4-5-12c4-2.6-1-5.1-2-10c-1-4.9-11-6.4-15,1c-4,7.4-1.6,14.9-5,18c-3.4,3.1-2.3,4.3,1,6
                            c3.3,1.7,0,0.9-3,4c-3,3.1-3,10.3-2,13s5.4,7.6,2,10c-3.4,2.4-3.3,5.3-5,6c-1.7,0.7-3.6,5.3-3,8c0.6,2.7-2.6,4.9-9-2
                            c-6.4-6.9-15.3-6.1-20-3c-4.7,3.1-34,20-34,20s-7.3,0.6-9,5s-10.3,5.1-20,5c-9.7-0.1-16.8-0.4-27-1c-10.2-0.6-19.6-1.7-17,3
                            c2.6,4.7,5.6,7.5-8,6c-13.6-1.5-16.2,2.5-16,8c0.2,5.5,1,7,1,7s7-0.1,11,0c4,0.1,4,1.3,8,1c4-0.3,9-0.4,12,2c3,2.4,5,1.3,9,2
                            c4,0.7,5.7,4.6,7,7c1.3,2.4,10,2.3,12,5c2,2.7,6,2.6,10,2c4-0.6,6.4,3.6,9,6c2.6,2.4,5.4,4.9,8,11c2.6,6.1,3,9.9,8,12
                            c5,2.1,8.4,3.3,11,0c2.6-3.3,1-8.7,6-8c5,0.7,11.7,0.3,15,0c3.3-0.3,6.7,1.3,7-2c0.3-3.3,2-9.1,5-8s10.7-0.4,16-4
                            c5.3-3.6,9.7-5.1,12-13s1.4-9.7,5-10c3.6-0.3,17.4-6.4,8-7c-9.4-0.6-12.6-6.4-6-8c6.6-1.6,8.4-3.4,12-4c3.6-0.6,8.7-6.1,11-7
                            c2.3-0.9,1.7-4.4,5-6c3.3-1.6,7-4,7-4s-5.3-8.1,1-10c6.3-1.9,4-3.7,7-1s8.4-1.7,9-4c0.6-2.3,1.7-8.1,7-6c5.3,2.1,6.7,0.9,9-1
                            s4-8.1,2-10s-2.6-8.7,5-5c7.6,3.7,8-2.1,10-5c2-2.9,6-5.4,9-6s4-5.4,7-9c3-3.6,3-9,3-9S948.4,113,945.4,111.4z" class="st5 district" data-name="Alluri Sitharama Raju"></path></g></g></a><title _ngcontent-ixk-c153="">Alluri Sitharama Raju</title></g><g _ngcontent-ixk-c153="" id="vijayanagaram_1_" class="st0"><a _ngcontent-ixk-c153="" title="Vizianagaram" target="_blank"><g _ngcontent-ixk-c153="" id="vijayanagaram"><g _ngcontent-ixk-c153=""><path _ngcontent-ixk-c153="" d="M1001,128c-8.6,2.3-26.7,0-16-6c10.7-6,13.8-4.5,9-12c-4.8-7.5-2.7-8.5-5-11c-2.3-2.5-2.9-3.8-5-3
                               c-2.1,0.8,2.6,3.2-2,1c-4.6-2.2-3.2-2.3-6-4c-2.8-1.7,1.6,0.7-3-2c-4.6-2.7-2.7-0.5-5-3c-2.3-2.5-6-8-6-8s2.6,12.2,1,15
                               c-1.6,2.8,1.1,7-4,5s-5.4-1.5-4-6c1.4-4.5,2.8-6-5-6c-7.8,0-12.7-1-15,0s-4.4,5.5-6,11c-1.6,5.5-6.4,15.5,1,14
                               c7.4-1.5,10.3-4,7,5s-4.2,14.5-6,18c-1.8,3.5-5.2,7.5-4,11c1.2,3.5,1.1,4.5,2,8c0.9,3.5-5.4,7-1.7,7c3.7,0,23.7-4.7,24.7,8
                               c0,0,1.8,10.5,10,5c8.2-5.5,12.3-13,15-16c2.7-3,8.6-8.8,16-11c7.4-2.2,5.1,0.7,8-2s6-10,6-10
                               C1004.8,130.5,1009.6,125.7,1001,128z" class="st24 district" data-name="Vizianagaram"></path></g><g _ngcontent-ixk-c153=""><path _ngcontent-ixk-c153="" d="M1001,128c-8.6,2.3-26.7,0-16-6c10.7-6,13.8-4.5,9-12c-4.8-7.5-2.7-8.5-5-11c-2.3-2.5-2.9-3.8-5-3
                               c-2.1,0.8,2.6,3.2-2,1c-4.6-2.2-3.2-2.3-6-4c-2.8-1.7,1.6,0.7-3-2c-4.6-2.7-2.7-0.5-5-3c-2.3-2.5-6-8-6-8s2.6,12.2,1,15
                               c-1.6,2.8,1.1,7-4,5s-5.4-1.5-4-6c1.4-4.5,2.8-6-5-6c-7.8,0-12.7-1-15,0s-4.4,5.5-6,11c-1.6,5.5-6.4,15.5,1,14
                               c7.4-1.5,10.3-4,7,5s-4.2,14.5-6,18c-1.8,3.5-5.2,7.5-4,11c1.2,3.5,1.1,4.5,2,8c0.9,3.5-5.4,7-1.7,7c3.7,0,23.7-4.7,24.7,8
                               c0,0,1.8,10.5,10,5c8.2-5.5,12.3-13,15-16c2.7-3,8.6-8.8,16-11c7.4-2.2,5.1,0.7,8-2s6-10,6-10
                               C1004.8,130.5,1009.6,125.7,1001,128z" class="st5 district" data-name="Vizianagaram"></path></g></g></a><title _ngcontent-ixk-c153="">Vizianagaram</title></g><g _ngcontent-ixk-c153="" id="visakhapatnam_1_" class="st0"><a _ngcontent-ixk-c153="" title="Visakhapatnam" target="_blank"><g _ngcontent-ixk-c153="" id="visakhapatnam"><g _ngcontent-ixk-c153=""><path _ngcontent-ixk-c153="" d="M950,169c-5.4-5.3-6-7-16-6c-10,1-11,0.7-9-3c2-3.7,3-2.7,3-5c0-2.3-2.3-1-2-8c0.3-7-8-1-8-1
                               s-1.3,3.6-4,6.9c-1.8,2.2-8.7-4.3-11.6-1.6c-1.6,1.5,2.5,8.1,1,12c-3.8,10,3.6,14.7,11.6,15.7c8,1,2.7,10,8,10c12-1,8.7,7.7,3,15
                               c-5.7,7.3,1.3,14,4,12c0,0,6.7-3.3,10-7c3.3-3.7,0.4,0,2-4c1.6-4,6.7-9.3,8-13c1.3-3.7,8.7-12,9-14
                               C959.3,176,955.4,174.3,950,169z" class="st25 district" data-name="Visakhapatnam"></path></g><g _ngcontent-ixk-c153=""><path _ngcontent-ixk-c153="" d="M950,169c-5.4-5.3-6-7-16-6c-10,1-11,0.7-9-3c2-3.7,3-2.7,3-5c0-2.3-2.3-1-2-8c0.3-7-8-1-8-1s-1.3,3.6-4,6.9
                               c-1.8,2.2-8.7-4.3-11.6-1.6c-1.6,1.5,2.5,8.1,1,12c-3.8,10,3.6,14.7,11.6,15.7c8,1,2.7,10,8,10c12-1,8.7,7.7,3,15
                               c-5.7,7.3,1.3,14,4,12c0,0,6.7-3.3,10-7c3.3-3.7,0.4,0,2-4c1.6-4,6.7-9.3,8-13c1.3-3.7,8.7-12,9-14
                               C959.3,176,955.4,174.3,950,169z" class="st5 district" data-name="Visakhapatnam"></path></g></g></a><title _ngcontent-ixk-c153="">Visakhapatnam</title></g><g _ngcontent-ixk-c153="" id="srikakulm_1_" class="st0"><a _ngcontent-ixk-c153="" title="Srikakulam" target="_blank"><g _ngcontent-ixk-c153="" id="srikakulm"><g _ngcontent-ixk-c153=""><path _ngcontent-ixk-c153="" d="M1096,18c-0.2-3.9-6.8-2.1-9,1c-2.2,3.1-5.4,6.9-7,10c-1.6,3.1-3.4,1.5-7,4c-3.6,2.5,0.2-0.1-4,2
                               c-4.2,2.1-5.4-2.1-5,3c0.4,5.1-0.1,8.5-2,11c-1.9,2.5-1.4-0.5-5,3c-3.6,3.5-4.8-0.1-4,5c0.8,5.1,5.6,2.5-3,5
                               c-8.6,2.5-8.4,1.2-14,4s-8.4,4.9-14,0c-5.6-4.9-19.4-5.1-20-3c-0.6,2.1-3.8,3.2-4,10c-0.2,6.8-0.4,8.5,2,13s5.6,14.9-1,10
                               c-6.6-4.9-8.1-7.5-10-4c-1.9,3.5-2.8,2.2,1,9c3.8,6.8,8.6,11.9,3,15c-5.6,3.1-5,4-5,4s-14.8,11.9,6,7c7.8-3.2,8-5,8-5
                               s1.9,7.9,6,11c4.1,3.1,6.9,4.9,16-3c9.1-7.9,10.9-17.1,19-23c8.1-5.9,16.2-18.1,17-19c0.8-0.9,4.9-9.5,7-11c2.1-1.5,6-10,6-10
                               s2.9-3.8,6-6c3.1-2.2,13-23,13-23s7.2-3.8,8-6C1100.8,29.8,1096.2,21.9,1096,18z" class="st26 district" data-name="Srikakulam"></path></g><g _ngcontent-ixk-c153=""><path _ngcontent-ixk-c153="" d="M1096,18c-0.2-3.9-6.8-2.1-9,1c-2.2,3.1-5.4,6.9-7,10c-1.6,3.1-3.4,1.5-7,4c-3.6,2.5,0.2-0.1-4,2
                               c-4.2,2.1-5.4-2.1-5,3c0.4,5.1-0.1,8.5-2,11c-1.9,2.5-1.4-0.5-5,3c-3.6,3.5-4.8-0.1-4,5c0.8,5.1,5.6,2.5-3,5
                               c-8.6,2.5-8.4,1.2-14,4s-8.4,4.9-14,0c-5.6-4.9-19.4-5.1-20-3c-0.6,2.1-3.8,3.2-4,10c-0.2,6.8-0.4,8.5,2,13s5.6,14.9-1,10
                               c-6.6-4.9-8.1-7.5-10-4c-1.9,3.5-2.8,2.2,1,9c3.8,6.8,8.6,11.9,3,15c-5.6,3.1-5,4-5,4s-14.8,11.9,6,7c7.8-3.2,8-5,8-5
                               s1.9,7.9,6,11c4.1,3.1,6.9,4.9,16-3c9.1-7.9,10.9-17.1,19-23c8.1-5.9,16.2-18.1,17-19c0.8-0.9,4.9-9.5,7-11c2.1-1.5,6-10,6-10
                               s2.9-3.8,6-6c3.1-2.2,13-23,13-23s7.2-3.8,8-6C1100.8,29.8,1096.2,21.9,1096,18z" class="st5 district" data-name="Srikakulam"></path></g></g></a><title _ngcontent-ixk-c153="">Srikakulam</title></g><g _ngcontent-ixk-c153="" id="bapatla_1_" class="st0"><a _ngcontent-ixk-c153="" title="Bapatla"  target="_blank"><g _ngcontent-ixk-c153="" id="bapatla"><g _ngcontent-ixk-c153=""><path _ngcontent-ixk-c153="" d="M651.6,403.3c-0.7-1.4-6.6-3.8-15.9,2.5c-1.4,1-4.2,2.8-7.4,0.3c1.1,0.9-6-1.8-4.3,4.9
                               c0.8,2.1,7.7,14.1-4.4,18.6c-2.2,0.7-11.9,1-12.6,5.1c-0.2,1.2-6.4-0.9-15.9-5.7c-1.7-0.8-9.2,8.1-16,2c-3.2-1.1-6.4,4.3-10-3
                               c-3.6-7.3-6.8-16.5-17-16c-10.2,0.5-10,2.3-7,7c3,4.7,6.4,7.7,2,10c-4.4,2.3-2,2.7,0,4c2,1.3,2.8,8.1,2,12c-0.8,3.9,1.5,5.1,4,8
                               c2.5,2.9-1,9.9-4,16c-3,6.1-11.3,15-15,16c-3.7,1,1.1,3.2,3,6s3.1,5.4,3,7c-0.1,1.6,1.7-0.2,4,2c2.3,2.2,3.5,5.8,6,3
                               c2.5-2.8,5.7-7,8-6c2.3,1,5.1-2.4,7-6c1.9-3.6,8.9-5.2,12-3c3.1,2.2,2.8,2.6,10,3c0,0-1.1-34.5,52-44c2.6,0.2,17.3-3.5,15,8
                               c0.2,1.1-1.6,7.1,3,10c0.7-0.5,0.3-4.4,8.1-16.5C662,446.9,667.4,434.6,651.6,403.3z" class="st27 district" data-name="Bapatla"></path></g><g _ngcontent-ixk-c153=""><path _ngcontent-ixk-c153="" d="M651.6,403.3c-0.7-1.4-6.6-3.8-15.9,2.5c-1.4,1-4.2,2.8-7.4,0.3c1.1,0.9-6-1.8-4.3,4.9
                               c0.8,2.1,7.7,14.1-4.4,18.6c-2.2,0.7-11.9,1-12.6,5.1c-0.2,1.2-6.4-0.9-15.9-5.7c-1.7-0.8-9.2,8.1-16,2c-3.2-1.1-6.4,4.3-10-3
                               c-3.6-7.3-6.8-16.5-17-16c-10.2,0.5-10,2.3-7,7c3,4.7,6.4,7.7,2,10c-4.4,2.3-2,2.7,0,4c2,1.3,2.8,8.1,2,12c-0.8,3.9,1.5,5.1,4,8
                               c2.5,2.9-1,9.9-4,16c-3,6.1-11.3,15-15,16c-3.7,1,1.1,3.2,3,6s3.1,5.4,3,7c-0.1,1.6,1.7-0.2,4,2c2.3,2.2,3.5,5.8,6,3
                               c2.5-2.8,5.7-7,8-6c2.3,1,5.1-2.4,7-6c1.9-3.6,8.9-5.2,12-3c3.1,2.2,2.8,2.6,10,3c0,0-1.1-34.5,52-44c2.6,0.2,17.3-3.5,15,8
                               c0.2,1.1-1.6,7.1,3,10c0.7-0.5,0.3-4.4,8.1-16.5C662,446.9,667.4,434.6,651.6,403.3z" class="st5 district" data-name="Bapatla"></path></g></g></a><title _ngcontent-ixk-c153="">Bapatla</title></g><g _ngcontent-ixk-c153="" id="Layer_27"><a _ngcontent-ixk-c153="" title="Guntur"  target="_blank"><g _ngcontent-ixk-c153="" id="guntur"><g _ngcontent-ixk-c153=""><path _ngcontent-ixk-c153="" d="M644,390c-5.8-7.1-20.2-25.4-25-28c-4.8-2.6-8.7-4.4-11,0c-2.3,4.4-2.9,6.3-5,8c-2.1,1.7-2.2,2.1-6,4
                               c-3.8,1.9-5.4,4.3-8,6c-2.6,1.7-5.7,2.1-7,4c-1.3,1.9-5.8,5.2-7.6,7.2c-1.8,1.9-4.4,10.4,3.6,6.6c7.9-3.8,22.1-7.8,22-3.1
                               c-0.1,4.7-7.4,5.8-9,10.2c-1.6,4.4-2.2,7.6-2,12c0.2,4.4-5.5,7.7-4,11c0,0,3.3-5.4,9-1c5.7,4.4,9.8,5.6,15,3
                               c5.2-2.6,7.3-1.2,11-3c3.7-1.8,5.8-9.2,3-13c-2.8-3.8-6.2-9.2,1-9c7.2,0.2,13.1-3.9,17-4C644.9,400.9,649.8,397.1,644,390z" class="st28 district" data-name="Guntur"></path></g><g _ngcontent-ixk-c153=""><path _ngcontent-ixk-c153="" d="M644,390c-5.8-7.1-20.2-25.4-25-28c-4.8-2.6-8.7-4.4-11,0c-2.3,4.4-2.9,6.3-5,8c-2.1,1.7-2.2,2.1-6,4
                               c-3.8,1.9-5.4,4.3-8,6c-2.6,1.7-5.7,2.1-7,4c-1.3,1.9-5.8,5.2-7.6,7.2c-1.8,1.9-4.4,10.4,3.6,6.6c7.9-3.8,22.1-7.8,22-3.1
                               c-0.1,4.7-7.4,5.8-9,10.2c-1.6,4.4-2.2,7.6-2,12c0.2,4.4-5.5,7.7-4,11c0,0,3.3-5.4,9-1c5.7,4.4,9.8,5.6,15,3
                               c5.2-2.6,7.3-1.2,11-3c3.7-1.8,5.8-9.2,3-13c-2.8-3.8-6.2-9.2,1-9c7.2,0.2,13.1-3.9,17-4C644.9,400.9,649.8,397.1,644,390z" class="st5 district" data-name="Guntur"></path></g></g></a><title _ngcontent-ixk-c153="">Guntur</title></g><g _ngcontent-ixk-c153="" id="guntur_1_" class="st0"><a _ngcontent-ixk-c153="" title="Annamayya" target="_blank"><text _ngcontent-ixk-c153="" transform="matrix(1 0 0 1 302.0426 737.5057)" class="st29 st30">Annamayya</text></a><a _ngcontent-ixk-c153="" title="Sri Sathya Sai"  target="_blank"><text _ngcontent-ixk-c153="" transform="matrix(1 0 0 1 278.0512 671.4259)" class="st29 st30">Satyasai</text></a><a _ngcontent-ixk-c153="" title="Ananthapuramu"  target="_blank"><text _ngcontent-ixk-c153="" transform="matrix(1 0 0 1 220.5831 581.5536)" class="st29 st30">Ananthpuramu</text></a><a _ngcontent-ixk-c153="" title="Kurnool" target="_blank"><text _ngcontent-ixk-c153="" transform="matrix(1 0 0 1 234.9448 491.9276)" class="st29 st30">Kurnool</text></a><a _ngcontent-ixk-c153="" title="Nandyal"  target="_blank"><text _ngcontent-ixk-c153="" transform="matrix(1 0 0 1 339.9661 514.4595)" class="st29 st30">Nandyal</text></a><a _ngcontent-ixk-c153="" title="Prakasam"  target="_blank"><text _ngcontent-ixk-c153="" transform="matrix(1 0 0 1 439.6124 484.8422)" class="st29 st30">Prakasam</text></a><a _ngcontent-ixk-c153="" title="Palnadu"  target="_blank"><text _ngcontent-ixk-c153="" transform="matrix(1 0 0 1 491.0925 376.111)" class="st29 st30">Palnadu</text></a><a _ngcontent-ixk-c153="" title="Bapatla"  target="_blank"><text _ngcontent-ixk-c153="" transform="matrix(1 0 0 1 569.4443 467.3029)" class="st29 st30">Bapatla</text></a><a _ngcontent-ixk-c153="" title="Guntur" target="_blank"><text _ngcontent-ixk-c153="" transform="matrix(1 0 0 1 604.6271 392.3386)" class="st29 st30">Guntur</text></a><a _ngcontent-ixk-c153="" title="Krishna"  target="_blank"><text _ngcontent-ixk-c153="" transform="matrix(1 0 0 1 677.7847 407.4884)" class="st29 st30">Krishna</text></a><a _ngcontent-ixk-c153="" title="NTR" target="_blank"><text _ngcontent-ixk-c153="" transform="matrix(1 0 0 1 572.5151 327.3701)" class="st29 st30">NTR</text></a><a _ngcontent-ixk-c153="" title="Eluru"  target="_blank"><text _ngcontent-ixk-c153="" transform="matrix(1 0 0 1 658.2053 283.8774)" class="st29 st30">Eluru</text></a><a _ngcontent-ixk-c153="" title="West Godavari"  target="_blank"><text _ngcontent-ixk-c153="" transform="matrix(1 0 0 1 732.503 376.1109)" class="st29 st30">West Godavari</text></a><a _ngcontent-ixk-c153="" title="Konaseema" target="_blank"><text _ngcontent-ixk-c153="" transform="matrix(1 0 0 1 803.0947 346.4739)" class="st29 st30">Konaseema</text></a><a _ngcontent-ixk-c153="" title="East Godavai"  target="_blank"><text _ngcontent-ixk-c153="" transform="matrix(1 0 0 1 726.6307 302.0483)" class="st29 st30">East Godavari</text></a><a _ngcontent-ixk-c153="" title="Kakinada" target="_blank"><text _ngcontent-ixk-c153="" transform="matrix(1 0 0 1 812.2289 283.8773)" class="st29 st30">Kakinada</text></a><a _ngcontent-ixk-c153="" title="Anakapalli" target="_blank"><text _ngcontent-ixk-c153="" transform="matrix(1 0 0 1 873.9338 229.7954)" class="st29 st30">Anakapalli</text></a><a _ngcontent-ixk-c153="" title="Visakhapatnam"  target="_blank"><text _ngcontent-ixk-c153="" transform="matrix(1 0 0 1 935.2104 190.2209)" class="st29 st30">Visakhapatnam</text></a><a _ngcontent-ixk-c153="" title="Vizianagaram"  target="_blank"><text _ngcontent-ixk-c153="" transform="matrix(1 0 0 1 956.7194 147.3274)" class="st29 st30">Vizianagaram</text></a><a _ngcontent-ixk-c153="" title="Srikakulam"  target="_blank"><text _ngcontent-ixk-c153="" transform="matrix(1 0 0 1 1024.8148 99.121)" class="st29 st30">Srikakulam</text></a><a _ngcontent-ixk-c153="" title="Parvathipuram Manyam" target="_blank"><text _ngcontent-ixk-c153="" transform="matrix(1 0 0 1 807.1726 64.605)" class="st29 st30">Parvathipuram Manyam</text></a><a _ngcontent-ixk-c153="" title="Alluri Sitharama Raju" target="_blank"><text _ngcontent-ixk-c153="" transform="matrix(1 0 0 1 712.9728 158.5615)" class="st29 st30">Alluri Seetarama Raju</text></a><a _ngcontent-ixk-c153="" title="Y.S.R." target="_blank"><text _ngcontent-ixk-c153="" transform="matrix(1 0 0 1 375.5831 608.1068)" class="st29 st30">YSR</text></a><a _ngcontent-ixk-c153="" title="Tirupati" target="_blank"><text _ngcontent-ixk-c153="" transform="matrix(1 0 0 1 532.115 699.903)" class="st29 st30">Tirupati</text></a><a _ngcontent-ixk-c153="" title="SRI Potti Sriramulu Nellore"  target="_blank"><text _ngcontent-ixk-c153="" transform="matrix(1 0 0 1 500.8115 595.2191)" class="st29 st30">SRI Potti Sriramulu Nellore</text></a><a _ngcontent-ixk-c153="" title="Chittoor"  target="_blank"><text _ngcontent-ixk-c153="" transform="matrix(1 0 0 1 446.5532 798.4251)" class="st29 st30">Chittor</text></a></g></svg>
