<svg width="317" height="260" viewBox="0 0 317 260" fill="none" xmlns="http://www.w3.org/2000/svg">
<g clip-path="url(#clip0_317_626)">
<path d="M99.1572 13.3984V177.677H227.573V9.42426C207.032 2.58652 184.979 -0.59362 162.853 0.0911344C140.727 0.775888 119.023 5.31017 99.1572 13.3984Z" fill="white"/>
<path d="M86.5583 20.2139V178.144H130.22L129.439 169.205L125.146 71.334H211.599L207.306 169.205L206.526 178.144H250.676V23.0733C249.866 22.5793 249.052 22.0914 248.227 21.6128C248.067 21.5201 248.774 18.9013 248.61 18.8087C239.114 13.3137 228.842 8.79964 218.022 5.36703L214.824 34.4553H199.844V3.4405C198.866 3.23978 197.888 3.05142 196.902 2.87541C196.902 11.2509 192.88 19.2834 185.72 25.2058C178.561 31.1282 168.85 34.4553 158.725 34.4553H140.332V2.05713C139.351 2.20534 138.369 2.36283 137.394 2.52957V34.4553H121.917L119.476 6.59634C108.947 9.61602 98.8844 13.6509 89.4962 18.6175C89.1715 18.7904 88.843 18.9603 88.5182 19.1393C87.8612 19.4914 87.2079 19.8496 86.5583 20.2139ZM199.844 36.8886H214.612L212.308 63.2283H199.844V36.8886ZM140.332 36.8886H196.902V63.2283H174.986V62.7064C174.986 62.4558 174.926 62.2076 174.81 61.9761C174.694 61.7445 174.525 61.5341 174.31 61.3568C174.096 61.1796 173.842 61.0391 173.562 60.9432C173.282 60.8473 172.982 60.798 172.679 60.7981H163.578C163.274 60.7977 162.974 60.8468 162.694 60.9425C162.413 61.0382 162.159 61.1787 161.944 61.3559C161.729 61.5332 161.559 61.7437 161.443 61.9754C161.327 62.2072 161.267 62.4556 161.267 62.7064V63.2283H140.332V36.8886ZM124.433 63.2283L122.13 36.8886H137.394V63.2283H124.433Z" fill="#F2F2F2"/>
<path d="M20.5435 173.431C20.5472 173.44 20.5509 173.446 20.5546 173.456C20.5808 173.52 20.6069 173.579 20.6368 173.644V173.647C21.9097 176.605 23.3084 179.514 24.8327 182.373L312.737 182.114C314.282 179.196 315.701 176.224 316.992 173.199C316.997 173.193 316.999 173.185 317 173.178L20.5435 173.431Z" fill="#CCCCCC"/>
<path d="M128.653 128.374C128.423 129.165 127.987 129.905 127.374 130.541C126.762 131.177 125.988 131.695 125.107 132.057C124.227 132.419 123.261 132.617 122.278 132.637C121.295 132.657 120.319 132.499 119.418 132.173L103.191 146.691L100.219 136.715L116.084 124.457C116.846 123.242 118.121 122.299 119.667 121.809C121.212 121.319 122.922 121.315 124.471 121.798C126.021 122.28 127.302 123.216 128.073 124.429C128.843 125.641 129.05 127.044 128.653 128.374Z" fill="#FFB6B6"/>
<path d="M110.19 141.243L88.1429 161.713L87.9637 161.685C87.8891 161.676 86.2167 161.429 83.5662 161.027C73.9799 159.576 51.6192 156.114 46.0719 154.512C42.8731 153.62 40.0026 152.067 37.7324 150C38.3073 147.41 38.9232 145.47 39.5317 144.526C39.976 143.837 39.8938 142.938 39.9125 141.913C41.3682 141.082 43.0649 140.585 44.8289 140.474C55.8597 139.814 66.9252 141.282 77.1529 144.763L82.969 146.752L83.2079 146.607L102.851 134.681L102.985 134.601L109.742 140.829L110.19 141.243Z" fill="#7469B6"/>
<path d="M156.203 259.593C155.908 259.574 155.617 259.552 155.322 259.531C151.622 259.275 147.96 258.912 144.336 258.444L140.356 250.78L138.449 247.105L145.65 244.545L150.331 242.884L152.556 249.208L153.478 251.836L155.658 258.036L156.203 259.593Z" fill="#FFB6B6"/>
<path d="M75.5339 223.929V234.693C77.7177 236.027 79.9451 237.314 82.216 238.553V223.929H75.5339Z" fill="#CACACA"/>
<path d="M52.0608 217.111C53.9385 218.834 55.8722 220.512 57.8619 222.147C62.5447 226.005 67.517 229.614 72.7491 232.955H102.538C103.329 232.955 104.111 232.815 104.832 232.545C105.552 232.275 106.194 231.881 106.716 231.389L106.719 231.38C107.341 230.8 107.772 230.098 107.974 229.342L107.977 229.336C108.062 229.011 108.104 228.68 108.104 228.347V221.718C108.103 220.497 107.517 219.326 106.473 218.462C105.43 217.598 104.015 217.112 102.538 217.111H52.0608Z" fill="#3F3D56"/>
<path d="M39.7866 191.234L43.0157 202.678C42.6999 204.336 42.5948 206.017 42.7021 207.693C44.2326 209.391 45.8117 211.055 47.4393 212.686C48.9399 214.19 50.4804 215.665 52.0607 217.111C53.9385 218.834 55.8721 220.513 57.8618 222.147C63.0432 223.493 69.1504 224.043 75.5339 224.08C77.7363 224.095 79.9724 224.046 82.216 223.947C91.3133 223.552 86.3297 222.345 93.8667 221.091C95.8601 220.764 97.734 220.43 99.4587 220.106C102.725 219.498 105.458 218.929 107.436 218.497C109.665 218.015 117.708 214.692 117.708 214.692L124.054 226.117L129.654 236.925L137.028 250.577C137.976 250.648 138.925 250.708 139.876 250.756C140.884 250.815 141.893 250.862 142.903 250.898C143.702 250.932 144.497 250.957 145.3 250.976L145.572 251.047L145.796 250.988L149.395 250.04L150.608 249.722L154.972 248.573C154.972 248.573 153.998 246.035 152.292 241.801C151.665 240.248 147.222 228.764 142.575 218.738C141.197 215.761 139.771 212.741 138.304 209.737C137.102 207.27 135.878 204.812 134.639 202.388C132.485 198.185 122.077 195.918 109.821 194.73C109.198 194.671 108.571 194.612 107.94 194.557C101.695 194.013 95.0687 193.732 88.8719 193.603C85.7697 193.538 96.9613 193.513 94.1765 193.51C93.2768 193.51 92.402 193.512 91.5522 193.516H91.5485C89.2527 193.525 87.1398 193.553 85.2807 193.584C84.9186 193.59 84.5677 193.599 84.2243 193.606H84.2205C83.9891 193.609 83.7614 193.615 83.5374 193.618C79.4721 193.704 76.9785 193.809 76.9785 193.809L76.0116 187.535L75.8138 186.269L75.6272 185.065V185.061L75.6048 184.91L75.4517 184.907L72.764 184.864L50.1718 184.499L40.549 184.162L39.7866 191.234Z" fill="#2F2E41"/>
<path d="M113.229 214.383C110.507 218.23 108.387 225.524 105.598 229.137C100.249 236.072 97.1133 239.855 93.4064 244.122C89.5763 242.396 85.847 240.539 82.2186 238.552C80.2811 237.496 78.3736 236.402 76.4958 235.269L78.717 231.079L79.9787 229.026L85.6455 219.796L91.999 209.448L94.209 210.301L113.229 214.383Z" fill="#2F2E41"/>
<path d="M304.196 161.512C304.303 161.245 304.34 160.963 304.304 160.684C304.268 160.405 304.16 160.135 303.988 159.894C303.816 159.652 303.583 159.443 303.305 159.282C303.027 159.121 302.71 159.011 302.377 158.96C302.253 158.938 302.128 158.925 302.001 158.921L286.789 158.596C286.448 158.593 286.11 158.65 285.796 158.762C285.483 158.873 285.201 159.038 284.97 159.246C284.757 159.208 284.54 159.189 284.322 159.19C283.848 159.18 283.376 159.247 282.934 159.387C282.492 159.528 282.087 159.739 281.744 160.01C281.4 160.28 281.124 160.603 280.932 160.961C280.74 161.319 280.634 161.705 280.622 162.097C280.611 162.489 280.692 162.879 280.863 163.245C281.033 163.611 281.289 163.945 281.616 164.229C281.942 164.513 282.334 164.741 282.767 164.9C283.2 165.059 283.667 165.145 284.141 165.155C284.686 165.164 285.226 165.072 285.723 164.886L287.122 177.264C287.257 177.671 287.547 178.031 287.949 178.29C288.352 178.55 288.845 178.694 289.355 178.702L299.244 178.913C299.75 178.92 300.247 178.795 300.661 178.555C301.076 178.314 301.388 177.972 301.552 177.575L304.196 161.512ZM284.172 164.301C283.49 164.286 282.842 164.048 282.371 163.639C281.9 163.23 281.645 162.683 281.661 162.118C281.677 161.553 281.963 161.017 282.456 160.626C282.95 160.235 283.61 160.023 284.293 160.034C284.341 160.034 284.384 160.053 284.432 160.053C284.324 160.395 284.327 160.755 284.44 161.096L285.436 164.045C285.05 164.224 284.614 164.312 284.172 164.301Z" fill="#CCCCCC"/>
<path d="M302.377 158.96C302.053 160.493 298.409 161.57 294.028 161.383C289.999 161.23 286.704 160.059 286.101 158.672C286.324 158.618 286.556 158.592 286.789 158.596L302.002 158.921C302.128 158.925 302.253 158.938 302.377 158.96Z" fill="white"/>
<path d="M207.137 142.762V174.431H233.959V142.762C233.96 142.534 233.872 142.312 233.708 142.129C233.545 141.945 233.315 141.81 233.052 141.743C232.928 141.709 232.798 141.692 232.667 141.693H208.433C208.263 141.693 208.095 141.721 207.938 141.774C207.78 141.828 207.638 141.906 207.517 142.006C207.397 142.105 207.302 142.223 207.236 142.352C207.171 142.482 207.138 142.621 207.137 142.762ZM217.605 153.644C217.612 153.019 217.916 152.422 218.453 151.983C218.989 151.543 219.713 151.297 220.468 151.297C221.223 151.297 221.947 151.543 222.483 151.983C223.02 152.422 223.324 153.019 223.331 153.644V157.318C223.328 157.944 223.024 158.544 222.488 158.986C221.951 159.427 221.225 159.675 220.468 159.675C219.711 159.675 218.985 159.427 218.448 158.986C217.912 158.544 217.608 157.944 217.605 157.318V153.644Z" fill="#CCCCCC"/>
<path d="M207.055 173.418V176.472C207.056 176.631 207.132 176.782 207.267 176.894C207.402 177.006 207.584 177.07 207.776 177.071H233.321C233.512 177.071 233.695 177.007 233.83 176.895C233.965 176.783 234.041 176.631 234.041 176.472V173.418H207.055Z" fill="#3F3D56"/>
<path d="M164.943 95.0478V152.872C164.944 153.609 165.298 154.315 165.928 154.836C166.558 155.357 167.412 155.65 168.303 155.651H271.894C272.785 155.65 273.639 155.357 274.269 154.836C274.899 154.315 275.253 153.609 275.254 152.872V95.0478C275.252 94.3115 274.897 93.606 274.267 93.0857C273.637 92.5653 272.784 92.2727 271.894 92.2717H168.303C167.413 92.2727 166.56 92.5653 165.93 93.0857C165.3 93.606 164.945 94.3115 164.943 95.0478Z" fill="#CCCCCC"/>
<path d="M167.374 95.7672V152.158C167.374 152.552 167.564 152.929 167.9 153.208C168.237 153.486 168.693 153.643 169.169 153.644H271.032C271.508 153.643 271.964 153.486 272.3 153.208C272.637 152.929 272.826 152.552 272.827 152.158V95.7672C272.827 95.373 272.638 94.9949 272.301 94.7159C271.965 94.4368 271.508 94.2797 271.032 94.2788H169.169C168.693 94.2797 168.236 94.4369 167.899 94.7159C167.563 94.9949 167.374 95.373 167.374 95.7672Z" fill="white"/>
<path d="M188.456 176.865C188.56 176.972 188.692 177.059 188.842 177.118C188.992 177.178 189.156 177.208 189.322 177.207H249.924C250.089 177.207 250.253 177.176 250.403 177.117C250.552 177.058 250.684 176.973 250.788 176.866C250.893 176.76 250.967 176.635 251.006 176.502C251.045 176.369 251.048 176.23 251.014 176.096L250.073 172.4C250.034 172.249 249.95 172.109 249.829 171.992C249.708 171.874 249.553 171.784 249.379 171.729C249.253 171.689 249.118 171.668 248.983 171.668H190.259C190.124 171.668 189.989 171.689 189.863 171.729C189.689 171.784 189.535 171.874 189.413 171.992C189.292 172.109 189.208 172.249 189.169 172.4L188.228 176.096C188.195 176.23 188.198 176.368 188.237 176.501C188.277 176.634 188.351 176.759 188.456 176.865Z" fill="#F2F2F2"/>
<path d="M267.726 102.047H172.414C172.314 102.045 172.22 102.011 172.151 101.953C172.082 101.894 172.043 101.815 172.043 101.733C172.043 101.651 172.082 101.573 172.151 101.514C172.22 101.456 172.314 101.422 172.414 101.42H267.726C267.825 101.422 267.919 101.456 267.989 101.514C268.058 101.573 268.097 101.651 268.097 101.733C268.097 101.815 268.058 101.894 267.989 101.953C267.919 102.011 267.825 102.045 267.726 102.047Z" fill="#3F3D56"/>
<path d="M178.901 99.819C180.128 99.819 181.123 98.978 181.123 97.9406C181.123 96.9032 180.128 96.0623 178.901 96.0623C177.675 96.0623 176.68 96.9032 176.68 97.9406C176.68 98.978 177.675 99.819 178.901 99.819Z" fill="#3F3D56"/>
<path d="M186.575 99.819C187.802 99.819 188.796 98.978 188.796 97.9406C188.796 96.9032 187.802 96.0623 186.575 96.0623C185.348 96.0623 184.354 96.9032 184.354 97.9406C184.354 98.978 185.348 99.819 186.575 99.819Z" fill="#3F3D56"/>
<path d="M194.249 99.819C195.475 99.819 196.47 98.978 196.47 97.9406C196.47 96.9032 195.475 96.0623 194.249 96.0623C193.022 96.0623 192.027 96.9032 192.027 97.9406C192.027 98.978 193.022 99.819 194.249 99.819Z" fill="#3F3D56"/>
<path d="M263.105 96.5269H257.655C257.547 96.5289 257.444 96.5657 257.369 96.6295C257.294 96.6933 257.251 96.7789 257.251 96.8681C257.251 96.9572 257.294 97.0429 257.369 97.1066C257.444 97.1704 257.547 97.2073 257.655 97.2093H263.105C263.213 97.2081 263.317 97.1716 263.393 97.1077C263.469 97.0439 263.512 96.9578 263.512 96.8681C263.512 96.7784 263.469 96.6923 263.393 96.6284C263.317 96.5645 263.213 96.5281 263.105 96.5269Z" fill="#3F3D56"/>
<path d="M263.105 97.8083H257.655C257.547 97.8104 257.445 97.8472 257.369 97.911C257.294 97.9748 257.252 98.0604 257.252 98.1496C257.252 98.2387 257.294 98.3243 257.369 98.3881C257.445 98.4519 257.547 98.4887 257.655 98.4908H263.105C263.213 98.4895 263.317 98.453 263.393 98.3892C263.469 98.3253 263.512 98.2392 263.512 98.1496C263.512 98.0599 263.469 97.9738 263.393 97.9099C263.317 97.8461 263.213 97.8096 263.105 97.8083Z" fill="#3F3D56"/>
<path d="M263.105 99.0898H257.655C257.547 99.0919 257.444 99.1287 257.369 99.1925C257.294 99.2562 257.251 99.3419 257.251 99.4311C257.251 99.5202 257.294 99.6059 257.369 99.6696C257.444 99.7334 257.547 99.7702 257.655 99.7723H263.105C263.213 99.7711 263.317 99.7346 263.393 99.6707C263.469 99.6069 263.512 99.5208 263.512 99.4311C263.512 99.3413 263.469 99.2552 263.393 99.1914C263.317 99.1275 263.213 99.091 263.105 99.0898Z" fill="#3F3D56"/>
<path d="M231.254 119.092H215.165C214.379 119.092 213.743 119.619 213.743 120.269V121.265C213.743 121.914 214.379 122.441 215.165 122.441H231.254C232.039 122.441 232.676 121.914 232.676 121.265V120.269C232.676 119.619 232.039 119.092 231.254 119.092Z" fill="#7469B6"/>
<path d="M240.87 125.79H205.55C204.764 125.79 204.127 126.317 204.127 126.967V127.963C204.127 128.612 204.764 129.139 205.55 129.139H240.87C241.655 129.139 242.292 128.612 242.292 127.963V126.967C242.292 126.317 241.655 125.79 240.87 125.79Z" fill="#7469B6"/>
<path d="M240.87 132.488H205.55C204.764 132.488 204.127 133.015 204.127 133.665V134.661C204.127 135.311 204.764 135.837 205.55 135.837H240.87C241.655 135.837 242.292 135.311 242.292 134.661V133.665C242.292 133.015 241.655 132.488 240.87 132.488Z" fill="#7469B6"/>
<path d="M157.465 179.181C162.31 179.181 166.237 178.144 166.237 176.865C166.237 175.586 162.31 174.549 157.465 174.549C152.62 174.549 148.692 175.586 148.692 176.865C148.692 178.144 152.62 179.181 157.465 179.181Z" fill="#3F3D56"/>
<path d="M157.465 177.637C162.31 177.637 166.237 176.6 166.237 175.321C166.237 174.042 162.31 173.005 157.465 173.005C152.62 173.005 148.692 174.042 148.692 175.321C148.692 176.6 152.62 177.637 157.465 177.637Z" fill="#3F3D56"/>
<path d="M158.118 176.873L156.811 176.857L157.172 156.665C157.224 153.371 156.231 150.122 154.291 147.245C152.351 144.367 149.533 141.96 146.117 140.265L121.167 127.929L121.837 127L146.788 139.337C150.4 141.13 153.381 143.675 155.432 146.718C157.484 149.762 158.534 153.197 158.479 156.682L158.118 176.873Z" fill="#3F3D56"/>
<path d="M124.988 118.04C124.988 116.591 123.567 115.416 121.815 115.416C120.062 115.416 118.642 116.591 118.642 118.04V134.406C118.642 135.856 120.062 137.031 121.815 137.031C123.567 137.031 124.988 135.856 124.988 134.406V118.04Z" fill="#7469B6"/>
<path d="M119.594 141.541C117.087 141.538 114.683 140.719 112.9 139.261C111.118 137.803 110.101 135.823 110.07 133.75L109.962 125.457L111.269 125.446L111.377 133.738C111.393 135.006 111.839 136.244 112.663 137.313C113.487 138.382 114.656 139.239 116.038 139.786C117.421 140.333 118.961 140.549 120.484 140.41C122.007 140.27 123.453 139.78 124.657 138.995L133.553 133.198L134.361 134.048L125.466 139.845C123.795 140.941 121.726 141.538 119.594 141.541Z" fill="#3F3D56"/>
<path d="M111.922 132.245C114.087 132.245 115.842 128.719 115.842 124.371C115.842 120.022 114.087 116.497 111.922 116.497C109.757 116.497 108.002 120.022 108.002 124.371C108.002 128.719 109.757 132.245 111.922 132.245Z" fill="#3F3D56"/>
<path d="M84.2831 166.755C83.9433 164.989 83.7156 163.053 83.5663 161.027C83.2154 156.392 83.249 151.282 83.2079 146.607C83.1907 144.482 82.9873 142.162 82.7228 140.008C82.4922 138.046 81.7006 136.157 80.4135 134.497C79.1264 132.838 77.3807 131.456 75.3204 130.464C73.9177 129.793 72.6536 128.941 71.5759 127.94C70.9935 127.403 70.9226 126.162 70.8479 124.849C70.7583 123.253 70.665 121.598 69.631 120.746L69.5862 120.708L69.5265 120.69C65.185 119.495 57.8496 120.27 55.6695 120.687L55.5762 120.705L55.5165 120.767C54.6169 121.752 54.6654 123.327 54.7139 124.849C54.755 126.217 54.796 127.511 54.0644 127.9C53.497 128.203 52.952 128.49 52.4256 128.768C45.9712 132.174 42.731 133.885 40.3568 139.446C40.04 140.241 39.8898 141.076 39.9125 141.913C39.8939 142.938 39.976 143.837 39.5318 144.525C38.9233 145.47 38.3073 147.409 37.7325 150C34.7199 163.615 32.9318 195.272 40.2933 196.013C40.8682 196.072 39.696 197.026 39.2929 197.504C38.7143 198.193 38.2178 198.786 38.5052 199.24C38.6993 199.549 39.207 199.694 40.0955 199.694C43.4477 199.694 77.9071 195.51 78.8851 194.003C78.9486 193.904 78.956 194.089 78.8851 194.003C95.0415 192.258 86.4893 178.301 84.2831 166.755Z" fill="#7469B6"/>
<path d="M123.173 180.39C122.481 179.797 121.641 179.336 120.711 179.04C119.781 178.744 118.784 178.621 117.79 178.678C116.796 178.736 115.83 178.973 114.958 179.373C114.087 179.773 113.333 180.326 112.748 180.993L89.5637 175.2L93.1582 185.177L114.623 189.148C116.043 189.887 117.742 190.169 119.396 189.94C121.051 189.712 122.547 188.99 123.601 187.911C124.654 186.831 125.193 185.469 125.114 184.083C125.035 182.697 124.344 181.383 123.173 180.39Z" fill="#FFB6B6"/>
<path d="M95.1857 186.103L63.3504 181.27C63.2215 180.995 50.4409 153.628 48.8618 147.481C47.8623 143.775 48.4253 139.898 50.4572 136.493L50.5133 136.411L50.6177 136.374C52.7527 135.621 55.1342 135.492 57.3694 136.009C59.6046 136.526 61.5602 137.658 62.9136 139.217C69.3997 146.776 73.6731 155.478 75.3967 164.637L76.3697 169.848L91.5404 173.496L95.1857 186.103Z" fill="#7469B6"/>
<path d="M84.7554 112.153C82.7889 115.127 79.6563 117.459 75.8736 118.764C72.0909 120.069 67.8836 120.27 63.9447 119.333C60.0057 118.396 56.5699 116.378 54.2032 113.61C51.8364 110.842 50.6798 107.49 50.9239 104.105C51.1679 100.721 52.798 97.5063 55.5457 94.9908C58.2934 92.4752 61.9949 90.8087 66.0406 90.2656C70.0863 89.7226 74.2349 90.3355 77.8032 92.0034C81.3716 93.6712 84.1468 96.2946 85.672 99.4414C85.7546 99.6122 85.8289 99.7829 85.9032 99.9605C86.7654 101.944 87.1089 104.057 86.9111 106.158C86.7132 108.26 85.9785 110.303 84.7554 112.153Z" fill="#FFB6B6"/>
<path d="M87.3481 99.9603C86.5719 98.164 86.9105 99.0997 86.126 97.3102C86.638 98.8948 85.8288 99.7828 85.9031 99.9603H64.4258V89.6329C70.7179 87.5701 76.8696 85.8147 80.5853 89.6329C83.8965 89.633 87.0721 90.7211 89.4135 92.6578C91.7548 94.5946 93.0703 97.2214 93.0704 99.9603L87.3481 99.9603Z" fill="#2F2E41"/>
<path d="M70.0292 128.36C70.0126 128.168 69.9879 127.97 69.9548 127.779C69.6663 126.376 69.1985 125.002 68.5593 123.681C67.94 122.24 67.3125 120.792 66.685 119.35C67.4931 121.966 67.2466 124.729 65.9831 127.219C62.3581 124.883 64.1006 121.367 59.9057 119.542C48.6478 114.644 44.752 106.729 47.9011 94.5726C49.021 90.2496 55.5444 85.9265 66.9395 85.9265C78.3429 85.9265 83.426 90.6165 83.6489 100.042C69.6115 102.775 72.6797 127.403 70.0292 128.36Z" fill="#2F2E41"/>
<path d="M49.0348 95.0217C53.1505 95.0217 56.487 92.2618 56.487 88.8573C56.487 85.4528 53.1505 82.6929 49.0348 82.6929C44.919 82.6929 41.5825 85.4528 41.5825 88.8573C41.5825 92.2618 44.919 95.0217 49.0348 95.0217Z" fill="#2F2E41"/>
<path d="M45.5487 87.0659C44.2778 88.2898 42.2879 88.7656 40.4929 89.4025C37.3248 90.5521 34.5436 92.3236 32.3904 94.5634C30.2372 96.8032 28.7769 99.4436 28.1363 102.256C27.64 104.546 27.7049 106.917 26.921 109.15C26.1418 111.383 24.2123 113.574 21.4431 113.962C19.5692 114.227 17.6907 113.628 15.9281 113.037C14.9587 112.715 13.9893 112.391 13.0199 112.066C14.031 109.968 15.0407 107.869 16.0487 105.77C14.4286 107.751 12.5444 109.575 10.4317 111.207C6.95754 110.048 3.48032 108.89 0 107.731C8.56242 107.758 7.10133 100.882 9.01697 93.9836C10.0699 90.1929 19.0358 87.626 20.7938 84.0194C21.7437 82.0633 23.3512 80.3731 25.4261 79.1491C27.501 77.925 29.9564 77.2183 32.5017 77.1125C35.047 77.0068 37.5757 77.5064 39.7884 78.5523C42.0012 79.5982 43.8053 81.1466 44.9874 83.0142C46.7454 83.5936 46.7964 85.8573 45.5487 87.0659Z" fill="#2F2E41"/>
<path d="M78.9182 86.1596C79.6226 86.354 80.2047 86.7719 80.5366 87.3214C80.8684 87.8709 80.9228 88.5069 80.6878 89.0895L74.0966 105.428C73.9802 105.717 73.7963 105.983 73.5553 106.213C73.3143 106.443 73.021 106.631 72.692 106.767C72.3631 106.903 72.0051 106.984 71.6383 107.005C71.2716 107.027 70.9033 106.988 70.5546 106.892C69.8502 106.698 69.2681 106.28 68.9362 105.73C68.6043 105.181 68.55 104.545 68.785 103.962L75.3762 87.6233C75.6113 87.0407 76.1165 86.5592 76.7807 86.2847C77.445 86.0102 78.2139 85.9652 78.9182 86.1596Z" fill="white"/>
<path d="M69.9614 114.057C74.0847 114.057 77.4274 111.292 77.4274 107.882C77.4274 104.471 74.0847 101.706 69.9614 101.706C65.838 101.706 62.4954 104.471 62.4954 107.882C62.4954 111.292 65.838 114.057 69.9614 114.057Z" fill="white"/>
<path d="M69.9612 109.426C70.9921 109.426 71.8277 108.734 71.8277 107.882C71.8277 107.029 70.9921 106.338 69.9612 106.338C68.9304 106.338 68.0947 107.029 68.0947 107.882C68.0947 108.734 68.9304 109.426 69.9612 109.426Z" fill="#7469B6"/>
<path d="M177.818 257.308C178.218 258.111 178.659 258.915 179.081 259.723L178.885 259.733C178.82 259.733 178.759 259.741 178.693 259.744C175.613 259.903 172.504 259.987 169.368 259.997C169.225 260 169.085 260 168.941 260C168.941 259.993 168.946 259.989 168.946 259.982C169.268 259.994 169.587 259.924 169.859 259.781C170.132 259.638 170.345 259.43 170.469 259.184C170.594 258.938 170.624 258.666 170.556 258.405C170.487 258.144 170.324 257.907 170.087 257.726C170.044 257.592 170.018 257.499 169.978 257.369C169.991 257.339 170.006 257.311 170.022 257.282C170.347 256.648 170.891 256.107 171.586 255.728C172.282 255.348 173.097 255.147 173.93 255.15C174.763 255.153 175.576 255.359 176.268 255.743C176.96 256.127 177.499 256.671 177.818 257.308Z" fill="#F2F2F2"/>
<path d="M206.559 245.535C206.555 245.564 206.551 245.589 206.546 245.618C205.994 245.803 205.457 246.017 204.938 246.26C204.638 246.397 204.346 246.545 204.062 246.7C203.705 246.897 203.427 247.18 203.267 247.511C203.107 247.841 203.071 248.204 203.164 248.551C203.258 248.899 203.476 249.215 203.79 249.458C204.104 249.702 204.5 249.861 204.925 249.915L204.969 249.922C204.999 249.926 205.025 249.929 205.056 249.933C203.411 253.219 200.577 256.004 196.942 257.906C196.768 257.935 196.598 257.96 196.424 257.985C195.544 258.118 194.668 258.241 193.788 258.353C190.729 258.764 187.639 259.095 184.519 259.348C185.144 256.734 185.46 254.075 185.461 251.411C185.463 249.918 185.362 248.427 185.16 246.945C184.994 245.73 184.768 244.519 184.471 243.322C184.323 242.717 184.158 242.112 183.975 241.509C182.998 238.303 181.57 235.203 179.722 232.271C178.221 229.889 176.442 227.634 174.41 225.538C171.986 224.445 170.027 222.763 168.798 220.719C168.35 219.985 168.034 219.2 167.861 218.39C168.131 218.423 168.41 218.441 168.684 218.455C168.767 218.459 168.859 218.463 168.946 218.466H168.976C169.277 218.478 169.575 218.417 169.835 218.292C170.095 218.166 170.305 217.981 170.44 217.759C170.576 217.537 170.631 217.287 170.598 217.039C170.566 216.792 170.447 216.558 170.257 216.365C170.14 216.246 170.022 216.123 169.904 216.004C169.726 215.821 169.538 215.637 169.36 215.453C169.34 215.436 169.321 215.418 169.303 215.399C169.098 215.186 168.889 214.977 168.684 214.768C169.059 214.284 169.564 213.879 170.162 213.586C172.227 212.584 175.077 213.276 176.571 214.822C178.066 216.368 178.349 218.538 177.831 220.467C177.319 222.111 176.474 223.671 175.329 225.08C175.443 225.199 175.556 225.311 175.669 225.43C177.566 227.447 179.236 229.603 180.659 231.871C180.776 232.051 180.89 232.231 180.999 232.415C180.634 229.652 181.069 226.856 182.267 224.258C183.478 221.84 185.752 219.8 187.753 217.709C190.158 215.197 195.09 216.293 195.513 219.479C195.518 219.508 195.522 219.54 195.526 219.569C195.23 219.71 194.938 219.857 194.655 220.012C194.297 220.21 194.019 220.492 193.859 220.823C193.698 221.153 193.662 221.515 193.754 221.863C193.847 222.21 194.065 222.527 194.379 222.77C194.692 223.014 195.088 223.173 195.513 223.228L195.557 223.235C195.207 226.168 193.976 228.982 191.976 231.422C189.976 233.861 187.271 235.848 184.105 237.202C183.927 237.278 183.757 237.353 183.582 237.422C184.13 238.694 184.6 239.989 184.99 241.3C185.182 241.913 185.347 242.529 185.5 243.149C185.926 244.864 186.223 246.598 186.389 248.343C186.591 250.54 186.579 252.747 186.354 254.943L186.367 254.867C186.941 252.425 188.516 250.222 190.825 248.628C194.258 246.296 199.104 245.438 202.808 243.564C203.201 243.355 203.658 243.243 204.125 243.242C204.593 243.241 205.051 243.351 205.445 243.558C205.839 243.765 206.154 244.062 206.351 244.412C206.549 244.762 206.621 245.152 206.559 245.535Z" fill="#F2F2F2"/>
</g>
<defs>
<clipPath id="clip0_317_626">
<rect width="317" height="260" fill="white"/>
</clipPath>
</defs>
</svg>
