<?xml version="1.0" encoding="UTF-8" standalone="no" ?>
<!DOCTYPE svg PUBLIC "-//W3C//DTD SVG 1.1//EN" "http://www.w3.org/Graphics/SVG/1.1/DTD/svg11.dtd">
<svg xmlns="http://www.w3.org/2000/svg" xmlns:xlink="http://www.w3.org/1999/xlink" version="1.1" width="1080" height="1080" viewBox="0 0 1080 1080" xml:space="preserve">
<desc>Created with Fabric.js 5.2.4</desc>
<defs>
</defs>
<g transform="matrix(1 0 0 1 540 540)" id="1e40c4cb-9573-4e4d-abb0-a0f3ee2f980d"  >
</g>
<g transform="matrix(1 0 0 1 540 540)" id="c44bb0de-c52a-4582-8409-36ad8f1f147c"  >
<rect style="stroke: none; stroke-width: 1; stroke-dasharray: none; stroke-linecap: butt; stroke-dashoffset: 0; stroke-linejoin: miter; stroke-miterlimit: 4; fill: rgb(255,255,255); fill-rule: nonzero; opacity: 1; visibility: hidden;" vector-effect="non-scaling-stroke"  x="-540" y="-540" rx="0" ry="0" width="1080" height="1080" />
</g>
<g transform="matrix(1 0 0 1 379.56 304.14)"  >
<path style="stroke: none; stroke-width: 1; stroke-dasharray: none; stroke-linecap: butt; stroke-dashoffset: 0; stroke-linejoin: miter; stroke-miterlimit: 4; fill: rgb(160,97,106); fill-rule: nonzero; opacity: 1;" vector-effect="non-scaling-stroke"  transform=" translate(-761.81, -266.11)" d="M 738.49913 254.675 C 739.2035475124527 259.55179079170125 743.6627105234018 262.9812051121719 748.55691 262.41015 C 749.0344555681311 262.3467941927334 749.5059359760393 262.24400978474097 749.9665200000001 262.10285 L 768.9267400000001 287.55285 L 785.2255600000001 282.47565 L 755.48314 250.42038999999997 C 753.9754719501975 246.5861036091689 750.0732679926856 244.24931681872388 745.9814 244.73038999999997 C 743.6973344087389 245.02118243810457 741.622335566784 246.20740779055242 740.2128809725834 248.02810919773833 C 738.8034263783828 249.8488106049242 738.1749716176986 252.15484516552334 738.46577 254.43890999999996 Q 738.48083 254.55717 738.49913 254.675 Z" stroke-linecap="round" />
</g>
<g transform="matrix(1 0 0 1 429.74 352.72)"  >
<path style="stroke: none; stroke-width: 1; stroke-dasharray: none; stroke-linecap: butt; stroke-dashoffset: 0; stroke-linejoin: miter; stroke-miterlimit: 4; fill: rgb(230,230,230); fill-rule: nonzero; opacity: 1;" vector-effect="non-scaling-stroke"  transform=" translate(-811.98, -314.69)" d="M 872.38313 368.34158 C 872.38313 368.34158 801.5858900000001 335.30058 783.67722 314.19658000000004 L 751.5866500000001 274.35190000000006 L 767.8618100000001 261.03764000000007 L 798.0258100000001 295.7814400000001 C 797.7508100000001 303.0817600000001 833.40335 310.56630000000007 852.5696600000001 321.2075000000001 Z" stroke-linecap="round" />
</g>
<g transform="matrix(1 0 0 1 497.3 758.14)"  >
<polygon style="stroke: none; stroke-width: 1; stroke-dasharray: none; stroke-linecap: butt; stroke-dashoffset: 0; stroke-linejoin: miter; stroke-miterlimit: 4; fill: rgb(160,97,106); fill-rule: nonzero; opacity: 1;" vector-effect="non-scaling-stroke"  points="10.24,26.78 -3.64,26.78 -10.25,-26.78 10.25,-26.78 10.24,26.78 " />
</g>
<g transform="matrix(1 0 0 1 486.68 787.88)"  >
<path style="stroke: none; stroke-width: 1; stroke-dasharray: none; stroke-linecap: butt; stroke-dashoffset: 0; stroke-linejoin: miter; stroke-miterlimit: 4; fill: rgb(47,46,65); fill-rule: nonzero; opacity: 1;" vector-effect="non-scaling-stroke"  transform=" translate(-868.93, -749.85)" d="M 890.27817 761.386 L 847.5748500000001 761.3843899999999 L 847.5748500000001 760.84434 C 847.5754905807167 751.6649458524168 855.0167758435196 744.2237769903674 864.19617 744.2232799999999 L 864.19717 744.2232799999999 L 871.99747 738.3055599999999 L 886.5511300000001 744.2241799999999 L 890.27885 744.22431 Z" stroke-linecap="round" />
</g>
<g transform="matrix(1 0 0 1 458.37 748.17)"  >
<polygon style="stroke: none; stroke-width: 1; stroke-dasharray: none; stroke-linecap: butt; stroke-dashoffset: 0; stroke-linejoin: miter; stroke-miterlimit: 4; fill: rgb(160,97,106); fill-rule: nonzero; opacity: 1;" vector-effect="non-scaling-stroke"  points="16.06,24.5 2.54,27.66 -16.06,-23 3.9,-27.66 16.06,24.5 " />
</g>
<g transform="matrix(1 0 0 1 457.13 782.36)"  >
<path style="stroke: none; stroke-width: 1; stroke-dasharray: none; stroke-linecap: butt; stroke-dashoffset: 0; stroke-linejoin: miter; stroke-miterlimit: 4; fill: rgb(47,46,65); fill-rule: nonzero; opacity: 1;" vector-effect="non-scaling-stroke"  transform=" translate(-839.38, -744.33)" d="M 860.45118 748.64433 L 818.8645300000001 758.3461 L 818.7418200000001 757.82017 C 816.6566418091297 748.8807463348767 822.2124450537099 739.9433670404773 831.1516100000001 737.85708 L 831.1526100000001 737.85684 L 837.4042100000001 730.3214800000001 L 852.922 732.7783 L 856.55223 731.93139 Z" stroke-linecap="round" />
</g>
<g transform="matrix(1 0 0 1 479.42 640.77)"  >
<path style="stroke: none; stroke-width: 1; stroke-dasharray: none; stroke-linecap: butt; stroke-dashoffset: 0; stroke-linejoin: miter; stroke-miterlimit: 4; fill: rgb(47,46,65); fill-rule: nonzero; opacity: 1;" vector-effect="non-scaling-stroke"  transform=" translate(-861.65, -602.74)" d="M 901.82164 486.821 L 815.41983 491.15171000000004 L 809.41983 520.1517100000001 L 809.41983 545.9823000000001 L 805.7373600000001 642.1595800000001 L 831.41983 717.1517100000001 L 852.01038 717.1517100000001 L 849.91983 707.6517100000001 L 849.91983 707.6517100000001 C 852.2554698289186 704.3853865476348 852.3900222079621 700.0327102724598 850.2605900000001 696.62836 L 848.6088100000001 693.9876300000001 L 845.9198100000001 682.6517200000001 L 839.9198100000001 640.6517200000001 L 865.6166600000001 545.9823100000001 L 868.9198100000001 718.6517200000001 L 891.2885900000001 718.6517200000001 L 894.5694600000002 714.90457 C 898.315582392273 710.6260544526526 898.7224304952792 704.3653531932977 895.5615500000001 699.6379900000001 L 895.5615500000001 699.6379900000001 L 895.5615500000001 695.45099 L 892.9198200000001 680.65178 L 917.57252 496.94315000000006 Z" stroke-linecap="round" />
</g>
<g transform="matrix(1 0 0 1 476.17 451.43)"  >
<path style="stroke: none; stroke-width: 0; stroke-dasharray: none; stroke-linecap: butt; stroke-dashoffset: 0; stroke-linejoin: miter; stroke-miterlimit: 4; fill: rgb(230,230,230); fill-rule: nonzero; opacity: 1;" vector-effect="non-scaling-stroke"  transform=" translate(-858.9, -413.9)" d="M 864.4892 306.7949 L 836.30465 308.2383 L 833.10274 321.59677999999997 L 812.63522 337.26077999999995 C 803.1957398066195 344.4849132140663 798.672439909273 356.4390720788918 800.96511 368.10249999999996 L 812.31035 425.819 L 811.5725299999999 461.94305 L 813.2096499999999 476.73559 L 813.0858999999999 478.97505 L 810.57963 481.02638 C 807.06787209194 483.9006677813393 806.0180765019538 488.82547689520135 808.05243 492.882 L 808.05243 492.882 C 808.05243 492.882 795.7016 519.58477 813.5725199999999 520.943 C 831.4434399999999 522.3012299999999 842.49726 503.71859 859.5725199999999 510.943 C 876.6477799999999 518.16741 891.8915199999999 519.0139 896.5725199999999 510.943 C 901.25352 502.87209999999993 915.4946199999999 504.75324 917.2072199999999 497.70243 C 918.9198199999998 490.65162 910.24912 482.67054 909.0844699999999 472.16109 C 907.9198199999998 461.65164 904.9198199999998 412.65163 904.9198199999998 412.65163 L 913.3096399999998 364.54453 C 915.7498250397214 350.5525152373715 908.6356917405675 336.6345911113083 895.8655499999999 330.41732 L 869.0046699999999 317.33985 Z" stroke-linecap="round" />
</g>
<g transform="matrix(1 0 0 1 364.98 489.55)"  >
<path style="stroke: none; stroke-width: 1; stroke-dasharray: none; stroke-linecap: butt; stroke-dashoffset: 0; stroke-linejoin: miter; stroke-miterlimit: 4; fill: rgb(160,97,106); fill-rule: nonzero; opacity: 1;" vector-effect="non-scaling-stroke"  transform=" translate(-747.22, -451.51)" d="M 717.70434 457.41566 C 720.0612452553024 452.32890570244945 726.0396676491481 450.04337617901353 731.18885 452.26058 C 731.6887910949695 452.48523890070516 732.1692724683155 452.75090644812616 732.62537 453.05486 L 761.58663 431.48917 L 777.7 442.33457 L 734.83267 467.58756999999997 C 731.9398137299812 471.2761646777002 726.9245478318289 472.55209234745246 722.62067 470.69440999999995 C 720.225519336196 469.6331935358323 718.350035802715 467.6639699140909 717.4068060871693 465.21994765767573 C 716.4635763716236 462.7759254012606 716.5298652985649 460.05730701411096 717.59109 457.66216 Q 717.646 457.53815 717.70434 457.41566 Z" stroke-linecap="round" />
</g>
<g transform="matrix(1 0 0 1 399.34 444.34)"  >
<path style="stroke: none; stroke-width: 1; stroke-dasharray: none; stroke-linecap: butt; stroke-dashoffset: 0; stroke-linejoin: miter; stroke-miterlimit: 4; fill: rgb(230,230,230); fill-rule: nonzero; opacity: 1;" vector-effect="non-scaling-stroke"  transform=" translate(-781.59, -406.31)" d="M 807.68879 343.6834 C 807.68879 343.6834 770.14693 412.04234 755.6088500000001 432.14799 L 744.57253 440.76787 L 745.57253 468.94306 L 770.234 455.33429 C 770.234 455.33429 819.99936 417.63839 818.5725100000001 401.94306 C 817.1456600000001 386.24773 807.68879 343.6834 807.68879 343.6834 Z" stroke-linecap="round" />
</g>
<g transform="matrix(1 0 0 1 465.76 315.93)"  >
<circle style="stroke: none; stroke-width: 1; stroke-dasharray: none; stroke-linecap: butt; stroke-dashoffset: 0; stroke-linejoin: miter; stroke-miterlimit: 4; fill: rgb(160,97,106); fill-rule: nonzero; opacity: 1;" vector-effect="non-scaling-stroke"  cx="0" cy="0" r="26.63173" />
</g>
<g transform="matrix(1 0 0 1 464.05 310.48)"  >
<path style="stroke: none; stroke-width: 1; stroke-dasharray: none; stroke-linecap: butt; stroke-dashoffset: 0; stroke-linejoin: miter; stroke-miterlimit: 4; fill: rgb(47,46,65); fill-rule: nonzero; opacity: 1;" vector-effect="non-scaling-stroke"  transform=" translate(-846.29, -272.45)" d="M 858.29571 302.35513 C 850.6534 302.10438999999997 849.95918 300.08576999999997 842.31688 299.83502999999996 C 839.8834899999999 299.75518999999997 837.01199 299.42168 835.8355399999999 297.29002999999994 C 834.9976399999999 295.77183999999994 835.3831999999999 293.86002999999994 836.1206199999999 292.2905999999999 C 836.9926588682107 290.7927812952599 837.778701145958 289.2465218733218 838.47493 287.65932999999995 C 839.326392936933 285.1324521566816 838.8778406726833 282.3482766492035 837.2758593882991 280.2166676952659 C 835.673878103915 278.0850587413284 833.124291310679 276.8798867312148 830.4603 276.99499999999995 C 828.13463 277.09549999999996 825.9504499999999 278.18916999999993 823.63121 278.38899999999995 C 820.45053 278.66313999999994 813.41721 268.16132999999996 814.88161 265.32453 C 816.30708 262.56318 819.17577 260.47983 819.62661 257.40513999999996 C 819.92151 255.39413999999996 819.0914 253.39601999999996 818.97797 251.36668999999995 C 818.80979 248.35774999999995 826.4371100000001 255.14225999999994 825.04025 252.47189999999995 C 821.61369 245.92135999999994 853.90346 237.80041999999995 859.21943 246.00556999999995 C 861.20622 249.07217999999995 864.74699 248.86300999999995 867.90291 250.70469999999995 C 869.97133 251.91175999999996 875.1943200000001 256.0760399999999 876.38171 258.67157999999995 C 877.4727574313612 261.3200300326699 877.9883060784684 264.17016740416767 877.89417 267.03299999999996 C 877.94194 280.34725 875.9135200000001 292.59430999999995 865.17417 300.46435999999994" stroke-linecap="round" />
</g>
<g transform="matrix(1 0 0 1 321.52 761.35)"  >
<path style="stroke: none; stroke-width: 1; stroke-dasharray: none; stroke-linecap: butt; stroke-dashoffset: 0; stroke-linejoin: miter; stroke-miterlimit: 4; fill: rgb(242,242,242); fill-rule: nonzero; opacity: 1;" vector-effect="non-scaling-stroke"  transform=" translate(-703.76, -723.32)" d="M 725.52515 755.25331 C 710.8997101450796 756.5423470161221 696.4738215300079 751.1608976861504 686.26591 740.608 C 679.67538 733.65946 675.15269 724.7156699999999 670.77883 716.0663699999999 C 669.50563 713.5494499999999 668.1895499999999 710.9466699999999 666.85063 708.4521199999999 C 663.7966545393369 702.8881130015762 664.4348023803451 696.0258203201574 668.4623700000001 691.1203499999999 C 672.3220405505175 686.2162084101493 678.7772244884352 684.1537844670721 684.7653700000001 685.9115599999999 L 685.4035900000001 686.0959299999998 L 691.1477500000001 708.5100399999999 C 692.0046900000001 705.1667999999999 693.8440600000001 697.6341199999999 695.0055900000001 690.2539199999999 L 695.1031700000001 689.6357799999998 L 695.6751700000001 689.8905299999998 C 701.672961146664 692.5444002683463 707.3127279026329 695.9429128977449 712.4614000000001 700.0058799999998 C 730.9220333968261 714.8135753138456 741.9346648777884 736.9919798874012 742.57359 760.649 L 742.58879 761.346 Z" stroke-linecap="round" />
</g>
<g transform="matrix(1 0 0 1 540 798.95)"  >
<path style="stroke: none; stroke-width: 1; stroke-dasharray: none; stroke-linecap: butt; stroke-dashoffset: 0; stroke-linejoin: miter; stroke-miterlimit: 4; fill: rgb(202,202,202); fill-rule: nonzero; opacity: 1;" vector-effect="non-scaling-stroke"  transform=" translate(-805.4, -761.81)" d="M 944.77282 762.84377 L 666.02282 763.1510999999999 C 665.3665699812349 763.1491981715288 664.8355806340088 762.6166677745318 664.8355806340088 761.960415 C 664.8355806340088 761.3041622254681 665.3665699812349 760.7716318284711 666.02282 760.76973 L 944.77282 760.4624 C 945.199032744925 760.4611648251279 945.5933991018956 760.6878375847417 945.8068628345317 761.0567441643016 C 946.0203265671679 761.4256507438614 946.0203265671679 761.8805192561385 945.8068628345317 762.2494258356984 C 945.5933991018956 762.6183324152582 945.199032744925 762.8450051748721 944.77282 762.84377 Z" stroke-linecap="round" />
</g>
<g transform="matrix(1 0 0 1 313.2 624.14)"  >
<path style="stroke: none; stroke-width: 1; stroke-dasharray: none; stroke-linecap: butt; stroke-dashoffset: 0; stroke-linejoin: miter; stroke-miterlimit: 4; fill: rgb(255,255,255); fill-rule: nonzero; opacity: 1;" vector-effect="non-scaling-stroke"  transform=" translate(-490.04, -533.27)" d="M 500.36 530.685 L 479.71283 530.685 C 478.28942460624154 530.6878018420538 477.13701025343966 531.8424868486605 477.13701025343966 533.2658949999999 C 477.13701025343966 534.6893031513393 478.28942460624154 535.8439881579461 479.71283 535.8467899999999 L 500.36 535.8467899999999 C 501.78538894941454 535.8467899999999 502.940895 534.6912839494145 502.940895 533.265895 C 502.940895 531.8405060505854 501.78538894941454 530.685 500.36 530.685 Z" stroke-linecap="round" />
</g>
</svg>