<svg width="317" height="241" viewBox="0 0 317 241" fill="none" xmlns="http://www.w3.org/2000/svg">
<g clip-path="url(#clip0_317_714)">
<path d="M295.391 235.438C294.982 236.98 294.473 238.462 293.871 239.863C293.703 240.25 293.527 240.63 293.34 241H277.806C277.697 240.881 277.592 240.755 277.482 240.636C276.937 240.574 276.395 240.494 275.864 240.409C275.919 240.34 275.977 240.272 276.032 240.204C275.751 240.238 275.471 240.272 275.19 240.289C275.412 240.329 275.638 240.369 275.864 240.409C275.697 240.608 275.525 240.807 275.35 241H274.671L275.127 240.289C274.765 240.306 274.406 240.318 274.043 240.306L275.178 239.863L276.402 239.385C276.449 239.442 276.5 239.499 276.547 239.556C278.636 236.877 280.335 233.614 281.543 229.959C282.75 226.303 283.441 222.332 283.575 218.279C283.709 214.227 283.283 210.176 282.322 206.369C281.361 202.561 279.885 199.075 277.982 196.116C281.045 199.114 283.67 202.972 285.701 207.464C287.733 211.955 289.131 216.992 289.816 222.28C290.167 224.865 290.22 227.517 289.971 230.127C290.108 229.906 290.244 229.684 290.377 229.456C292.352 225.967 293.775 221.886 294.546 217.504C295.317 213.121 295.417 208.545 294.838 204.1C296.35 209.009 297.177 214.308 297.273 219.688C297.368 225.068 296.728 230.422 295.391 235.438Z" fill="#E6E6E6"/>
<path d="M217.9 45.2452C223.947 45.2452 228.85 38.0957 228.85 29.2763C228.85 20.4569 223.947 13.3074 217.9 13.3074C211.853 13.3074 206.951 20.4569 206.951 29.2763C206.951 38.0957 211.853 45.2452 217.9 45.2452Z" fill="#2F2E41"/>
<path d="M253.408 234.344L248.627 234.343L246.353 207.452L253.409 207.453L253.408 234.344Z" fill="#FFB8B8"/>
<path d="M245.213 232.351H254.432V240.817H239.408C239.408 239.705 239.558 238.604 239.85 237.577C240.142 236.55 240.569 235.617 241.108 234.831C241.647 234.045 242.287 233.421 242.991 232.996C243.696 232.57 244.451 232.351 245.213 232.351Z" fill="#2F2E41"/>
<path d="M204.644 233.431L200.029 231.616L202.632 204.789L209.444 207.468L204.644 233.431Z" fill="#FFB8B8"/>
<path d="M197.088 228.396L205.989 231.897L204.478 240.07L189.972 234.366C190.373 232.198 191.348 230.352 192.682 229.232C194.017 228.113 195.601 227.812 197.088 228.396Z" fill="#2F2E41"/>
<path d="M213.703 109.919L199.469 227.557L206.768 229.686L229.762 146.648L246.916 229.154L255.676 227.557C255.676 227.557 251.661 109.387 238.887 99.2734L213.703 109.919Z" fill="#2F2E41"/>
<path d="M191.128 152.002C191.642 151.63 192.093 151.098 192.45 150.444C192.806 149.789 193.061 149.029 193.194 148.216C193.328 147.403 193.338 146.557 193.223 145.738C193.109 144.919 192.872 144.147 192.531 143.476L200.381 126.687L193.141 126.523L186.796 142.491C186.061 143.402 185.58 144.676 185.446 146.069C185.311 147.463 185.532 148.88 186.066 150.053C186.6 151.225 187.41 152.071 188.343 152.43C189.276 152.79 190.267 152.637 191.128 152.002Z" fill="#FFB8B8"/>
<path d="M242.956 131.243C243.469 130.87 243.92 130.338 244.277 129.684C244.634 129.03 244.888 128.27 245.022 127.457C245.156 126.644 245.166 125.798 245.051 124.979C244.936 124.16 244.7 123.387 244.358 122.716L252.208 105.927L244.969 105.763L238.624 121.731C237.889 122.643 237.408 123.916 237.273 125.31C237.139 126.704 237.359 128.121 237.893 129.293C238.427 130.466 239.238 131.312 240.171 131.671C241.104 132.03 242.095 131.878 242.956 131.243Z" fill="#FFB8B8"/>
<path d="M218.179 48.4068C223.468 48.4068 227.755 42.1537 227.755 34.44C227.755 26.7263 223.468 20.4731 218.179 20.4731C212.89 20.4731 208.602 26.7263 208.602 34.44C208.602 42.1537 212.89 48.4068 218.179 48.4068Z" fill="#FFB8B8"/>
<path d="M238.887 56.1574C238.522 54.0282 232.317 54.5605 232.317 54.5605C232.317 54.5605 225.33 52.2179 225.396 52.5108C219.509 51.8499 212.327 55.0735 211.281 55.5624C209.141 56.4235 205.052 59.0575 202.103 60.9949C201.693 61.2647 201.372 61.7598 201.21 62.3727C201.049 62.9856 201.06 63.6667 201.241 64.2678L210.236 94.2166L211.513 113.645L241.077 100.338C233.777 96.0797 239.252 58.2865 238.887 56.1574Z" fill="#7469B6"/>
<path d="M236.332 56.6896L238.758 55.8008L252.026 93.9504L252.756 115.775L244.361 106.194V97.6768L235.602 81.1755L236.332 56.6896Z" fill="#7469B6"/>
<path d="M204.396 59.6174L201.586 61.4386C201.44 61.5334 201.312 61.6792 201.213 61.8632C201.115 62.0473 201.049 62.2638 201.021 62.4938L195.454 108.855L189.979 132.276L197.279 137.599L205.673 108.323L208.593 87.0308L204.396 59.6174Z" fill="#7469B6"/>
<path d="M208.136 27.856C210.079 26.9252 212.13 28.3844 214.029 29.4953C215.9 30.5901 217.899 31.379 219.912 31.2065C221.925 31.0341 223.96 29.7944 225.177 27.4498C226.394 25.1052 226.608 21.5913 225.404 19.2332C224.611 17.6809 223.346 16.7952 222.078 16.2184C219.371 14.9861 216.342 14.9436 213.768 16.6821C211.195 18.4205 209.177 22.0932 208.965 26.2176" fill="#2F2E41"/>
<path d="M217.609 16.7308C216.956 10.2844 219.377 3.59133 222.682 1.19034C225.986 -1.21066 229.863 0.205708 232.84 3.78109C235.817 7.35648 237.987 12.8508 239.602 18.6913C241.217 24.5317 242.336 30.7873 243.652 36.8785C244.821 42.2882 246.193 47.7011 248.412 51.8385C250.632 55.9759 253.86 58.6682 256.953 57.5315C254.412 62.5144 249.737 61.6516 246.837 57.3894C243.937 53.1273 242.429 46.4654 241.242 39.9807C240.055 33.496 239.023 26.711 236.727 21.3372C232.642 11.7773 224.627 8.90513 218.903 14.9504" fill="#2F2E41"/>
<path d="M317 239.863H0V241H317V239.863Z" fill="#3F3D56"/>
<path d="M166.314 130.742H27.963C26.8552 130.74 25.7932 130.097 25.0098 128.955C24.2265 127.812 23.7859 126.263 23.7847 124.648V76.5741C23.7859 74.9584 24.2265 73.4095 25.0098 72.267C25.7932 71.1246 26.8552 70.482 27.963 70.4802H166.314C167.422 70.482 168.484 71.1246 169.267 72.267C170.05 73.4095 170.491 74.9584 170.492 76.5741V124.648C170.491 126.263 170.05 127.812 169.267 128.955C168.484 130.097 167.422 130.74 166.314 130.742ZM27.963 71.8344C27.1015 71.8359 26.2754 72.3358 25.6662 73.2243C25.057 74.1128 24.7142 75.3175 24.7132 76.5741V124.648C24.7142 125.904 25.057 127.109 25.6662 127.997C26.2754 128.886 27.1015 129.386 27.963 129.387H166.314C167.175 129.386 168.001 128.886 168.611 127.997C169.22 127.109 169.563 125.904 169.564 124.648V76.5741C169.563 75.3175 169.22 74.1128 168.611 73.2243C168.001 72.3358 167.175 71.8359 166.314 71.8344H27.963Z" fill="#3F3D56"/>
<path d="M159.582 120.585H34.6951C34.634 120.585 34.5735 120.568 34.517 120.534C34.4605 120.5 34.4092 120.45 34.3659 120.388C34.3227 120.325 34.2884 120.25 34.265 120.168C34.2415 120.085 34.2295 119.997 34.2295 119.908C34.2295 119.819 34.2415 119.731 34.265 119.648C34.2884 119.566 34.3227 119.491 34.3659 119.429C34.4092 119.366 34.4605 119.316 34.517 119.282C34.5735 119.248 34.634 119.231 34.6951 119.231H159.582C159.643 119.231 159.704 119.248 159.76 119.282C159.817 119.316 159.868 119.366 159.911 119.429C159.955 119.491 159.989 119.566 160.012 119.648C160.036 119.731 160.048 119.819 160.048 119.908C160.048 119.997 160.036 120.085 160.012 120.168C159.989 120.25 159.955 120.325 159.911 120.388C159.868 120.45 159.817 120.5 159.76 120.534C159.704 120.568 159.643 120.585 159.582 120.585Z" fill="#E6E6E6"/>
<path d="M47.9267 98.241H37.7129C37.59 98.2415 37.4723 98.3131 37.3855 98.44C37.2987 98.5669 37.25 98.7389 37.25 98.9181C37.25 99.0973 37.2987 99.2692 37.3855 99.3962C37.4723 99.5231 37.59 99.5947 37.7129 99.5952H42.3556V111.568C42.3474 112.436 42.5664 113.275 42.968 113.916C43.3696 114.556 43.9235 114.949 44.5169 115.015C44.5459 115.017 44.5758 115.018 44.6062 115.018C44.9711 115.008 45.329 114.868 45.6487 114.611C45.9684 114.354 46.2403 113.988 46.441 113.543C46.5147 113.399 46.5462 113.219 46.5287 113.041C46.5112 112.864 46.4461 112.704 46.3477 112.596C46.2493 112.489 46.1257 112.442 46.0039 112.468C45.8822 112.493 45.7723 112.588 45.6984 112.731C45.5801 113.018 45.4124 113.255 45.212 113.418C45.0116 113.581 44.7854 113.665 44.5559 113.662C44.2011 113.614 43.8722 113.371 43.636 112.982C43.3997 112.593 43.2739 112.087 43.2841 111.568V99.5951H47.9267C47.9878 99.5954 48.0483 99.5781 48.1048 99.5442C48.1613 99.5103 48.2127 99.4604 48.2559 99.3975C48.2992 99.3346 48.3335 99.2599 48.3569 99.1776C48.3803 99.0953 48.3924 99.0071 48.3924 98.9181C48.3924 98.829 48.3803 98.7408 48.3569 98.6585C48.3335 98.5762 48.2992 98.5015 48.2559 98.4386C48.2127 98.3757 48.1613 98.3259 48.1048 98.2919C48.0483 98.258 47.9878 98.2407 47.9267 98.241Z" fill="#7469B6"/>
<path d="M82.7463 157.148C84.7976 157.148 86.4605 154.723 86.4605 151.731C86.4605 148.74 84.7976 146.314 82.7463 146.314C80.6951 146.314 79.0322 148.74 79.0322 151.731C79.0322 154.723 80.6951 157.148 82.7463 157.148Z" fill="#E6E6E6"/>
<path d="M97.1384 157.148C99.1897 157.148 100.853 154.723 100.853 151.731C100.853 148.74 99.1897 146.314 97.1384 146.314C95.0872 146.314 93.4243 148.74 93.4243 151.731C93.4243 154.723 95.0872 157.148 97.1384 157.148Z" fill="#7469B6"/>
<path d="M111.531 157.148C113.582 157.148 115.245 154.723 115.245 151.731C115.245 148.74 113.582 146.314 111.531 146.314C109.479 146.314 107.816 148.74 107.816 151.731C107.816 154.723 109.479 157.148 111.531 157.148Z" fill="#E6E6E6"/>
<path d="M50.0943 114.512C50.2459 114.505 50.3895 114.411 50.4949 114.252C50.6003 114.093 50.6592 113.881 50.6592 113.659C50.6592 113.438 50.6003 113.226 50.4949 113.066C50.3895 112.907 50.2459 112.814 50.0943 112.806C49.9426 112.814 49.799 112.907 49.6936 113.066C49.5882 113.226 49.5293 113.438 49.5293 113.659C49.5293 113.881 49.5882 114.093 49.6936 114.252C49.799 114.411 49.9426 114.505 50.0943 114.512Z" fill="#3F3D56"/>
<path d="M53.8086 114.512C53.9602 114.505 54.1039 114.411 54.2093 114.252C54.3147 114.093 54.3736 113.881 54.3736 113.659C54.3736 113.438 54.3147 113.226 54.2093 113.066C54.1039 112.907 53.9602 112.814 53.8086 112.806C53.657 112.814 53.5134 112.907 53.408 113.066C53.3026 113.226 53.2437 113.438 53.2437 113.659C53.2437 113.881 53.3026 114.093 53.408 114.252C53.5134 114.411 53.657 114.505 53.8086 114.512Z" fill="#3F3D56"/>
<path d="M57.5225 114.512C57.6741 114.505 57.8177 114.411 57.9231 114.252C58.0285 114.093 58.0874 113.881 58.0874 113.659C58.0874 113.438 58.0285 113.226 57.9231 113.066C57.8177 112.907 57.6741 112.814 57.5225 112.806C57.3709 112.814 57.2272 112.907 57.1218 113.066C57.0164 113.226 56.9575 113.438 56.9575 113.659C56.9575 113.881 57.0164 114.093 57.1218 114.252C57.2272 114.411 57.3709 114.505 57.5225 114.512Z" fill="#3F3D56"/>
</g>
<defs>
<clipPath id="clip0_317_714">
<rect width="317" height="241" fill="white"/>
</clipPath>
</defs>
</svg>
