<svg width="317" height="260" viewBox="0 0 317 260" fill="none" xmlns="http://www.w3.org/2000/svg">
<g clip-path="url(#clip0_317_673)">
<path d="M97.9795 243.407L98.3189 237.002C101.857 235.414 105.803 234.576 109.815 234.559C104.294 238.348 104.984 245.651 101.24 250.746C100.058 252.328 98.4673 253.666 96.5854 254.661C94.7035 255.656 92.5788 256.284 90.3688 256.496L85.7482 258.87C85.1142 255.904 85.254 252.857 86.1579 249.941C87.0619 247.024 88.7085 244.306 90.9844 241.975C92.2766 240.678 93.7583 239.522 95.3945 238.536C96.5011 240.985 97.9795 243.407 97.9795 243.407Z" fill="#F2F2F2"/>
<path d="M288.971 150.082C301.428 142.119 307.378 128.737 303.653 115.972C303.561 115.655 303.463 115.338 303.36 115.022C300.891 107.445 294.781 100.243 285.877 97.8223C278.4 95.7894 270.239 97.3527 262.439 96.5442C247.128 94.9573 235.257 84.5595 226.904 73.6729C218.552 62.7863 212.132 50.6003 201.033 41.6064C182.739 26.7814 152.896 23.5896 130.213 33.2396C107.53 42.8895 93.0817 64.2988 93.6979 85.6357C94.3141 106.973 109.407 127.372 131.325 138.196C139.376 142.172 148.689 144.988 157.957 144.003C165.999 143.148 173.306 139.521 181.31 138.444C193.893 136.752 206.397 141.527 217.281 147.091C228.165 152.656 238.679 159.252 251.047 161.831C263.057 164.336 277.936 157.136 288.971 150.082Z" fill="#F2F2F2"/>
<path d="M190.403 54.793H66.2995C63.7113 54.7955 61.2299 55.6595 59.3998 57.1955C57.5696 58.7315 56.5401 60.8141 56.5371 62.9863V114.825C56.5401 116.998 57.5696 119.08 59.3998 120.616C61.2299 122.152 63.7113 123.016 66.2995 123.019H190.403C192.991 123.017 195.473 122.153 197.303 120.617C199.134 119.081 200.163 116.998 200.165 114.825V62.9863C200.163 60.8139 199.134 58.7309 197.303 57.1948C195.473 55.6586 192.991 54.7948 190.403 54.793Z" fill="white"/>
<path d="M190.403 123.423H66.3016C63.586 123.42 60.9826 122.514 59.0624 120.902C57.1423 119.29 56.0622 117.105 56.0591 114.826V62.9857C56.0622 60.7066 57.1423 58.5216 59.0624 56.9101C60.9826 55.2985 63.586 54.392 66.3016 54.3894H190.403C193.119 54.392 195.722 55.2985 197.642 56.9101C199.562 58.5216 200.643 60.7066 200.646 62.9857V114.826C200.643 117.105 199.562 119.29 197.642 120.902C195.722 122.514 193.119 123.42 190.403 123.423ZM66.3016 55.195C63.8406 55.1974 61.4811 56.019 59.7409 57.4795C58.0007 58.94 57.0218 60.9202 57.019 62.9857V114.826C57.0218 116.892 58.0007 118.872 59.7409 120.333C61.4811 121.793 63.8406 122.615 66.3016 122.617H190.403C192.864 122.615 195.224 121.793 196.964 120.333C198.704 118.872 199.683 116.892 199.686 114.826V62.9857C199.683 60.9202 198.704 58.94 196.964 57.4795C195.224 56.019 192.864 55.1974 190.403 55.195H66.3016Z" fill="#CCCCCC"/>
<path d="M196.112 137.754H77.1831C76.1552 137.754 75.1693 137.411 74.4424 136.801C73.7155 136.191 73.3071 135.363 73.3071 134.501C73.3071 133.638 73.7155 132.81 74.4424 132.2C75.1693 131.59 76.1552 131.248 77.1831 131.248H196.112C197.14 131.248 198.126 131.59 198.852 132.2C199.579 132.81 199.988 133.638 199.988 134.501C199.988 135.363 199.579 136.191 198.852 136.801C198.126 137.411 197.14 137.754 196.112 137.754Z" fill="#E6E6E6"/>
<path d="M115.309 106.733C114.605 106.732 113.912 106.58 113.296 106.293C112.637 105.995 112.088 105.552 111.706 105.011C111.325 104.47 111.127 103.852 111.133 103.224V74.2922C111.133 73.6649 111.333 73.0491 111.714 72.5091C112.095 71.9692 112.641 71.525 113.296 71.2229C113.951 70.9208 114.691 70.7719 115.438 70.7918C116.185 70.8117 116.912 70.9997 117.543 71.336L150.243 85.8018C150.836 86.118 151.324 86.5547 151.662 87.0715C152.001 87.5883 152.178 88.1684 152.178 88.758C152.178 89.3476 152.001 89.9277 151.662 90.4445C151.324 90.9612 150.836 91.398 150.243 91.7141L117.543 106.18C116.876 106.539 116.101 106.731 115.309 106.733Z" fill="#F2F2F2"/>
<path d="M307.343 92.3089H255.482C254.401 92.3079 253.364 91.9469 252.599 91.305C251.834 90.6631 251.404 89.7927 251.403 88.885V67.2213C251.404 66.3136 251.834 65.4432 252.599 64.8013C253.364 64.1594 254.401 63.7984 255.482 63.7974H307.343C308.425 63.7984 309.462 64.1594 310.226 64.8013C310.991 65.4432 311.421 66.3136 311.423 67.2213V88.885C311.421 89.7927 310.991 90.6631 310.226 91.305C309.462 91.9469 308.425 92.3079 307.343 92.3089Z" fill="white"/>
<path d="M307.343 92.7117H255.482C254.274 92.7106 253.115 92.307 252.26 91.5896C251.405 90.8722 250.924 89.8995 250.923 88.8849V67.2213C250.924 66.2068 251.405 65.2341 252.26 64.5166C253.115 63.7992 254.274 63.3957 255.482 63.3945H307.343C308.552 63.3957 309.711 63.7992 310.566 64.5166C311.421 65.2341 311.901 66.2068 311.903 67.2213V88.8849C311.901 89.8995 311.421 90.8722 310.566 91.5896C309.711 92.307 308.552 92.7106 307.343 92.7117ZM255.482 64.2002C254.528 64.201 253.613 64.5196 252.938 65.086C252.263 65.6524 251.884 66.4203 251.883 67.2213V88.8849C251.884 89.6859 252.263 90.4539 252.938 91.0203C253.613 91.5866 254.528 91.9052 255.482 91.9061H307.343C308.298 91.9052 309.213 91.5866 309.887 91.0203C310.562 90.4539 310.942 89.6859 310.943 88.8849V67.2213C310.942 66.4203 310.562 65.6524 309.887 65.086C309.213 64.5196 308.298 64.201 307.343 64.2002H255.482Z" fill="#CCCCCC"/>
<path d="M298.823 102.91H263.888C262.86 102.909 261.876 102.566 261.15 101.956C260.424 101.346 260.016 100.519 260.016 99.6566C260.016 98.7945 260.424 97.9676 261.15 97.3576C261.876 96.7477 262.86 96.4045 263.888 96.4036H298.823C299.851 96.4036 300.837 96.7463 301.564 97.3564C302.291 97.9664 302.699 98.7939 302.699 99.6566C302.699 100.519 302.291 101.347 301.564 101.957C300.837 102.567 299.851 102.91 298.823 102.91Z" fill="#E6E6E6"/>
<path d="M275.836 85.7627C275.542 85.762 275.252 85.6987 274.995 85.5788C274.719 85.4542 274.49 85.2689 274.33 85.0429C274.171 84.8169 274.088 84.5587 274.091 84.2961V72.206C274.091 71.9438 274.175 71.6865 274.334 71.4608C274.493 71.2352 274.721 71.0496 274.995 70.9233C275.268 70.7971 275.578 70.7348 275.89 70.7432C276.202 70.7515 276.506 70.83 276.769 70.9706L290.434 77.0157C290.682 77.1478 290.886 77.3303 291.028 77.5463C291.169 77.7622 291.243 78.0046 291.243 78.251C291.243 78.4974 291.169 78.7399 291.028 78.9558C290.886 79.1718 290.682 79.3543 290.434 79.4864L276.769 85.5315C276.491 85.6817 276.167 85.7619 275.836 85.7627Z" fill="#7469B6"/>
<path d="M274.226 185.504H222.365C221.283 185.503 220.247 185.142 219.482 184.5C218.717 183.858 218.287 182.988 218.285 182.08V160.416C218.287 159.509 218.717 158.638 219.482 157.996C220.246 157.355 221.283 156.993 222.365 156.992H274.226C275.307 156.993 276.344 157.355 277.109 157.996C277.874 158.638 278.304 159.509 278.305 160.416V182.08C278.304 182.988 277.874 183.858 277.109 184.5C276.344 185.142 275.307 185.503 274.226 185.504Z" fill="white"/>
<path d="M274.226 185.907H222.365C221.156 185.906 219.997 185.502 219.142 184.785C218.288 184.067 217.807 183.095 217.805 182.08V160.416C217.807 159.402 218.288 158.429 219.142 157.712C219.997 156.994 221.156 156.591 222.365 156.59H274.226C275.435 156.591 276.594 156.994 277.448 157.712C278.303 158.429 278.784 159.402 278.785 160.416V182.08C278.784 183.095 278.303 184.067 277.448 184.785C276.594 185.502 275.435 185.906 274.226 185.907ZM222.365 157.395C221.411 157.396 220.496 157.715 219.821 158.281C219.146 158.847 218.766 159.615 218.765 160.416V182.08C218.766 182.881 219.146 183.649 219.821 184.215C220.496 184.782 221.411 185.1 222.365 185.101H274.226C275.18 185.1 276.095 184.782 276.77 184.215C277.445 183.649 277.824 182.881 277.825 182.08V160.416C277.824 159.615 277.445 158.847 276.77 158.281C276.095 157.715 275.18 157.396 274.226 157.395H222.365Z" fill="#CCCCCC"/>
<path d="M265.706 196.163H230.77C229.743 196.162 228.758 195.818 228.032 195.209C227.306 194.599 226.899 193.772 226.899 192.91C226.899 192.047 227.306 191.221 228.032 190.611C228.758 190.001 229.743 189.657 230.77 189.656H265.706C266.734 189.656 267.72 189.999 268.447 190.609C269.174 191.219 269.582 192.047 269.582 192.91C269.582 193.772 269.174 194.6 268.447 195.21C267.72 195.82 266.734 196.163 265.706 196.163Z" fill="#E6E6E6"/>
<path d="M242.593 179.62C242.298 179.619 242.009 179.556 241.752 179.436C241.476 179.311 241.246 179.126 241.087 178.9C240.928 178.674 240.845 178.416 240.847 178.153V166.063C240.847 165.801 240.931 165.544 241.09 165.318C241.249 165.092 241.478 164.907 241.751 164.78C242.025 164.654 242.334 164.592 242.647 164.6C242.959 164.609 243.263 164.687 243.526 164.828L257.191 170.873C257.439 171.005 257.643 171.188 257.784 171.403C257.926 171.619 258 171.862 258 172.108C258 172.355 257.926 172.597 257.784 172.813C257.643 173.029 257.439 173.211 257.191 173.344L243.526 179.389C243.248 179.539 242.924 179.619 242.593 179.62Z" fill="#7469B6"/>
<path d="M98.1235 110.553L71.5797 110.703C71.5797 110.703 56.4623 106.613 49.6064 107.467L46.9851 116.11L65.8161 121.346L98.5895 117.355C99.325 117.667 100.145 117.811 100.968 117.772C101.791 117.733 102.587 117.513 103.276 117.134C103.965 116.755 104.523 116.23 104.894 115.612C105.265 114.994 105.435 114.306 105.388 113.615C105.34 112.925 105.077 112.257 104.625 111.679C104.172 111.101 103.546 110.633 102.81 110.323C102.073 110.012 101.252 109.87 100.43 109.911C99.6071 109.951 98.8116 110.173 98.1235 110.553Z" fill="#A0616A"/>
<path d="M65.5913 122.183L34.0994 114.582L31.2324 105.616C30.4855 104.42 30.1522 103.072 30.27 101.725C30.3878 100.378 30.9522 99.0858 31.8992 97.994C34.5877 94.938 36.6892 97.9735 40.5047 100.017C47.1932 100.414 63.8881 105.208 70.6651 110.76L70.1311 114.172L65.5913 122.183Z" fill="#3F3D56"/>
<path d="M92.9914 114.865C92.2868 114.863 91.5943 114.712 90.9782 114.425C90.3193 114.126 89.7697 113.683 89.3885 113.142C89.0073 112.601 88.809 111.984 88.8148 111.355V82.4238C88.8148 81.7965 89.0156 81.1807 89.3961 80.6407C89.7767 80.1008 90.323 79.6566 90.9781 79.3545C91.6332 79.0524 92.3729 78.9035 93.12 78.9234C93.8671 78.9433 94.594 79.1313 95.225 79.4676L127.925 93.9334C128.518 94.2496 129.006 94.6863 129.345 95.2031C129.683 95.7199 129.86 96.2999 129.86 96.8896C129.86 97.4792 129.683 98.0593 129.345 98.5761C129.006 99.0928 128.518 99.5295 127.925 99.8457L95.225 114.312C94.5585 114.671 93.7835 114.863 92.9914 114.865Z" fill="#7469B6"/>
<path d="M71.0234 254.216L77.7232 254.215L80.9101 232.528L71.0225 232.528L71.0234 254.216Z" fill="#A0616A"/>
<path d="M69.3147 252.38L71.2004 252.38L78.5626 249.867L82.5085 252.379H82.509C84.7389 252.379 86.8775 253.123 88.4543 254.446C90.0311 255.77 90.917 257.565 90.9171 259.436V259.665L69.3151 259.666L69.3147 252.38Z" fill="#2F2E41"/>
<path d="M23.3154 248.922L29.6615 250.725L40.9684 231.042L31.6029 228.38L23.3154 248.922Z" fill="#A0616A"/>
<path d="M22.3984 246.723L24.1845 247.231L32.118 246.833L34.8953 250.275L34.8958 250.275C37.0078 250.875 38.7493 252.155 39.737 253.833C40.7248 255.511 40.8779 257.449 40.1629 259.222L40.0752 259.439L19.6143 253.625L22.3984 246.723Z" fill="#2F2E41"/>
<path d="M31.0811 160.798C31.0811 160.798 30.2988 168.677 32.2545 176.228C34.2102 183.778 38.4191 208.842 38.4191 208.842C29.8942 220.602 24.9535 232.174 24.0203 243.887L36.0193 244.693L53.2001 210.479L54.9409 176.228L67.4575 199.535L66.8139 201.336C66.6616 201.762 66.6803 202.218 66.867 202.634C67.0537 203.05 67.398 203.403 67.8471 203.639C67.8471 203.639 66.6752 210.04 67.4575 210.04C68.2398 210.04 70.1955 211.025 70.1955 211.025C65.3192 223.766 64.6646 235.967 69.1365 247.513L79.6956 247.11L86.6236 196.909L81.5387 169.662L81.1475 164.41L79.3874 164.47L78.4911 162.276L76.8449 158.5L31.0811 160.798Z" fill="#2F2E41"/>
<path d="M30.405 162.453L30.3353 162.371C26.6122 157.996 32.2117 147.484 33.0563 145.96L29.4991 144.991L26.3887 122.901L24.1139 115.269C23.2567 112.384 23.3298 109.36 24.3255 106.506C25.3212 103.653 27.2038 101.073 29.7799 99.0323L35.0382 94.8712L41.4287 86.9353H51.734L55.2675 92.5369C58.6933 93.2014 61.7327 94.8535 63.8563 97.2054C65.98 99.5574 67.0532 102.46 66.8891 105.408L66.0883 120.099L69.2234 138.391L69.2253 141.701L74.6681 149.191L75.8538 153.834C76.3444 154.378 79.583 158.002 79.583 158.993C79.583 159.141 79.4522 159.285 79.1714 159.445C76.9644 160.699 64.7656 163.256 59.3665 161.443C53.6155 159.513 30.7542 162.408 30.5238 162.438L30.405 162.453Z" fill="#3F3D56"/>
<path d="M135.67 259.521C135.671 259.583 135.656 259.646 135.628 259.704C135.599 259.762 135.557 259.814 135.505 259.859C135.452 259.903 135.389 259.939 135.32 259.963C135.251 259.987 135.177 260 135.103 260H0.571153C0.419674 260 0.274398 259.949 0.167286 259.86C0.060174 259.77 0 259.648 0 259.521C0 259.393 0.060174 259.272 0.167286 259.182C0.274398 259.092 0.419674 259.041 0.571153 259.041H135.099C135.25 259.041 135.395 259.091 135.502 259.18C135.609 259.27 135.67 259.391 135.67 259.518V259.521Z" fill="#CCCCCC"/>
<path d="M47.9126 84.3736C55.4502 84.3736 61.5607 79.2452 61.5607 72.919C61.5607 66.5928 55.4502 61.4644 47.9126 61.4644C40.3749 61.4644 34.2644 66.5928 34.2644 72.919C34.2644 79.2452 40.3749 84.3736 47.9126 84.3736Z" fill="#A0616A"/>
<path d="M98.5771 81.7132L77.52 95.2774C77.52 95.2774 62.5249 99.6733 57.6729 103.827L61.7974 112.046L80.5778 106.683L103.84 86.9008C104.651 86.7769 105.408 86.4759 106.036 86.0281C106.664 85.5803 107.141 85.0016 107.418 84.3502C107.694 83.6988 107.762 82.9976 107.613 82.3174C107.465 81.6371 107.105 81.0017 106.571 80.4751C106.037 79.9485 105.347 79.5493 104.57 79.3177C103.794 79.0861 102.958 79.0302 102.148 79.1557C101.337 79.2812 100.581 79.5837 99.9539 80.0327C99.327 80.4817 98.8522 81.0613 98.5771 81.7132Z" fill="#A0616A"/>
<path d="M81.0004 107.464L51.7484 114.653L41.6908 111.658C40.2351 111.082 39.0002 110.176 38.1257 109.043C37.2511 107.909 36.7717 106.593 36.7418 105.243C36.6879 101.444 40.5463 102.8 45.0581 102.497C50.6766 99.4255 67.4358 94.7921 76.8313 95.7857L78.8594 98.777L81.0004 107.464Z" fill="#3F3D56"/>
<path d="M57.2713 59.6938C56.2932 59.6694 56.6289 58.122 55.8409 57.6284C55.837 57.6433 55.833 57.6583 55.8289 57.6732C55.7256 58.0075 55.4972 58.3051 55.1772 58.5221C54.8572 58.7392 54.4626 58.8643 54.0515 58.8791C53.6404 58.8938 53.2346 58.7973 52.8937 58.6039C52.5529 58.4105 52.295 58.1303 52.1581 57.8046C52.0274 57.4279 51.7909 57.0831 51.4683 56.7991C51.1457 56.515 50.7466 56.3002 50.3045 56.1726C50.2555 57.6069 48.9628 58.8517 47.4206 59.4712C45.8785 60.0907 44.1202 60.1938 42.4107 60.215C40.7012 60.2362 38.9671 60.1882 37.3094 60.5393C35.6517 60.8903 34.0393 61.7158 33.331 63.0218C32.6227 64.3278 33.1281 66.1258 34.6768 66.7336C33.477 66.739 32.459 67.5699 32.0441 68.5147C31.7041 69.4839 31.6154 70.5029 31.784 71.5032C32.1212 75.2072 32.9433 79.195 36.1569 81.7495C38.6061 83.6963 42.1118 84.4806 45.4851 84.4693C48.8585 84.4579 48.2653 84.1977 51.527 83.4751C51.527 83.4751 54.6279 76.0142 53.8471 75.2803C53.0662 74.5463 52.4177 73.6072 52.559 72.6304C52.7003 71.6536 53.951 70.7786 55.0365 71.1504C54.854 70.7588 54.7164 70.6842 54.6303 70.7041C54.6852 70.5928 54.733 70.4792 54.7737 70.3637C54.9781 69.7752 55.3459 69.2358 55.847 68.7899C56.3481 68.3439 56.9681 68.0041 57.6561 67.7985C58.3511 67.6092 59.0984 67.6029 59.7977 67.7805C60.4971 67.9582 61.1149 68.3112 61.5681 68.7921C65.1396 65.9809 62.9239 59.8347 57.2713 59.6938Z" fill="#2F2E41"/>
<path d="M288.296 13.891H70.2538C70.0271 13.887 69.8112 13.8085 69.6526 13.6725C69.4939 13.5364 69.405 13.3536 69.405 13.1633C69.405 12.9729 69.4939 12.7901 69.6526 12.6541C69.8112 12.5181 70.0271 12.4396 70.2538 12.4355H288.296C288.523 12.4396 288.739 12.5181 288.898 12.6541C289.056 12.7901 289.145 12.9729 289.145 13.1633C289.145 13.3536 289.056 13.5364 288.898 13.6725C288.739 13.8085 288.523 13.887 288.296 13.891Z" fill="#CACACA"/>
<path d="M85.0965 8.71982C87.9029 8.71982 90.1781 6.76782 90.1781 4.35991C90.1781 1.952 87.9029 0 85.0965 0C82.29 0 80.0149 1.952 80.0149 4.35991C80.0149 6.76782 82.29 8.71982 85.0965 8.71982Z" fill="#3F3D56"/>
<path d="M102.651 8.71982C105.457 8.71982 107.732 6.76782 107.732 4.35991C107.732 1.952 105.457 0 102.651 0C99.8444 0 97.5693 1.952 97.5693 4.35991C97.5693 6.76782 99.8444 8.71982 102.651 8.71982Z" fill="#3F3D56"/>
<path d="M120.205 8.71982C123.012 8.71982 125.287 6.76782 125.287 4.35991C125.287 1.952 123.012 0 120.205 0C117.399 0 115.124 1.952 115.124 4.35991C115.124 6.76782 117.399 8.71982 120.205 8.71982Z" fill="#3F3D56"/>
<path d="M277.727 1.08057H265.257C265.01 1.08467 264.775 1.16997 264.602 1.31813C264.428 1.4663 264.332 1.66551 264.332 1.87301C264.332 2.0805 264.428 2.27972 264.602 2.42789C264.775 2.57605 265.01 2.66134 265.257 2.66544H277.727C277.974 2.66134 278.21 2.57605 278.383 2.42789C278.556 2.27972 278.653 2.0805 278.653 1.87301C278.653 1.66551 278.556 1.4663 278.383 1.31813C278.21 1.16997 277.974 1.08467 277.727 1.08057Z" fill="#3F3D56"/>
<path d="M277.727 4.05518H265.257C265.01 4.05928 264.775 4.14457 264.602 4.29273C264.428 4.4409 264.332 4.64012 264.332 4.84761C264.332 5.05511 264.428 5.25432 264.602 5.40249C264.775 5.55065 265.01 5.63595 265.257 5.64005H277.727C277.974 5.63595 278.21 5.55065 278.383 5.40249C278.556 5.25432 278.653 5.05511 278.653 4.84761C278.653 4.64012 278.556 4.4409 278.383 4.29273C278.21 4.14457 277.974 4.05928 277.727 4.05518Z" fill="#3F3D56"/>
<path d="M277.727 7.02588H265.257C265.01 7.02998 264.775 7.11527 264.602 7.26344C264.428 7.4116 264.332 7.61082 264.332 7.81832C264.332 8.02581 264.428 8.22503 264.602 8.37319C264.775 8.52136 265.01 8.60665 265.257 8.61076H277.727C277.974 8.60665 278.21 8.52136 278.383 8.37319C278.556 8.22503 278.653 8.02581 278.653 7.81832C278.653 7.61082 278.556 7.4116 278.383 7.26344C278.21 7.11527 277.974 7.02998 277.727 7.02588Z" fill="#3F3D56"/>
<path d="M172.342 54.793V65.7336C172.342 66.2774 171.209 66.7326 169.683 66.8574C169.67 66.8568 169.657 66.8582 169.644 66.8615C169.39 66.8776 169.121 66.8897 168.848 66.8897C168.006 66.9026 167.169 66.788 166.376 66.5513C166.304 66.5271 166.232 66.4989 166.16 66.4748C166.093 66.4425 166.021 66.4143 165.953 66.3821C165.574 66.1928 165.354 65.9712 165.354 65.7336V54.793H172.342Z" fill="#CCCCCC"/>
<path d="M278.425 189.389C281.704 189.389 284.363 187.158 284.363 184.405C284.363 181.653 281.704 179.422 278.425 179.422C275.145 179.422 272.486 181.653 272.486 184.405C272.486 187.158 275.145 189.389 278.425 189.389Z" fill="#3F3D56"/>
<path d="M277.98 186.397C277.967 186.397 277.955 186.397 277.942 186.397C277.83 186.392 277.721 186.367 277.621 186.324C277.522 186.281 277.435 186.22 277.366 186.146L276.374 185.075C276.311 185.007 276.265 184.93 276.238 184.847C276.211 184.765 276.204 184.679 276.216 184.594C276.229 184.509 276.261 184.427 276.312 184.352C276.362 184.278 276.43 184.212 276.51 184.16L276.546 184.136C276.626 184.084 276.718 184.045 276.817 184.022C276.915 183.999 277.018 183.993 277.119 184.004C277.221 184.014 277.318 184.042 277.407 184.084C277.496 184.126 277.574 184.183 277.636 184.251C277.687 184.305 277.75 184.349 277.822 184.381C277.895 184.412 277.974 184.43 278.056 184.434C278.137 184.437 278.219 184.425 278.294 184.4C278.37 184.374 278.438 184.335 278.495 184.286L280.51 182.5C280.651 182.375 280.847 182.302 281.053 182.297C281.259 182.293 281.458 182.357 281.608 182.475L281.641 182.502C281.715 182.561 281.775 182.631 281.816 182.71C281.858 182.788 281.881 182.872 281.883 182.958C281.886 183.043 281.869 183.128 281.832 183.208C281.796 183.288 281.741 183.362 281.671 183.424L278.544 186.194C278.471 186.258 278.384 186.309 278.287 186.344C278.19 186.379 278.086 186.397 277.98 186.397Z" fill="white"/>
<path d="M311.062 96.7406C314.341 96.7406 317 94.5093 317 91.7568C317 89.0043 314.341 86.7729 311.062 86.7729C307.782 86.7729 305.124 89.0043 305.124 91.7568C305.124 94.5093 307.782 96.7406 311.062 96.7406Z" fill="#3F3D56"/>
<path d="M310.617 93.7486C310.605 93.7486 310.592 93.7482 310.579 93.7477C310.467 93.7432 310.358 93.7184 310.259 93.675C310.159 93.6317 310.072 93.5709 310.004 93.4967L309.011 92.4259C308.949 92.3583 308.902 92.281 308.875 92.1984C308.848 92.1159 308.841 92.0296 308.853 91.9447C308.866 91.8597 308.898 91.7776 308.949 91.7032C308.999 91.6287 309.067 91.5633 309.147 91.5108L309.183 91.4874C309.264 91.4348 309.356 91.396 309.454 91.3733C309.553 91.3506 309.655 91.3443 309.757 91.3549C309.858 91.3656 309.956 91.3928 310.044 91.4352C310.133 91.4775 310.211 91.5342 310.274 91.6018C310.324 91.6558 310.387 91.7001 310.46 91.7317C310.532 91.7632 310.612 91.7813 310.693 91.7846C310.775 91.7879 310.856 91.7765 310.932 91.751C311.007 91.7255 311.076 91.6866 311.132 91.6369L313.147 89.8516C313.289 89.7262 313.484 89.6531 313.69 89.6484C313.896 89.6437 314.095 89.7078 314.245 89.8265L314.278 89.8529C314.352 89.9118 314.412 89.9824 314.453 90.0606C314.495 90.1388 314.518 90.2231 314.521 90.3087C314.523 90.3943 314.506 90.4796 314.47 90.5595C314.433 90.6395 314.378 90.7127 314.308 90.7748L311.181 93.5449C311.108 93.6092 311.021 93.6605 310.924 93.6955C310.827 93.7305 310.723 93.7486 310.617 93.7486Z" fill="white"/>
</g>
<defs>
<clipPath id="clip0_317_673">
<rect width="317" height="260" fill="white"/>
</clipPath>
</defs>
</svg>
